%TF.GenerationSoftware,KiCad,Pcbnew,9.0.2*%
%TF.CreationDate,2025-06-18T22:14:32+09:00*%
%TF.ProjectId,LoRa_TM,4c6f5261-5f54-44d2-9e6b-696361645f70,rev?*%
%TF.SameCoordinates,Original*%
%TF.FileFunction,Copper,L3,Inr*%
%TF.FilePolarity,Positive*%
%FSLAX46Y46*%
G04 Gerber Fmt 4.6, Leading zero omitted, Abs format (unit mm)*
G04 Created by KiCad (PCBNEW 9.0.2) date 2025-06-18 22:14:32*
%MOMM*%
%LPD*%
G01*
G04 APERTURE LIST*
%TA.AperFunction,ViaPad*%
%ADD10C,0.600000*%
%TD*%
%TA.AperFunction,ViaPad*%
%ADD11C,0.400000*%
%TD*%
%TA.AperFunction,ViaPad*%
%ADD12C,0.450000*%
%TD*%
G04 APERTURE END LIST*
D10*
%TO.N,/LoRa_RX*%
X91308000Y-94226000D03*
D11*
X103558000Y-88726000D03*
%TO.N,/LoRa_TX*%
X102308000Y-88726000D03*
D12*
%TO.N,+3.3V*%
X111558000Y-78226000D03*
D10*
%TO.N,GND*%
X89308000Y-78976000D03*
X108058000Y-124476000D03*
X104558000Y-124476000D03*
X101058000Y-124476000D03*
%TO.N,/LED_TX*%
X106558000Y-124476000D03*
%TO.N,/LED_RX*%
X103058000Y-124476000D03*
%TO.N,/LED_ON*%
X99558000Y-124476000D03*
%TO.N,/LoRa_M1*%
X98308000Y-86226000D03*
%TO.N,/LoRa_M0*%
X98958000Y-84076000D03*
D12*
%TO.N,/USB_CONN_D-*%
X92708000Y-78989590D03*
%TO.N,/USB_CONN_D+*%
X93408000Y-78989590D03*
%TO.N,GND*%
X102308000Y-84726000D03*
X102558000Y-87226000D03*
%TO.N,+5V*%
X107558000Y-72226000D03*
D11*
%TO.N,GND*%
X96908000Y-78576000D03*
%TO.N,/BOOT0*%
X100308000Y-83226000D03*
X95058000Y-73976000D03*
%TO.N,/NRST*%
X93808000Y-73976000D03*
X102058000Y-85476000D03*
%TO.N,/SWCLK*%
X92808000Y-73976000D03*
%TO.N,/SWDIO*%
X91558000Y-73976000D03*
%TO.N,/SWCLK*%
X96039671Y-83439341D03*
%TO.N,/SWDIO*%
X96308000Y-83976000D03*
D12*
%TO.N,GND*%
X105808000Y-77576000D03*
X105808000Y-76576000D03*
X105808000Y-77076000D03*
X109808000Y-76476000D03*
X109808000Y-76976000D03*
X109808000Y-77476000D03*
D10*
%TO.N,Net-(R14-Pad2)*%
X110058000Y-86726000D03*
%TO.N,GND*%
X94808000Y-96726000D03*
%TO.N,+3.3V*%
X94808000Y-94226000D03*
%TO.N,/LoRa_AUX*%
X92058000Y-89226000D03*
%TO.N,/LoRa_M1*%
X91308000Y-96726000D03*
%TO.N,/LoRa_M0*%
X91308000Y-99226000D03*
D12*
%TO.N,+5V*%
X88308000Y-85976000D03*
%TO.N,VBUS*%
X87558000Y-75476000D03*
D11*
%TO.N,Net-(J2-CC1)*%
X94308000Y-78476000D03*
%TO.N,Net-(J2-CC2)*%
X90716428Y-78731000D03*
D10*
%TO.N,VBUS*%
X94808000Y-80226000D03*
D12*
%TO.N,+3.3V*%
X90058000Y-73976000D03*
D10*
%TO.N,GND*%
X105308000Y-87226000D03*
%TO.N,+3.3V*%
X105308000Y-85726000D03*
%TO.N,GND*%
X90808000Y-87976000D03*
%TO.N,+3.3V*%
X90808000Y-84976000D03*
%TD*%
%TA.AperFunction,Conductor*%
%TO.N,+3.3V*%
G36*
X112751039Y-71245685D02*
G01*
X112796794Y-71298489D01*
X112808000Y-71350000D01*
X112808000Y-95102000D01*
X112788315Y-95169039D01*
X112735511Y-95214794D01*
X112684000Y-95226000D01*
X91608983Y-95226000D01*
X91541944Y-95206315D01*
X91496189Y-95153511D01*
X91486245Y-95084353D01*
X91515270Y-95020797D01*
X91561531Y-94987439D01*
X91687172Y-94935397D01*
X91687172Y-94935396D01*
X91687179Y-94935394D01*
X91818289Y-94847789D01*
X91929789Y-94736289D01*
X92017394Y-94605179D01*
X92077737Y-94459497D01*
X92108500Y-94304842D01*
X92108500Y-94147158D01*
X92108500Y-94147155D01*
X92108499Y-94147153D01*
X92077738Y-93992510D01*
X92077737Y-93992503D01*
X92077735Y-93992498D01*
X92017397Y-93846827D01*
X92017390Y-93846814D01*
X91929789Y-93715711D01*
X91929786Y-93715707D01*
X91818292Y-93604213D01*
X91818288Y-93604210D01*
X91687185Y-93516609D01*
X91687172Y-93516602D01*
X91541501Y-93456264D01*
X91541489Y-93456261D01*
X91386845Y-93425500D01*
X91386842Y-93425500D01*
X91229158Y-93425500D01*
X91229155Y-93425500D01*
X91074510Y-93456261D01*
X91074498Y-93456264D01*
X90928827Y-93516602D01*
X90928814Y-93516609D01*
X90797711Y-93604210D01*
X90797707Y-93604213D01*
X90686213Y-93715707D01*
X90686210Y-93715711D01*
X90598609Y-93846814D01*
X90598602Y-93846827D01*
X90538264Y-93992498D01*
X90538261Y-93992510D01*
X90507500Y-94147153D01*
X90507500Y-94304846D01*
X90538261Y-94459489D01*
X90538264Y-94459501D01*
X90598602Y-94605172D01*
X90598609Y-94605185D01*
X90686210Y-94736288D01*
X90686213Y-94736292D01*
X90797707Y-94847786D01*
X90797711Y-94847789D01*
X90928814Y-94935390D01*
X90928827Y-94935397D01*
X91054469Y-94987439D01*
X91108873Y-95031280D01*
X91130938Y-95097574D01*
X91113659Y-95165273D01*
X91062522Y-95212884D01*
X91007017Y-95226000D01*
X87432000Y-95226000D01*
X87364961Y-95206315D01*
X87319206Y-95153511D01*
X87308000Y-95102000D01*
X87308000Y-87897153D01*
X90007500Y-87897153D01*
X90007500Y-88054846D01*
X90038261Y-88209489D01*
X90038264Y-88209501D01*
X90098602Y-88355172D01*
X90098609Y-88355185D01*
X90186210Y-88486288D01*
X90186213Y-88486292D01*
X90297707Y-88597786D01*
X90297711Y-88597789D01*
X90428814Y-88685390D01*
X90428827Y-88685397D01*
X90574498Y-88745735D01*
X90574503Y-88745737D01*
X90729153Y-88776499D01*
X90729156Y-88776500D01*
X90729158Y-88776500D01*
X90886844Y-88776500D01*
X90886845Y-88776499D01*
X91041497Y-88745737D01*
X91186177Y-88685808D01*
X91255646Y-88678340D01*
X91318125Y-88709615D01*
X91353777Y-88769704D01*
X91351283Y-88839529D01*
X91348190Y-88847822D01*
X91288264Y-88992498D01*
X91288261Y-88992510D01*
X91257500Y-89147153D01*
X91257500Y-89304846D01*
X91288261Y-89459489D01*
X91288264Y-89459501D01*
X91348602Y-89605172D01*
X91348609Y-89605185D01*
X91436210Y-89736288D01*
X91436213Y-89736292D01*
X91547707Y-89847786D01*
X91547711Y-89847789D01*
X91678814Y-89935390D01*
X91678827Y-89935397D01*
X91824498Y-89995735D01*
X91824503Y-89995737D01*
X91979153Y-90026499D01*
X91979156Y-90026500D01*
X91979158Y-90026500D01*
X92136844Y-90026500D01*
X92136845Y-90026499D01*
X92291497Y-89995737D01*
X92437179Y-89935394D01*
X92568289Y-89847789D01*
X92679789Y-89736289D01*
X92767394Y-89605179D01*
X92827737Y-89459497D01*
X92858500Y-89304842D01*
X92858500Y-89147158D01*
X92858500Y-89147155D01*
X92858499Y-89147153D01*
X92840729Y-89057817D01*
X92827737Y-88992503D01*
X92801985Y-88930332D01*
X92767397Y-88846827D01*
X92767390Y-88846814D01*
X92732766Y-88794995D01*
X101607499Y-88794995D01*
X101634418Y-88930322D01*
X101634421Y-88930332D01*
X101687221Y-89057804D01*
X101687228Y-89057817D01*
X101763885Y-89172541D01*
X101763888Y-89172545D01*
X101861454Y-89270111D01*
X101861458Y-89270114D01*
X101976182Y-89346771D01*
X101976195Y-89346778D01*
X102103667Y-89399578D01*
X102103672Y-89399580D01*
X102103676Y-89399580D01*
X102103677Y-89399581D01*
X102239004Y-89426500D01*
X102239007Y-89426500D01*
X102376995Y-89426500D01*
X102468041Y-89408389D01*
X102512328Y-89399580D01*
X102639811Y-89346775D01*
X102754542Y-89270114D01*
X102754545Y-89270111D01*
X102845319Y-89179338D01*
X102906642Y-89145853D01*
X102976334Y-89150837D01*
X103020681Y-89179338D01*
X103111454Y-89270111D01*
X103111458Y-89270114D01*
X103226182Y-89346771D01*
X103226195Y-89346778D01*
X103353667Y-89399578D01*
X103353672Y-89399580D01*
X103353676Y-89399580D01*
X103353677Y-89399581D01*
X103489004Y-89426500D01*
X103489007Y-89426500D01*
X103626995Y-89426500D01*
X103718041Y-89408389D01*
X103762328Y-89399580D01*
X103889811Y-89346775D01*
X104004542Y-89270114D01*
X104102114Y-89172542D01*
X104178775Y-89057811D01*
X104231580Y-88930328D01*
X104258500Y-88794993D01*
X104258500Y-88657007D01*
X104258500Y-88657004D01*
X104231581Y-88521677D01*
X104231580Y-88521676D01*
X104231580Y-88521672D01*
X104216924Y-88486288D01*
X104178778Y-88394195D01*
X104178771Y-88394182D01*
X104102114Y-88279458D01*
X104102111Y-88279454D01*
X104004545Y-88181888D01*
X104004541Y-88181885D01*
X103889817Y-88105228D01*
X103889804Y-88105221D01*
X103762332Y-88052421D01*
X103762322Y-88052418D01*
X103626995Y-88025500D01*
X103626993Y-88025500D01*
X103489007Y-88025500D01*
X103489005Y-88025500D01*
X103353677Y-88052418D01*
X103353667Y-88052421D01*
X103226195Y-88105221D01*
X103226182Y-88105228D01*
X103111458Y-88181885D01*
X103111454Y-88181888D01*
X103020681Y-88272662D01*
X103016217Y-88275099D01*
X103013433Y-88279355D01*
X102985862Y-88291674D01*
X102959358Y-88306147D01*
X102954285Y-88305784D01*
X102949642Y-88307859D01*
X102919790Y-88303317D01*
X102889666Y-88301163D01*
X102884229Y-88297906D01*
X102880568Y-88297350D01*
X102864458Y-88286067D01*
X102851033Y-88278027D01*
X102848093Y-88275437D01*
X102754542Y-88181886D01*
X102702184Y-88146901D01*
X102695981Y-88141437D01*
X102681567Y-88118599D01*
X102664252Y-88097880D01*
X102663199Y-88089496D01*
X102658689Y-88082351D01*
X102658910Y-88055347D01*
X102655545Y-88028555D01*
X102659191Y-88020932D01*
X102659261Y-88012484D01*
X102674044Y-87989888D01*
X102685700Y-87965528D01*
X102692889Y-87961087D01*
X102697515Y-87954017D01*
X102722167Y-87943001D01*
X102745143Y-87928809D01*
X102753744Y-87926776D01*
X102769620Y-87923619D01*
X102901653Y-87868929D01*
X103020479Y-87789532D01*
X103121532Y-87688479D01*
X103200929Y-87569653D01*
X103255619Y-87437620D01*
X103272210Y-87354213D01*
X103283500Y-87297457D01*
X103283500Y-87154542D01*
X103282030Y-87147153D01*
X104507500Y-87147153D01*
X104507500Y-87304846D01*
X104538261Y-87459489D01*
X104538264Y-87459501D01*
X104598602Y-87605172D01*
X104598609Y-87605185D01*
X104686210Y-87736288D01*
X104686213Y-87736292D01*
X104797707Y-87847786D01*
X104797711Y-87847789D01*
X104928814Y-87935390D01*
X104928827Y-87935397D01*
X105001571Y-87965528D01*
X105074503Y-87995737D01*
X105201166Y-88020932D01*
X105229153Y-88026499D01*
X105229156Y-88026500D01*
X105229158Y-88026500D01*
X105386844Y-88026500D01*
X105386845Y-88026499D01*
X105541497Y-87995737D01*
X105687179Y-87935394D01*
X105818289Y-87847789D01*
X105929789Y-87736289D01*
X106017394Y-87605179D01*
X106020854Y-87596827D01*
X106049984Y-87526499D01*
X106077737Y-87459497D01*
X106108500Y-87304842D01*
X106108500Y-87147158D01*
X106108500Y-87147155D01*
X106108499Y-87147153D01*
X106084499Y-87026499D01*
X106077737Y-86992503D01*
X106032110Y-86882349D01*
X106017397Y-86846827D01*
X106017390Y-86846814D01*
X105929790Y-86715712D01*
X105929784Y-86715705D01*
X105861232Y-86647153D01*
X109257500Y-86647153D01*
X109257500Y-86804846D01*
X109288261Y-86959489D01*
X109288264Y-86959501D01*
X109348602Y-87105172D01*
X109348609Y-87105185D01*
X109436210Y-87236288D01*
X109436213Y-87236292D01*
X109547707Y-87347786D01*
X109547711Y-87347789D01*
X109678814Y-87435390D01*
X109678827Y-87435397D01*
X109752013Y-87465711D01*
X109824503Y-87495737D01*
X109979153Y-87526499D01*
X109979156Y-87526500D01*
X109979158Y-87526500D01*
X110136844Y-87526500D01*
X110136845Y-87526499D01*
X110291497Y-87495737D01*
X110431805Y-87437620D01*
X110437172Y-87435397D01*
X110437172Y-87435396D01*
X110437179Y-87435394D01*
X110568289Y-87347789D01*
X110679789Y-87236289D01*
X110767394Y-87105179D01*
X110827737Y-86959497D01*
X110858500Y-86804842D01*
X110858500Y-86647158D01*
X110858500Y-86647155D01*
X110858499Y-86647153D01*
X110845752Y-86583069D01*
X110827737Y-86492503D01*
X110814062Y-86459489D01*
X110767397Y-86346827D01*
X110767390Y-86346814D01*
X110679789Y-86215711D01*
X110679786Y-86215707D01*
X110568292Y-86104213D01*
X110568288Y-86104210D01*
X110437185Y-86016609D01*
X110437172Y-86016602D01*
X110291501Y-85956264D01*
X110291489Y-85956261D01*
X110136845Y-85925500D01*
X110136842Y-85925500D01*
X109979158Y-85925500D01*
X109979155Y-85925500D01*
X109824510Y-85956261D01*
X109824498Y-85956264D01*
X109678827Y-86016602D01*
X109678814Y-86016609D01*
X109547711Y-86104210D01*
X109547707Y-86104213D01*
X109436213Y-86215707D01*
X109436210Y-86215711D01*
X109348609Y-86346814D01*
X109348602Y-86346827D01*
X109288264Y-86492498D01*
X109288261Y-86492510D01*
X109257500Y-86647153D01*
X105861232Y-86647153D01*
X105818292Y-86604213D01*
X105818288Y-86604210D01*
X105687185Y-86516609D01*
X105687172Y-86516602D01*
X105541501Y-86456264D01*
X105541489Y-86456261D01*
X105386845Y-86425500D01*
X105386842Y-86425500D01*
X105229158Y-86425500D01*
X105229155Y-86425500D01*
X105074510Y-86456261D01*
X105074498Y-86456264D01*
X104928827Y-86516602D01*
X104928814Y-86516609D01*
X104797711Y-86604210D01*
X104797707Y-86604213D01*
X104686213Y-86715707D01*
X104686210Y-86715711D01*
X104598609Y-86846814D01*
X104598602Y-86846827D01*
X104538264Y-86992498D01*
X104538261Y-86992510D01*
X104507500Y-87147153D01*
X103282030Y-87147153D01*
X103255620Y-87014385D01*
X103255619Y-87014384D01*
X103255619Y-87014380D01*
X103200929Y-86882347D01*
X103200928Y-86882346D01*
X103200925Y-86882340D01*
X103121532Y-86763521D01*
X103121529Y-86763517D01*
X103020482Y-86662470D01*
X103020478Y-86662467D01*
X102901659Y-86583074D01*
X102901650Y-86583069D01*
X102769620Y-86528381D01*
X102769614Y-86528379D01*
X102629457Y-86500500D01*
X102629455Y-86500500D01*
X102486545Y-86500500D01*
X102486543Y-86500500D01*
X102346385Y-86528379D01*
X102346379Y-86528381D01*
X102214349Y-86583069D01*
X102214340Y-86583074D01*
X102095521Y-86662467D01*
X102095517Y-86662470D01*
X101994470Y-86763517D01*
X101994467Y-86763521D01*
X101915074Y-86882340D01*
X101915069Y-86882349D01*
X101860381Y-87014379D01*
X101860379Y-87014385D01*
X101832500Y-87154542D01*
X101832500Y-87154545D01*
X101832500Y-87297455D01*
X101832500Y-87297457D01*
X101832499Y-87297457D01*
X101860379Y-87437614D01*
X101860381Y-87437620D01*
X101915069Y-87569650D01*
X101915074Y-87569659D01*
X101994467Y-87688478D01*
X101994470Y-87688482D01*
X102095517Y-87789529D01*
X102095525Y-87789535D01*
X102151662Y-87827045D01*
X102196468Y-87880657D01*
X102205175Y-87949982D01*
X102175021Y-88013009D01*
X102115578Y-88049729D01*
X102106974Y-88051762D01*
X102103682Y-88052416D01*
X102103667Y-88052421D01*
X101976195Y-88105221D01*
X101976182Y-88105228D01*
X101861458Y-88181885D01*
X101861454Y-88181888D01*
X101763888Y-88279454D01*
X101763885Y-88279458D01*
X101687228Y-88394182D01*
X101687221Y-88394195D01*
X101634421Y-88521667D01*
X101634418Y-88521677D01*
X101607500Y-88657004D01*
X101607500Y-88657007D01*
X101607500Y-88794993D01*
X101607500Y-88794995D01*
X101607499Y-88794995D01*
X92732766Y-88794995D01*
X92682526Y-88719806D01*
X92679790Y-88715712D01*
X92679786Y-88715707D01*
X92568292Y-88604213D01*
X92568288Y-88604210D01*
X92437185Y-88516609D01*
X92437172Y-88516602D01*
X92291501Y-88456264D01*
X92291489Y-88456261D01*
X92136845Y-88425500D01*
X92136842Y-88425500D01*
X91979158Y-88425500D01*
X91979155Y-88425500D01*
X91824510Y-88456261D01*
X91824498Y-88456264D01*
X91679822Y-88516190D01*
X91610352Y-88523659D01*
X91547873Y-88492383D01*
X91512221Y-88432294D01*
X91514716Y-88362469D01*
X91517809Y-88354176D01*
X91536994Y-88307859D01*
X91577737Y-88209497D01*
X91608500Y-88054842D01*
X91608500Y-87897158D01*
X91608500Y-87897155D01*
X91608499Y-87897153D01*
X91598679Y-87847786D01*
X91577737Y-87742503D01*
X91555360Y-87688479D01*
X91517397Y-87596827D01*
X91517390Y-87596814D01*
X91429789Y-87465711D01*
X91429786Y-87465707D01*
X91318292Y-87354213D01*
X91318288Y-87354210D01*
X91187185Y-87266609D01*
X91187172Y-87266602D01*
X91041501Y-87206264D01*
X91041489Y-87206261D01*
X90886845Y-87175500D01*
X90886842Y-87175500D01*
X90729158Y-87175500D01*
X90729155Y-87175500D01*
X90574510Y-87206261D01*
X90574498Y-87206264D01*
X90428827Y-87266602D01*
X90428814Y-87266609D01*
X90297711Y-87354210D01*
X90297707Y-87354213D01*
X90186213Y-87465707D01*
X90186210Y-87465711D01*
X90098609Y-87596814D01*
X90098602Y-87596827D01*
X90038264Y-87742498D01*
X90038261Y-87742510D01*
X90007500Y-87897153D01*
X87308000Y-87897153D01*
X87308000Y-86047457D01*
X87582499Y-86047457D01*
X87610379Y-86187614D01*
X87610381Y-86187620D01*
X87665069Y-86319650D01*
X87665074Y-86319659D01*
X87744467Y-86438478D01*
X87744470Y-86438482D01*
X87845517Y-86539529D01*
X87845521Y-86539532D01*
X87964340Y-86618925D01*
X87964346Y-86618928D01*
X87964347Y-86618929D01*
X88096380Y-86673619D01*
X88096384Y-86673619D01*
X88096385Y-86673620D01*
X88236542Y-86701500D01*
X88236545Y-86701500D01*
X88379457Y-86701500D01*
X88473751Y-86682742D01*
X88519620Y-86673619D01*
X88651653Y-86618929D01*
X88770479Y-86539532D01*
X88871532Y-86438479D01*
X88950929Y-86319653D01*
X89005619Y-86187620D01*
X89013669Y-86147153D01*
X97507500Y-86147153D01*
X97507500Y-86304846D01*
X97538261Y-86459489D01*
X97538264Y-86459501D01*
X97598602Y-86605172D01*
X97598609Y-86605185D01*
X97686210Y-86736288D01*
X97686213Y-86736292D01*
X97797707Y-86847786D01*
X97797711Y-86847789D01*
X97928814Y-86935390D01*
X97928827Y-86935397D01*
X98066683Y-86992498D01*
X98074503Y-86995737D01*
X98229153Y-87026499D01*
X98229156Y-87026500D01*
X98229158Y-87026500D01*
X98386844Y-87026500D01*
X98386845Y-87026499D01*
X98541497Y-86995737D01*
X98687179Y-86935394D01*
X98818289Y-86847789D01*
X98929789Y-86736289D01*
X99017394Y-86605179D01*
X99077737Y-86459497D01*
X99108500Y-86304842D01*
X99108500Y-86147158D01*
X99108500Y-86147155D01*
X99108499Y-86147153D01*
X99088668Y-86047457D01*
X99077737Y-85992503D01*
X99077735Y-85992498D01*
X99017397Y-85846827D01*
X99017390Y-85846814D01*
X98929789Y-85715711D01*
X98929786Y-85715707D01*
X98818292Y-85604213D01*
X98818288Y-85604210D01*
X98729667Y-85544995D01*
X101357499Y-85544995D01*
X101384418Y-85680322D01*
X101384421Y-85680332D01*
X101437221Y-85807804D01*
X101437228Y-85807817D01*
X101513885Y-85922541D01*
X101513888Y-85922545D01*
X101611454Y-86020111D01*
X101611458Y-86020114D01*
X101726182Y-86096771D01*
X101726195Y-86096778D01*
X101847825Y-86147158D01*
X101853672Y-86149580D01*
X101853676Y-86149580D01*
X101853677Y-86149581D01*
X101989004Y-86176500D01*
X101989007Y-86176500D01*
X102126995Y-86176500D01*
X102218041Y-86158389D01*
X102262328Y-86149580D01*
X102389811Y-86096775D01*
X102504542Y-86020114D01*
X102602114Y-85922542D01*
X102678775Y-85807811D01*
X102731580Y-85680328D01*
X102758500Y-85544993D01*
X102758500Y-85407007D01*
X102758500Y-85407004D01*
X102753928Y-85384024D01*
X102760153Y-85314432D01*
X102787862Y-85272148D01*
X102871532Y-85188479D01*
X102950929Y-85069653D01*
X103005619Y-84937620D01*
X103023896Y-84845737D01*
X103033500Y-84797457D01*
X103033500Y-84654542D01*
X103005620Y-84514385D01*
X103005619Y-84514384D01*
X103005619Y-84514380D01*
X102950929Y-84382347D01*
X102950928Y-84382346D01*
X102950925Y-84382340D01*
X102871532Y-84263521D01*
X102871529Y-84263517D01*
X102770482Y-84162470D01*
X102770478Y-84162467D01*
X102651659Y-84083074D01*
X102651650Y-84083069D01*
X102519620Y-84028381D01*
X102519614Y-84028379D01*
X102379457Y-84000500D01*
X102379455Y-84000500D01*
X102236545Y-84000500D01*
X102236543Y-84000500D01*
X102096385Y-84028379D01*
X102096379Y-84028381D01*
X101964349Y-84083069D01*
X101964340Y-84083074D01*
X101845521Y-84162467D01*
X101845517Y-84162470D01*
X101744470Y-84263517D01*
X101744467Y-84263521D01*
X101665074Y-84382340D01*
X101665069Y-84382349D01*
X101610381Y-84514379D01*
X101610379Y-84514385D01*
X101582500Y-84654542D01*
X101582500Y-84654545D01*
X101582500Y-84797455D01*
X101582500Y-84797457D01*
X101582499Y-84797457D01*
X101596677Y-84868728D01*
X101590450Y-84938320D01*
X101562743Y-84980600D01*
X101513883Y-85029461D01*
X101437228Y-85144182D01*
X101437221Y-85144195D01*
X101384421Y-85271667D01*
X101384418Y-85271677D01*
X101357500Y-85407004D01*
X101357500Y-85407007D01*
X101357500Y-85544993D01*
X101357500Y-85544995D01*
X101357499Y-85544995D01*
X98729667Y-85544995D01*
X98687185Y-85516609D01*
X98687178Y-85516605D01*
X98684453Y-85515477D01*
X98684451Y-85515475D01*
X98541501Y-85456264D01*
X98541489Y-85456261D01*
X98386845Y-85425500D01*
X98386842Y-85425500D01*
X98229158Y-85425500D01*
X98229155Y-85425500D01*
X98074510Y-85456261D01*
X98074498Y-85456264D01*
X97928827Y-85516602D01*
X97928814Y-85516609D01*
X97797711Y-85604210D01*
X97797707Y-85604213D01*
X97686213Y-85715707D01*
X97686210Y-85715711D01*
X97598609Y-85846814D01*
X97598602Y-85846827D01*
X97538264Y-85992498D01*
X97538261Y-85992510D01*
X97507500Y-86147153D01*
X89013669Y-86147153D01*
X89019692Y-86116874D01*
X89033500Y-86047457D01*
X89033500Y-85904542D01*
X89005620Y-85764385D01*
X89005619Y-85764384D01*
X89005619Y-85764380D01*
X88950929Y-85632347D01*
X88950927Y-85632345D01*
X88950923Y-85632337D01*
X88871532Y-85513521D01*
X88871529Y-85513517D01*
X88770482Y-85412470D01*
X88770478Y-85412467D01*
X88651659Y-85333074D01*
X88651650Y-85333069D01*
X88519620Y-85278381D01*
X88519614Y-85278379D01*
X88379457Y-85250500D01*
X88379455Y-85250500D01*
X88236545Y-85250500D01*
X88236543Y-85250500D01*
X88096385Y-85278379D01*
X88096379Y-85278381D01*
X87964349Y-85333069D01*
X87964340Y-85333074D01*
X87845521Y-85412467D01*
X87845517Y-85412470D01*
X87744470Y-85513517D01*
X87744467Y-85513521D01*
X87665077Y-85632337D01*
X87665069Y-85632349D01*
X87610381Y-85764379D01*
X87610379Y-85764385D01*
X87582500Y-85904542D01*
X87582500Y-85904545D01*
X87582500Y-86047455D01*
X87582500Y-86047457D01*
X87582499Y-86047457D01*
X87308000Y-86047457D01*
X87308000Y-83508336D01*
X95339170Y-83508336D01*
X95366089Y-83643663D01*
X95366092Y-83643673D01*
X95418892Y-83771145D01*
X95418899Y-83771158D01*
X95495555Y-83885881D01*
X95495556Y-83885882D01*
X95495557Y-83885883D01*
X95571182Y-83961508D01*
X95604666Y-84022829D01*
X95606402Y-84038982D01*
X95606903Y-84038933D01*
X95607499Y-84044995D01*
X95634418Y-84180322D01*
X95634421Y-84180332D01*
X95687221Y-84307804D01*
X95687228Y-84307817D01*
X95763885Y-84422541D01*
X95763888Y-84422545D01*
X95861454Y-84520111D01*
X95861458Y-84520114D01*
X95976182Y-84596771D01*
X95976195Y-84596778D01*
X96103667Y-84649578D01*
X96103672Y-84649580D01*
X96103676Y-84649580D01*
X96103677Y-84649581D01*
X96239004Y-84676500D01*
X96239007Y-84676500D01*
X96376995Y-84676500D01*
X96487367Y-84654545D01*
X96512328Y-84649580D01*
X96639811Y-84596775D01*
X96754542Y-84520114D01*
X96852114Y-84422542D01*
X96928775Y-84307811D01*
X96981580Y-84180328D01*
X97008500Y-84044993D01*
X97008500Y-83997153D01*
X98157500Y-83997153D01*
X98157500Y-84154846D01*
X98188261Y-84309489D01*
X98188264Y-84309501D01*
X98248602Y-84455172D01*
X98248609Y-84455185D01*
X98336210Y-84586288D01*
X98336213Y-84586292D01*
X98447707Y-84697786D01*
X98447711Y-84697789D01*
X98578814Y-84785390D01*
X98578827Y-84785397D01*
X98724498Y-84845735D01*
X98724503Y-84845737D01*
X98840086Y-84868728D01*
X98879153Y-84876499D01*
X98879156Y-84876500D01*
X98879158Y-84876500D01*
X99036844Y-84876500D01*
X99036845Y-84876499D01*
X99191497Y-84845737D01*
X99337179Y-84785394D01*
X99468289Y-84697789D01*
X99579789Y-84586289D01*
X99667394Y-84455179D01*
X99727737Y-84309497D01*
X99758500Y-84154842D01*
X99758500Y-83997158D01*
X99757684Y-83993057D01*
X99749037Y-83949586D01*
X99755264Y-83879994D01*
X99798126Y-83824816D01*
X99864016Y-83801571D01*
X99932013Y-83817638D01*
X99939545Y-83822291D01*
X99976182Y-83846771D01*
X99976195Y-83846778D01*
X100070604Y-83885883D01*
X100103672Y-83899580D01*
X100103676Y-83899580D01*
X100103677Y-83899581D01*
X100239004Y-83926500D01*
X100239007Y-83926500D01*
X100376995Y-83926500D01*
X100475005Y-83907004D01*
X100512328Y-83899580D01*
X100639811Y-83846775D01*
X100754542Y-83770114D01*
X100852114Y-83672542D01*
X100928775Y-83557811D01*
X100981580Y-83430328D01*
X100993511Y-83370348D01*
X101008500Y-83294995D01*
X101008500Y-83157004D01*
X100981581Y-83021677D01*
X100981580Y-83021676D01*
X100981580Y-83021672D01*
X100981578Y-83021667D01*
X100928778Y-82894195D01*
X100928771Y-82894182D01*
X100852114Y-82779458D01*
X100852111Y-82779454D01*
X100754545Y-82681888D01*
X100754541Y-82681885D01*
X100639817Y-82605228D01*
X100639804Y-82605221D01*
X100512332Y-82552421D01*
X100512322Y-82552418D01*
X100376995Y-82525500D01*
X100376993Y-82525500D01*
X100239007Y-82525500D01*
X100239005Y-82525500D01*
X100103677Y-82552418D01*
X100103667Y-82552421D01*
X99976195Y-82605221D01*
X99976182Y-82605228D01*
X99861458Y-82681885D01*
X99861454Y-82681888D01*
X99763888Y-82779454D01*
X99763885Y-82779458D01*
X99687228Y-82894182D01*
X99687221Y-82894195D01*
X99634421Y-83021667D01*
X99634418Y-83021677D01*
X99607500Y-83157004D01*
X99607500Y-83294995D01*
X99608097Y-83301058D01*
X99606162Y-83301248D01*
X99600720Y-83361901D01*
X99557843Y-83417068D01*
X99491948Y-83440296D01*
X99423955Y-83424211D01*
X99416451Y-83419574D01*
X99337184Y-83366609D01*
X99337172Y-83366602D01*
X99191501Y-83306264D01*
X99191489Y-83306261D01*
X99036845Y-83275500D01*
X99036842Y-83275500D01*
X98879158Y-83275500D01*
X98879155Y-83275500D01*
X98724510Y-83306261D01*
X98724498Y-83306264D01*
X98578827Y-83366602D01*
X98578814Y-83366609D01*
X98447711Y-83454210D01*
X98447707Y-83454213D01*
X98336213Y-83565707D01*
X98336210Y-83565711D01*
X98248609Y-83696814D01*
X98248602Y-83696827D01*
X98188264Y-83842498D01*
X98188261Y-83842510D01*
X98157500Y-83997153D01*
X97008500Y-83997153D01*
X97008500Y-83907007D01*
X97008500Y-83907004D01*
X96981581Y-83771677D01*
X96981580Y-83771676D01*
X96981580Y-83771672D01*
X96980933Y-83770111D01*
X96928778Y-83644195D01*
X96928771Y-83644182D01*
X96852114Y-83529458D01*
X96852111Y-83529454D01*
X96776490Y-83453833D01*
X96743005Y-83392510D01*
X96741268Y-83376358D01*
X96740768Y-83376408D01*
X96740171Y-83370345D01*
X96713252Y-83235018D01*
X96713251Y-83235017D01*
X96713251Y-83235013D01*
X96680939Y-83157004D01*
X96660449Y-83107536D01*
X96660442Y-83107523D01*
X96583785Y-82992799D01*
X96583782Y-82992795D01*
X96486216Y-82895229D01*
X96486212Y-82895226D01*
X96371488Y-82818569D01*
X96371475Y-82818562D01*
X96244003Y-82765762D01*
X96243993Y-82765759D01*
X96108666Y-82738841D01*
X96108664Y-82738841D01*
X95970678Y-82738841D01*
X95970676Y-82738841D01*
X95835348Y-82765759D01*
X95835338Y-82765762D01*
X95707866Y-82818562D01*
X95707853Y-82818569D01*
X95593129Y-82895226D01*
X95593125Y-82895229D01*
X95495559Y-82992795D01*
X95495556Y-82992799D01*
X95418899Y-83107523D01*
X95418892Y-83107536D01*
X95366092Y-83235008D01*
X95366089Y-83235018D01*
X95339171Y-83370345D01*
X95339171Y-83370348D01*
X95339171Y-83508334D01*
X95339171Y-83508336D01*
X95339170Y-83508336D01*
X87308000Y-83508336D01*
X87308000Y-80147153D01*
X94007500Y-80147153D01*
X94007500Y-80304846D01*
X94038261Y-80459489D01*
X94038264Y-80459501D01*
X94098602Y-80605172D01*
X94098609Y-80605185D01*
X94186210Y-80736288D01*
X94186213Y-80736292D01*
X94297707Y-80847786D01*
X94297711Y-80847789D01*
X94428814Y-80935390D01*
X94428827Y-80935397D01*
X94574498Y-80995735D01*
X94574503Y-80995737D01*
X94729153Y-81026499D01*
X94729156Y-81026500D01*
X94729158Y-81026500D01*
X94886844Y-81026500D01*
X94886845Y-81026499D01*
X95041497Y-80995737D01*
X95187179Y-80935394D01*
X95318289Y-80847789D01*
X95429789Y-80736289D01*
X95517394Y-80605179D01*
X95577737Y-80459497D01*
X95608500Y-80304842D01*
X95608500Y-80147158D01*
X95608500Y-80147155D01*
X95608499Y-80147153D01*
X95577738Y-79992510D01*
X95577737Y-79992503D01*
X95577735Y-79992498D01*
X95517397Y-79846827D01*
X95517390Y-79846814D01*
X95429789Y-79715711D01*
X95429786Y-79715707D01*
X95318292Y-79604213D01*
X95318288Y-79604210D01*
X95187185Y-79516609D01*
X95187172Y-79516602D01*
X95041501Y-79456264D01*
X95041489Y-79456261D01*
X94886845Y-79425500D01*
X94886842Y-79425500D01*
X94729158Y-79425500D01*
X94729155Y-79425500D01*
X94574510Y-79456261D01*
X94574498Y-79456264D01*
X94428827Y-79516602D01*
X94428814Y-79516609D01*
X94297711Y-79604210D01*
X94297707Y-79604213D01*
X94186213Y-79715707D01*
X94186210Y-79715711D01*
X94098609Y-79846814D01*
X94098602Y-79846827D01*
X94038264Y-79992498D01*
X94038261Y-79992510D01*
X94007500Y-80147153D01*
X87308000Y-80147153D01*
X87308000Y-78897153D01*
X88507500Y-78897153D01*
X88507500Y-79054846D01*
X88538261Y-79209489D01*
X88538264Y-79209501D01*
X88598602Y-79355172D01*
X88598609Y-79355185D01*
X88686210Y-79486288D01*
X88686213Y-79486292D01*
X88797707Y-79597786D01*
X88797711Y-79597789D01*
X88928814Y-79685390D01*
X88928827Y-79685397D01*
X89002013Y-79715711D01*
X89074503Y-79745737D01*
X89229153Y-79776499D01*
X89229156Y-79776500D01*
X89229158Y-79776500D01*
X89386844Y-79776500D01*
X89386845Y-79776499D01*
X89541497Y-79745737D01*
X89687179Y-79685394D01*
X89818289Y-79597789D01*
X89929789Y-79486289D01*
X90017394Y-79355179D01*
X90043779Y-79291477D01*
X90087619Y-79237076D01*
X90153913Y-79215010D01*
X90221612Y-79232288D01*
X90246021Y-79251250D01*
X90269882Y-79275111D01*
X90269886Y-79275114D01*
X90384610Y-79351771D01*
X90384623Y-79351778D01*
X90512095Y-79404578D01*
X90512100Y-79404580D01*
X90512104Y-79404580D01*
X90512105Y-79404581D01*
X90647432Y-79431500D01*
X90647435Y-79431500D01*
X90785423Y-79431500D01*
X90876469Y-79413389D01*
X90920756Y-79404580D01*
X91040021Y-79355179D01*
X91048232Y-79351778D01*
X91048232Y-79351777D01*
X91048239Y-79351775D01*
X91162970Y-79275114D01*
X91260542Y-79177542D01*
X91337203Y-79062811D01*
X91337934Y-79061047D01*
X91982499Y-79061047D01*
X92010379Y-79201204D01*
X92010381Y-79201210D01*
X92065069Y-79333240D01*
X92065074Y-79333249D01*
X92144467Y-79452068D01*
X92144470Y-79452072D01*
X92245517Y-79553119D01*
X92245521Y-79553122D01*
X92364340Y-79632515D01*
X92364349Y-79632520D01*
X92394258Y-79644908D01*
X92496380Y-79687209D01*
X92496384Y-79687209D01*
X92496385Y-79687210D01*
X92636542Y-79715090D01*
X92636545Y-79715090D01*
X92779457Y-79715090D01*
X92873751Y-79696332D01*
X92919620Y-79687209D01*
X93010549Y-79649544D01*
X93080016Y-79642076D01*
X93105447Y-79649543D01*
X93196380Y-79687209D01*
X93196384Y-79687209D01*
X93196385Y-79687210D01*
X93336542Y-79715090D01*
X93336545Y-79715090D01*
X93479457Y-79715090D01*
X93573751Y-79696332D01*
X93619620Y-79687209D01*
X93751653Y-79632519D01*
X93870479Y-79553122D01*
X93971532Y-79452069D01*
X94050929Y-79333243D01*
X94086285Y-79247885D01*
X94130125Y-79193482D01*
X94196419Y-79171417D01*
X94225042Y-79173722D01*
X94239005Y-79176500D01*
X94239007Y-79176500D01*
X94376995Y-79176500D01*
X94468041Y-79158389D01*
X94512328Y-79149580D01*
X94639811Y-79096775D01*
X94754542Y-79020114D01*
X94852114Y-78922542D01*
X94928775Y-78807811D01*
X94932013Y-78799995D01*
X94941133Y-78777975D01*
X94981580Y-78680328D01*
X94988608Y-78644995D01*
X96207499Y-78644995D01*
X96234418Y-78780322D01*
X96234421Y-78780332D01*
X96287221Y-78907804D01*
X96287228Y-78907817D01*
X96363885Y-79022541D01*
X96363888Y-79022545D01*
X96461454Y-79120111D01*
X96461458Y-79120114D01*
X96576182Y-79196771D01*
X96576195Y-79196778D01*
X96699582Y-79247886D01*
X96703672Y-79249580D01*
X96703676Y-79249580D01*
X96703677Y-79249581D01*
X96839004Y-79276500D01*
X96839007Y-79276500D01*
X96976995Y-79276500D01*
X97103932Y-79251250D01*
X97112328Y-79249580D01*
X97229104Y-79201210D01*
X97239804Y-79196778D01*
X97239804Y-79196777D01*
X97239811Y-79196775D01*
X97354542Y-79120114D01*
X97452114Y-79022542D01*
X97528775Y-78907811D01*
X97581580Y-78780328D01*
X97601471Y-78680332D01*
X97608500Y-78644995D01*
X97608500Y-78507004D01*
X97581581Y-78371677D01*
X97581580Y-78371676D01*
X97581580Y-78371672D01*
X97574348Y-78354213D01*
X97528778Y-78244195D01*
X97528771Y-78244182D01*
X97452114Y-78129458D01*
X97452111Y-78129454D01*
X97354545Y-78031888D01*
X97354541Y-78031885D01*
X97239817Y-77955228D01*
X97239804Y-77955221D01*
X97112332Y-77902421D01*
X97112322Y-77902418D01*
X96976995Y-77875500D01*
X96976993Y-77875500D01*
X96839007Y-77875500D01*
X96839005Y-77875500D01*
X96703677Y-77902418D01*
X96703667Y-77902421D01*
X96576195Y-77955221D01*
X96576182Y-77955228D01*
X96461458Y-78031885D01*
X96461454Y-78031888D01*
X96363888Y-78129454D01*
X96363885Y-78129458D01*
X96287228Y-78244182D01*
X96287221Y-78244195D01*
X96234421Y-78371667D01*
X96234418Y-78371677D01*
X96207500Y-78507004D01*
X96207500Y-78507007D01*
X96207500Y-78644993D01*
X96207500Y-78644995D01*
X96207499Y-78644995D01*
X94988608Y-78644995D01*
X95008500Y-78544993D01*
X95008500Y-78407007D01*
X95008500Y-78407004D01*
X94981581Y-78271677D01*
X94981580Y-78271676D01*
X94981580Y-78271672D01*
X94979480Y-78266602D01*
X94928778Y-78144195D01*
X94928771Y-78144182D01*
X94852114Y-78029458D01*
X94852111Y-78029454D01*
X94754545Y-77931888D01*
X94754541Y-77931885D01*
X94639817Y-77855228D01*
X94639804Y-77855221D01*
X94512332Y-77802421D01*
X94512322Y-77802418D01*
X94376995Y-77775500D01*
X94376993Y-77775500D01*
X94239007Y-77775500D01*
X94239005Y-77775500D01*
X94103677Y-77802418D01*
X94103667Y-77802421D01*
X93976195Y-77855221D01*
X93976182Y-77855228D01*
X93861458Y-77931885D01*
X93861454Y-77931888D01*
X93763888Y-78029454D01*
X93763885Y-78029458D01*
X93687228Y-78144182D01*
X93687225Y-78144189D01*
X93664468Y-78199128D01*
X93620626Y-78253531D01*
X93554332Y-78275595D01*
X93525716Y-78273291D01*
X93479459Y-78264090D01*
X93479455Y-78264090D01*
X93336545Y-78264090D01*
X93336543Y-78264090D01*
X93196385Y-78291969D01*
X93196375Y-78291972D01*
X93105452Y-78329634D01*
X93035983Y-78337103D01*
X93010548Y-78329634D01*
X92919624Y-78291972D01*
X92919614Y-78291969D01*
X92779457Y-78264090D01*
X92779455Y-78264090D01*
X92636545Y-78264090D01*
X92636543Y-78264090D01*
X92496385Y-78291969D01*
X92496379Y-78291971D01*
X92364349Y-78346659D01*
X92364340Y-78346664D01*
X92245521Y-78426057D01*
X92245517Y-78426060D01*
X92144470Y-78527107D01*
X92144467Y-78527111D01*
X92065074Y-78645930D01*
X92065069Y-78645939D01*
X92010381Y-78777969D01*
X92010379Y-78777975D01*
X91982500Y-78918132D01*
X91982500Y-78918135D01*
X91982500Y-79061045D01*
X91982500Y-79061047D01*
X91982499Y-79061047D01*
X91337934Y-79061047D01*
X91337935Y-79061045D01*
X91390006Y-78935332D01*
X91390008Y-78935328D01*
X91415373Y-78807811D01*
X91416928Y-78799995D01*
X91416928Y-78662004D01*
X91390009Y-78526677D01*
X91390008Y-78526676D01*
X91390008Y-78526672D01*
X91364756Y-78465707D01*
X91337206Y-78399195D01*
X91337199Y-78399182D01*
X91260542Y-78284458D01*
X91260539Y-78284454D01*
X91162973Y-78186888D01*
X91162969Y-78186885D01*
X91048245Y-78110228D01*
X91048232Y-78110221D01*
X90920760Y-78057421D01*
X90920750Y-78057418D01*
X90785423Y-78030500D01*
X90785421Y-78030500D01*
X90647435Y-78030500D01*
X90647433Y-78030500D01*
X90512105Y-78057418D01*
X90512095Y-78057421D01*
X90384623Y-78110221D01*
X90384610Y-78110228D01*
X90269886Y-78186885D01*
X90269882Y-78186888D01*
X90172316Y-78284454D01*
X90172313Y-78284458D01*
X90095652Y-78399188D01*
X90093519Y-78403180D01*
X90044554Y-78453022D01*
X89976416Y-78468480D01*
X89910737Y-78444645D01*
X89896482Y-78432403D01*
X89818292Y-78354213D01*
X89818288Y-78354210D01*
X89687185Y-78266609D01*
X89687172Y-78266602D01*
X89541501Y-78206264D01*
X89541489Y-78206261D01*
X89386845Y-78175500D01*
X89386842Y-78175500D01*
X89229158Y-78175500D01*
X89229155Y-78175500D01*
X89074510Y-78206261D01*
X89074498Y-78206264D01*
X88928827Y-78266602D01*
X88928814Y-78266609D01*
X88797711Y-78354210D01*
X88797707Y-78354213D01*
X88686213Y-78465707D01*
X88686210Y-78465711D01*
X88598609Y-78596814D01*
X88598602Y-78596827D01*
X88538264Y-78742498D01*
X88538261Y-78742510D01*
X88507500Y-78897153D01*
X87308000Y-78897153D01*
X87308000Y-76524982D01*
X89742500Y-76524982D01*
X89742500Y-76637018D01*
X89766343Y-76726000D01*
X89771497Y-76745236D01*
X89771498Y-76745239D01*
X89782545Y-76764373D01*
X89827515Y-76842263D01*
X89906737Y-76921485D01*
X90003763Y-76977503D01*
X90111982Y-77006500D01*
X90111984Y-77006500D01*
X90224016Y-77006500D01*
X90224018Y-77006500D01*
X90332237Y-76977503D01*
X90429263Y-76921485D01*
X90508485Y-76842263D01*
X90564503Y-76745237D01*
X90593500Y-76637018D01*
X90593500Y-76524982D01*
X95522500Y-76524982D01*
X95522500Y-76637018D01*
X95546343Y-76726000D01*
X95551497Y-76745236D01*
X95551498Y-76745239D01*
X95562545Y-76764373D01*
X95607515Y-76842263D01*
X95686737Y-76921485D01*
X95783763Y-76977503D01*
X95891982Y-77006500D01*
X95891984Y-77006500D01*
X96004016Y-77006500D01*
X96004018Y-77006500D01*
X96112237Y-76977503D01*
X96209263Y-76921485D01*
X96288485Y-76842263D01*
X96344503Y-76745237D01*
X96370703Y-76647457D01*
X105082499Y-76647457D01*
X105110381Y-76787626D01*
X105111106Y-76790014D01*
X105111117Y-76791324D01*
X105111569Y-76793594D01*
X105111138Y-76793679D01*
X105111725Y-76859881D01*
X105111106Y-76861986D01*
X105110381Y-76864373D01*
X105082500Y-77004542D01*
X105082500Y-77004545D01*
X105082500Y-77147455D01*
X105082500Y-77147457D01*
X105082499Y-77147457D01*
X105110381Y-77287626D01*
X105111106Y-77290014D01*
X105111117Y-77291324D01*
X105111569Y-77293594D01*
X105111138Y-77293679D01*
X105111725Y-77359881D01*
X105111106Y-77361986D01*
X105110381Y-77364373D01*
X105082500Y-77504542D01*
X105082500Y-77504545D01*
X105082500Y-77647455D01*
X105082500Y-77647457D01*
X105082499Y-77647457D01*
X105110379Y-77787614D01*
X105110381Y-77787620D01*
X105165069Y-77919650D01*
X105165074Y-77919659D01*
X105244467Y-78038478D01*
X105244470Y-78038482D01*
X105345517Y-78139529D01*
X105345521Y-78139532D01*
X105464340Y-78218925D01*
X105464346Y-78218928D01*
X105464347Y-78218929D01*
X105596380Y-78273619D01*
X105596384Y-78273619D01*
X105596385Y-78273620D01*
X105736542Y-78301500D01*
X105736545Y-78301500D01*
X105879457Y-78301500D01*
X105973751Y-78282742D01*
X106019620Y-78273619D01*
X106151653Y-78218929D01*
X106270479Y-78139532D01*
X106371532Y-78038479D01*
X106450929Y-77919653D01*
X106505619Y-77787620D01*
X106533500Y-77647455D01*
X106533500Y-77504545D01*
X106533500Y-77504542D01*
X106505619Y-77364379D01*
X106504897Y-77361999D01*
X106504885Y-77360689D01*
X106504431Y-77358406D01*
X106504864Y-77358319D01*
X106504271Y-77292133D01*
X106504897Y-77290001D01*
X106505619Y-77287620D01*
X106533500Y-77147457D01*
X106533500Y-77004542D01*
X106505619Y-76864379D01*
X106504897Y-76861999D01*
X106504885Y-76860689D01*
X106504431Y-76858406D01*
X106504864Y-76858319D01*
X106504271Y-76792133D01*
X106504897Y-76790001D01*
X106505619Y-76787620D01*
X106533500Y-76647457D01*
X106533500Y-76547457D01*
X109082499Y-76547457D01*
X109110381Y-76687626D01*
X109111106Y-76690014D01*
X109111117Y-76691324D01*
X109111569Y-76693594D01*
X109111138Y-76693679D01*
X109111725Y-76759881D01*
X109111106Y-76761986D01*
X109110381Y-76764373D01*
X109082500Y-76904542D01*
X109082500Y-76904545D01*
X109082500Y-77047455D01*
X109082500Y-77047457D01*
X109082499Y-77047457D01*
X109110381Y-77187626D01*
X109111106Y-77190014D01*
X109111117Y-77191324D01*
X109111569Y-77193594D01*
X109111138Y-77193679D01*
X109111725Y-77259881D01*
X109111106Y-77261986D01*
X109110381Y-77264373D01*
X109082500Y-77404542D01*
X109082500Y-77404545D01*
X109082500Y-77547455D01*
X109082500Y-77547457D01*
X109082499Y-77547457D01*
X109110379Y-77687614D01*
X109110381Y-77687620D01*
X109165069Y-77819650D01*
X109165074Y-77819659D01*
X109244467Y-77938478D01*
X109244470Y-77938482D01*
X109345517Y-78039529D01*
X109345521Y-78039532D01*
X109464340Y-78118925D01*
X109464349Y-78118930D01*
X109489766Y-78129458D01*
X109596380Y-78173619D01*
X109596384Y-78173619D01*
X109596385Y-78173620D01*
X109736542Y-78201500D01*
X109736545Y-78201500D01*
X109879457Y-78201500D01*
X109973751Y-78182742D01*
X110019620Y-78173619D01*
X110151653Y-78118929D01*
X110270479Y-78039532D01*
X110371532Y-77938479D01*
X110450929Y-77819653D01*
X110505619Y-77687620D01*
X110533500Y-77547455D01*
X110533500Y-77404545D01*
X110533500Y-77404542D01*
X110505619Y-77264379D01*
X110504897Y-77261999D01*
X110504885Y-77260689D01*
X110504431Y-77258406D01*
X110504864Y-77258319D01*
X110504271Y-77192133D01*
X110504897Y-77190001D01*
X110505619Y-77187620D01*
X110533500Y-77047457D01*
X110533500Y-76904542D01*
X110505619Y-76764379D01*
X110504897Y-76761999D01*
X110504885Y-76760689D01*
X110504431Y-76758406D01*
X110504864Y-76758319D01*
X110504271Y-76692133D01*
X110504897Y-76690001D01*
X110505619Y-76687620D01*
X110533500Y-76547457D01*
X110533500Y-76404542D01*
X110505620Y-76264385D01*
X110505619Y-76264384D01*
X110505619Y-76264380D01*
X110450929Y-76132347D01*
X110450928Y-76132346D01*
X110450925Y-76132340D01*
X110371532Y-76013521D01*
X110371529Y-76013517D01*
X110270482Y-75912470D01*
X110270478Y-75912467D01*
X110151659Y-75833074D01*
X110151650Y-75833069D01*
X110019620Y-75778381D01*
X110019614Y-75778379D01*
X109879457Y-75750500D01*
X109879455Y-75750500D01*
X109736545Y-75750500D01*
X109736543Y-75750500D01*
X109596385Y-75778379D01*
X109596379Y-75778381D01*
X109464349Y-75833069D01*
X109464340Y-75833074D01*
X109345521Y-75912467D01*
X109345517Y-75912470D01*
X109244470Y-76013517D01*
X109244467Y-76013521D01*
X109165074Y-76132340D01*
X109165069Y-76132349D01*
X109110381Y-76264379D01*
X109110379Y-76264385D01*
X109082500Y-76404542D01*
X109082500Y-76404545D01*
X109082500Y-76547455D01*
X109082500Y-76547457D01*
X109082499Y-76547457D01*
X106533500Y-76547457D01*
X106533500Y-76504542D01*
X106517209Y-76422645D01*
X106517209Y-76422644D01*
X106505620Y-76364387D01*
X106505620Y-76364385D01*
X106505619Y-76364380D01*
X106454312Y-76240515D01*
X106450930Y-76232349D01*
X106450925Y-76232340D01*
X106371532Y-76113521D01*
X106371529Y-76113517D01*
X106270482Y-76012470D01*
X106270478Y-76012467D01*
X106151659Y-75933074D01*
X106151650Y-75933069D01*
X106019620Y-75878381D01*
X106019614Y-75878379D01*
X105879457Y-75850500D01*
X105879455Y-75850500D01*
X105736545Y-75850500D01*
X105736543Y-75850500D01*
X105596385Y-75878379D01*
X105596379Y-75878381D01*
X105464349Y-75933069D01*
X105464340Y-75933074D01*
X105345521Y-76012467D01*
X105345517Y-76012470D01*
X105244470Y-76113517D01*
X105244467Y-76113521D01*
X105165074Y-76232340D01*
X105165069Y-76232349D01*
X105110381Y-76364379D01*
X105110379Y-76364385D01*
X105082500Y-76504542D01*
X105082500Y-76504545D01*
X105082500Y-76647455D01*
X105082500Y-76647457D01*
X105082499Y-76647457D01*
X96370703Y-76647457D01*
X96373500Y-76637018D01*
X96373500Y-76524982D01*
X96344503Y-76416763D01*
X96288485Y-76319737D01*
X96209263Y-76240515D01*
X96112237Y-76184497D01*
X96004018Y-76155500D01*
X95891982Y-76155500D01*
X95783763Y-76184497D01*
X95783760Y-76184498D01*
X95686740Y-76240513D01*
X95686734Y-76240517D01*
X95607517Y-76319734D01*
X95607513Y-76319740D01*
X95551498Y-76416760D01*
X95551497Y-76416763D01*
X95522500Y-76524982D01*
X90593500Y-76524982D01*
X90564503Y-76416763D01*
X90508485Y-76319737D01*
X90429263Y-76240515D01*
X90332237Y-76184497D01*
X90224018Y-76155500D01*
X90111982Y-76155500D01*
X90003763Y-76184497D01*
X90003760Y-76184498D01*
X89906740Y-76240513D01*
X89906734Y-76240517D01*
X89827517Y-76319734D01*
X89827513Y-76319740D01*
X89771498Y-76416760D01*
X89771497Y-76416763D01*
X89742500Y-76524982D01*
X87308000Y-76524982D01*
X87308000Y-76317079D01*
X87327685Y-76250040D01*
X87380489Y-76204285D01*
X87449647Y-76194341D01*
X87456168Y-76195457D01*
X87486545Y-76201500D01*
X87629457Y-76201500D01*
X87723751Y-76182742D01*
X87769620Y-76173619D01*
X87901653Y-76118929D01*
X88020479Y-76039532D01*
X88121532Y-75938479D01*
X88200929Y-75819653D01*
X88255619Y-75687620D01*
X88283500Y-75547455D01*
X88283500Y-75404545D01*
X88283500Y-75404542D01*
X88255620Y-75264385D01*
X88255619Y-75264384D01*
X88255619Y-75264380D01*
X88200929Y-75132347D01*
X88200928Y-75132346D01*
X88200925Y-75132340D01*
X88121532Y-75013521D01*
X88121529Y-75013517D01*
X88020482Y-74912470D01*
X88020478Y-74912467D01*
X87901659Y-74833074D01*
X87901650Y-74833069D01*
X87769620Y-74778381D01*
X87769614Y-74778379D01*
X87629457Y-74750500D01*
X87629455Y-74750500D01*
X87486545Y-74750500D01*
X87486540Y-74750500D01*
X87456191Y-74756537D01*
X87386599Y-74750310D01*
X87331422Y-74707447D01*
X87308178Y-74641557D01*
X87308000Y-74634920D01*
X87308000Y-74044995D01*
X90857499Y-74044995D01*
X90884418Y-74180322D01*
X90884421Y-74180332D01*
X90937221Y-74307804D01*
X90937228Y-74307817D01*
X91013885Y-74422541D01*
X91013888Y-74422545D01*
X91111454Y-74520111D01*
X91111458Y-74520114D01*
X91226182Y-74596771D01*
X91226195Y-74596778D01*
X91353667Y-74649578D01*
X91353672Y-74649580D01*
X91353676Y-74649580D01*
X91353677Y-74649581D01*
X91489004Y-74676500D01*
X91489007Y-74676500D01*
X91626995Y-74676500D01*
X91718041Y-74658389D01*
X91762328Y-74649580D01*
X91889811Y-74596775D01*
X92004542Y-74520114D01*
X92015108Y-74509548D01*
X92095319Y-74429338D01*
X92156642Y-74395853D01*
X92226334Y-74400837D01*
X92270681Y-74429338D01*
X92361454Y-74520111D01*
X92361458Y-74520114D01*
X92476182Y-74596771D01*
X92476195Y-74596778D01*
X92603667Y-74649578D01*
X92603672Y-74649580D01*
X92603676Y-74649580D01*
X92603677Y-74649581D01*
X92739004Y-74676500D01*
X92739007Y-74676500D01*
X92876995Y-74676500D01*
X92968041Y-74658389D01*
X93012328Y-74649580D01*
X93139811Y-74596775D01*
X93239109Y-74530425D01*
X93305786Y-74509548D01*
X93373166Y-74528032D01*
X93376889Y-74530425D01*
X93476189Y-74596775D01*
X93476191Y-74596776D01*
X93476195Y-74596778D01*
X93603667Y-74649578D01*
X93603672Y-74649580D01*
X93603676Y-74649580D01*
X93603677Y-74649581D01*
X93739004Y-74676500D01*
X93739007Y-74676500D01*
X93876995Y-74676500D01*
X93968041Y-74658389D01*
X94012328Y-74649580D01*
X94139811Y-74596775D01*
X94254542Y-74520114D01*
X94265108Y-74509548D01*
X94345319Y-74429338D01*
X94406642Y-74395853D01*
X94476334Y-74400837D01*
X94520681Y-74429338D01*
X94611454Y-74520111D01*
X94611458Y-74520114D01*
X94726182Y-74596771D01*
X94726195Y-74596778D01*
X94853667Y-74649578D01*
X94853672Y-74649580D01*
X94853676Y-74649580D01*
X94853677Y-74649581D01*
X94989004Y-74676500D01*
X94989007Y-74676500D01*
X95126995Y-74676500D01*
X95218041Y-74658389D01*
X95262328Y-74649580D01*
X95389811Y-74596775D01*
X95504542Y-74520114D01*
X95602114Y-74422542D01*
X95678775Y-74307811D01*
X95731580Y-74180328D01*
X95758500Y-74044993D01*
X95758500Y-73907007D01*
X95758500Y-73907004D01*
X95731581Y-73771677D01*
X95731580Y-73771676D01*
X95731580Y-73771672D01*
X95683000Y-73654389D01*
X95678778Y-73644195D01*
X95678771Y-73644182D01*
X95602114Y-73529458D01*
X95602111Y-73529454D01*
X95504545Y-73431888D01*
X95504541Y-73431885D01*
X95389817Y-73355228D01*
X95389804Y-73355221D01*
X95262332Y-73302421D01*
X95262322Y-73302418D01*
X95126995Y-73275500D01*
X95126993Y-73275500D01*
X94989007Y-73275500D01*
X94989005Y-73275500D01*
X94853677Y-73302418D01*
X94853667Y-73302421D01*
X94726195Y-73355221D01*
X94726182Y-73355228D01*
X94611458Y-73431885D01*
X94611454Y-73431888D01*
X94520681Y-73522662D01*
X94459358Y-73556147D01*
X94389666Y-73551163D01*
X94345319Y-73522662D01*
X94254545Y-73431888D01*
X94254541Y-73431885D01*
X94139817Y-73355228D01*
X94139804Y-73355221D01*
X94012332Y-73302421D01*
X94012322Y-73302418D01*
X93876995Y-73275500D01*
X93876993Y-73275500D01*
X93739007Y-73275500D01*
X93739005Y-73275500D01*
X93603677Y-73302418D01*
X93603667Y-73302421D01*
X93476195Y-73355221D01*
X93476182Y-73355228D01*
X93376891Y-73421573D01*
X93310213Y-73442451D01*
X93242833Y-73423966D01*
X93239109Y-73421573D01*
X93139817Y-73355228D01*
X93139804Y-73355221D01*
X93012332Y-73302421D01*
X93012322Y-73302418D01*
X92876995Y-73275500D01*
X92876993Y-73275500D01*
X92739007Y-73275500D01*
X92739005Y-73275500D01*
X92603677Y-73302418D01*
X92603667Y-73302421D01*
X92476195Y-73355221D01*
X92476182Y-73355228D01*
X92361458Y-73431885D01*
X92361454Y-73431888D01*
X92270681Y-73522662D01*
X92209358Y-73556147D01*
X92139666Y-73551163D01*
X92095319Y-73522662D01*
X92004545Y-73431888D01*
X92004541Y-73431885D01*
X91889817Y-73355228D01*
X91889804Y-73355221D01*
X91762332Y-73302421D01*
X91762322Y-73302418D01*
X91626995Y-73275500D01*
X91626993Y-73275500D01*
X91489007Y-73275500D01*
X91489005Y-73275500D01*
X91353677Y-73302418D01*
X91353667Y-73302421D01*
X91226195Y-73355221D01*
X91226182Y-73355228D01*
X91111458Y-73431885D01*
X91111454Y-73431888D01*
X91013888Y-73529454D01*
X91013885Y-73529458D01*
X90937228Y-73644182D01*
X90937221Y-73644195D01*
X90884421Y-73771667D01*
X90884418Y-73771677D01*
X90857500Y-73907004D01*
X90857500Y-73907007D01*
X90857500Y-74044993D01*
X90857500Y-74044995D01*
X90857499Y-74044995D01*
X87308000Y-74044995D01*
X87308000Y-72297457D01*
X106832499Y-72297457D01*
X106860379Y-72437614D01*
X106860381Y-72437620D01*
X106915069Y-72569650D01*
X106915074Y-72569659D01*
X106994467Y-72688478D01*
X106994470Y-72688482D01*
X107095517Y-72789529D01*
X107095521Y-72789532D01*
X107214340Y-72868925D01*
X107214346Y-72868928D01*
X107214347Y-72868929D01*
X107346380Y-72923619D01*
X107346384Y-72923619D01*
X107346385Y-72923620D01*
X107486542Y-72951500D01*
X107486545Y-72951500D01*
X107629457Y-72951500D01*
X107723751Y-72932742D01*
X107769620Y-72923619D01*
X107901653Y-72868929D01*
X108020479Y-72789532D01*
X108121532Y-72688479D01*
X108200929Y-72569653D01*
X108255619Y-72437620D01*
X108283500Y-72297455D01*
X108283500Y-72154545D01*
X108283500Y-72154542D01*
X108255620Y-72014385D01*
X108255619Y-72014384D01*
X108255619Y-72014380D01*
X108200929Y-71882347D01*
X108200928Y-71882346D01*
X108200925Y-71882340D01*
X108121532Y-71763521D01*
X108121529Y-71763517D01*
X108020482Y-71662470D01*
X108020478Y-71662467D01*
X107901659Y-71583074D01*
X107901650Y-71583069D01*
X107769620Y-71528381D01*
X107769614Y-71528379D01*
X107629457Y-71500500D01*
X107629455Y-71500500D01*
X107486545Y-71500500D01*
X107486543Y-71500500D01*
X107346385Y-71528379D01*
X107346379Y-71528381D01*
X107214349Y-71583069D01*
X107214340Y-71583074D01*
X107095521Y-71662467D01*
X107095517Y-71662470D01*
X106994470Y-71763517D01*
X106994467Y-71763521D01*
X106915074Y-71882340D01*
X106915069Y-71882349D01*
X106860381Y-72014379D01*
X106860379Y-72014385D01*
X106832500Y-72154542D01*
X106832500Y-72154545D01*
X106832500Y-72297455D01*
X106832500Y-72297457D01*
X106832499Y-72297457D01*
X87308000Y-72297457D01*
X87308000Y-71350000D01*
X87327685Y-71282961D01*
X87380489Y-71237206D01*
X87432000Y-71226000D01*
X112684000Y-71226000D01*
X112751039Y-71245685D01*
G37*
%TD.AperFunction*%
%TD*%
%TA.AperFunction,Conductor*%
%TO.N,GND*%
G36*
X91060778Y-95751185D02*
G01*
X91106533Y-95803989D01*
X91116477Y-95873147D01*
X91087452Y-95936703D01*
X91041191Y-95970061D01*
X90928827Y-96016602D01*
X90928814Y-96016609D01*
X90797711Y-96104210D01*
X90797707Y-96104213D01*
X90686213Y-96215707D01*
X90686210Y-96215711D01*
X90598609Y-96346814D01*
X90598602Y-96346827D01*
X90538264Y-96492498D01*
X90538261Y-96492510D01*
X90507500Y-96647153D01*
X90507500Y-96804846D01*
X90538261Y-96959489D01*
X90538264Y-96959501D01*
X90598602Y-97105172D01*
X90598609Y-97105185D01*
X90686210Y-97236288D01*
X90686213Y-97236292D01*
X90797707Y-97347786D01*
X90797711Y-97347789D01*
X90928814Y-97435390D01*
X90928827Y-97435397D01*
X91074498Y-97495735D01*
X91074503Y-97495737D01*
X91229153Y-97526499D01*
X91229156Y-97526500D01*
X91229158Y-97526500D01*
X91386844Y-97526500D01*
X91386845Y-97526499D01*
X91541497Y-97495737D01*
X91687179Y-97435394D01*
X91818289Y-97347789D01*
X91929789Y-97236289D01*
X92017394Y-97105179D01*
X92077737Y-96959497D01*
X92108500Y-96804842D01*
X92108500Y-96647158D01*
X92108500Y-96647155D01*
X92108499Y-96647153D01*
X92077738Y-96492510D01*
X92077737Y-96492503D01*
X92077735Y-96492498D01*
X92017397Y-96346827D01*
X92017390Y-96346814D01*
X91929789Y-96215711D01*
X91929786Y-96215707D01*
X91818292Y-96104213D01*
X91818288Y-96104210D01*
X91687185Y-96016609D01*
X91687172Y-96016602D01*
X91574809Y-95970061D01*
X91520405Y-95926221D01*
X91498340Y-95859927D01*
X91515619Y-95792227D01*
X91566756Y-95744616D01*
X91622261Y-95731500D01*
X112684000Y-95731500D01*
X112751039Y-95751185D01*
X112796794Y-95803989D01*
X112808000Y-95855500D01*
X112808000Y-126852000D01*
X112788315Y-126919039D01*
X112735511Y-126964794D01*
X112684000Y-126976000D01*
X87432000Y-126976000D01*
X87364961Y-126956315D01*
X87319206Y-126903511D01*
X87308000Y-126852000D01*
X87308000Y-124397153D01*
X98757500Y-124397153D01*
X98757500Y-124554846D01*
X98788261Y-124709489D01*
X98788264Y-124709501D01*
X98848602Y-124855172D01*
X98848609Y-124855185D01*
X98936210Y-124986288D01*
X98936213Y-124986292D01*
X99047707Y-125097786D01*
X99047711Y-125097789D01*
X99178814Y-125185390D01*
X99178827Y-125185397D01*
X99324498Y-125245735D01*
X99324503Y-125245737D01*
X99479153Y-125276499D01*
X99479156Y-125276500D01*
X99479158Y-125276500D01*
X99636844Y-125276500D01*
X99636845Y-125276499D01*
X99791497Y-125245737D01*
X99937179Y-125185394D01*
X100068289Y-125097789D01*
X100179789Y-124986289D01*
X100267394Y-124855179D01*
X100327737Y-124709497D01*
X100358500Y-124554842D01*
X100358500Y-124397158D01*
X100358500Y-124397155D01*
X100358499Y-124397153D01*
X102257500Y-124397153D01*
X102257500Y-124554846D01*
X102288261Y-124709489D01*
X102288264Y-124709501D01*
X102348602Y-124855172D01*
X102348609Y-124855185D01*
X102436210Y-124986288D01*
X102436213Y-124986292D01*
X102547707Y-125097786D01*
X102547711Y-125097789D01*
X102678814Y-125185390D01*
X102678827Y-125185397D01*
X102824498Y-125245735D01*
X102824503Y-125245737D01*
X102979153Y-125276499D01*
X102979156Y-125276500D01*
X102979158Y-125276500D01*
X103136844Y-125276500D01*
X103136845Y-125276499D01*
X103291497Y-125245737D01*
X103437179Y-125185394D01*
X103568289Y-125097789D01*
X103679789Y-124986289D01*
X103767394Y-124855179D01*
X103827737Y-124709497D01*
X103858500Y-124554842D01*
X103858500Y-124397158D01*
X103858500Y-124397155D01*
X103858499Y-124397153D01*
X105757500Y-124397153D01*
X105757500Y-124554846D01*
X105788261Y-124709489D01*
X105788264Y-124709501D01*
X105848602Y-124855172D01*
X105848609Y-124855185D01*
X105936210Y-124986288D01*
X105936213Y-124986292D01*
X106047707Y-125097786D01*
X106047711Y-125097789D01*
X106178814Y-125185390D01*
X106178827Y-125185397D01*
X106324498Y-125245735D01*
X106324503Y-125245737D01*
X106479153Y-125276499D01*
X106479156Y-125276500D01*
X106479158Y-125276500D01*
X106636844Y-125276500D01*
X106636845Y-125276499D01*
X106791497Y-125245737D01*
X106937179Y-125185394D01*
X107068289Y-125097789D01*
X107179789Y-124986289D01*
X107267394Y-124855179D01*
X107327737Y-124709497D01*
X107358500Y-124554842D01*
X107358500Y-124397158D01*
X107358500Y-124397155D01*
X107358499Y-124397153D01*
X107327738Y-124242510D01*
X107327737Y-124242503D01*
X107327735Y-124242498D01*
X107267397Y-124096827D01*
X107267390Y-124096814D01*
X107179789Y-123965711D01*
X107179786Y-123965707D01*
X107068292Y-123854213D01*
X107068288Y-123854210D01*
X106937185Y-123766609D01*
X106937172Y-123766602D01*
X106791501Y-123706264D01*
X106791489Y-123706261D01*
X106636845Y-123675500D01*
X106636842Y-123675500D01*
X106479158Y-123675500D01*
X106479155Y-123675500D01*
X106324510Y-123706261D01*
X106324498Y-123706264D01*
X106178827Y-123766602D01*
X106178814Y-123766609D01*
X106047711Y-123854210D01*
X106047707Y-123854213D01*
X105936213Y-123965707D01*
X105936210Y-123965711D01*
X105848609Y-124096814D01*
X105848602Y-124096827D01*
X105788264Y-124242498D01*
X105788261Y-124242510D01*
X105757500Y-124397153D01*
X103858499Y-124397153D01*
X103827738Y-124242510D01*
X103827737Y-124242503D01*
X103827735Y-124242498D01*
X103767397Y-124096827D01*
X103767390Y-124096814D01*
X103679789Y-123965711D01*
X103679786Y-123965707D01*
X103568292Y-123854213D01*
X103568288Y-123854210D01*
X103437185Y-123766609D01*
X103437172Y-123766602D01*
X103291501Y-123706264D01*
X103291489Y-123706261D01*
X103136845Y-123675500D01*
X103136842Y-123675500D01*
X102979158Y-123675500D01*
X102979155Y-123675500D01*
X102824510Y-123706261D01*
X102824498Y-123706264D01*
X102678827Y-123766602D01*
X102678814Y-123766609D01*
X102547711Y-123854210D01*
X102547707Y-123854213D01*
X102436213Y-123965707D01*
X102436210Y-123965711D01*
X102348609Y-124096814D01*
X102348602Y-124096827D01*
X102288264Y-124242498D01*
X102288261Y-124242510D01*
X102257500Y-124397153D01*
X100358499Y-124397153D01*
X100327738Y-124242510D01*
X100327737Y-124242503D01*
X100327735Y-124242498D01*
X100267397Y-124096827D01*
X100267390Y-124096814D01*
X100179789Y-123965711D01*
X100179786Y-123965707D01*
X100068292Y-123854213D01*
X100068288Y-123854210D01*
X99937185Y-123766609D01*
X99937172Y-123766602D01*
X99791501Y-123706264D01*
X99791489Y-123706261D01*
X99636845Y-123675500D01*
X99636842Y-123675500D01*
X99479158Y-123675500D01*
X99479155Y-123675500D01*
X99324510Y-123706261D01*
X99324498Y-123706264D01*
X99178827Y-123766602D01*
X99178814Y-123766609D01*
X99047711Y-123854210D01*
X99047707Y-123854213D01*
X98936213Y-123965707D01*
X98936210Y-123965711D01*
X98848609Y-124096814D01*
X98848602Y-124096827D01*
X98788264Y-124242498D01*
X98788261Y-124242510D01*
X98757500Y-124397153D01*
X87308000Y-124397153D01*
X87308000Y-99147153D01*
X90507500Y-99147153D01*
X90507500Y-99304846D01*
X90538261Y-99459489D01*
X90538264Y-99459501D01*
X90598602Y-99605172D01*
X90598609Y-99605185D01*
X90686210Y-99736288D01*
X90686213Y-99736292D01*
X90797707Y-99847786D01*
X90797711Y-99847789D01*
X90928814Y-99935390D01*
X90928827Y-99935397D01*
X91074498Y-99995735D01*
X91074503Y-99995737D01*
X91229153Y-100026499D01*
X91229156Y-100026500D01*
X91229158Y-100026500D01*
X91386844Y-100026500D01*
X91386845Y-100026499D01*
X91541497Y-99995737D01*
X91687179Y-99935394D01*
X91818289Y-99847789D01*
X91929789Y-99736289D01*
X92017394Y-99605179D01*
X92077737Y-99459497D01*
X92108500Y-99304842D01*
X92108500Y-99147158D01*
X92108500Y-99147155D01*
X92108499Y-99147153D01*
X92077738Y-98992510D01*
X92077737Y-98992503D01*
X92077735Y-98992498D01*
X92017397Y-98846827D01*
X92017390Y-98846814D01*
X91929789Y-98715711D01*
X91929786Y-98715707D01*
X91818292Y-98604213D01*
X91818288Y-98604210D01*
X91687185Y-98516609D01*
X91687172Y-98516602D01*
X91541501Y-98456264D01*
X91541489Y-98456261D01*
X91386845Y-98425500D01*
X91386842Y-98425500D01*
X91229158Y-98425500D01*
X91229155Y-98425500D01*
X91074510Y-98456261D01*
X91074498Y-98456264D01*
X90928827Y-98516602D01*
X90928814Y-98516609D01*
X90797711Y-98604210D01*
X90797707Y-98604213D01*
X90686213Y-98715707D01*
X90686210Y-98715711D01*
X90598609Y-98846814D01*
X90598602Y-98846827D01*
X90538264Y-98992498D01*
X90538261Y-98992510D01*
X90507500Y-99147153D01*
X87308000Y-99147153D01*
X87308000Y-95855500D01*
X87327685Y-95788461D01*
X87380489Y-95742706D01*
X87432000Y-95731500D01*
X90993739Y-95731500D01*
X91060778Y-95751185D01*
G37*
%TD.AperFunction*%
%TD*%
M02*
