%TF.GenerationSoftware,KiCad,Pcbnew,9.0.2*%
%TF.CreationDate,2025-06-18T22:14:32+09:00*%
%TF.ProjectId,LoRa_TM,4c6f5261-5f54-44d2-9e6b-696361645f70,rev?*%
%TF.SameCoordinates,Original*%
%TF.FileFunction,Legend,Bot*%
%TF.FilePolarity,Positive*%
%FSLAX46Y46*%
G04 Gerber Fmt 4.6, Leading zero omitted, Abs format (unit mm)*
G04 Created by KiCad (PCBNEW 9.0.2) date 2025-06-18 22:14:32*
%MOMM*%
%LPD*%
G01*
G04 APERTURE LIST*
%ADD10C,0.100000*%
%ADD11C,0.200000*%
%ADD12C,0.150000*%
%ADD13C,0.120000*%
%ADD14C,0.152400*%
%ADD15C,0.000000*%
G04 APERTURE END LIST*
D10*
X109477847Y-87522931D02*
X109477847Y-87256265D01*
X109896895Y-87256265D02*
X109096895Y-87256265D01*
X109096895Y-87256265D02*
X109096895Y-87637217D01*
X109896895Y-88056264D02*
X109858800Y-87980074D01*
X109858800Y-87980074D02*
X109820704Y-87941979D01*
X109820704Y-87941979D02*
X109744514Y-87903883D01*
X109744514Y-87903883D02*
X109515942Y-87903883D01*
X109515942Y-87903883D02*
X109439752Y-87941979D01*
X109439752Y-87941979D02*
X109401657Y-87980074D01*
X109401657Y-87980074D02*
X109363561Y-88056264D01*
X109363561Y-88056264D02*
X109363561Y-88170550D01*
X109363561Y-88170550D02*
X109401657Y-88246741D01*
X109401657Y-88246741D02*
X109439752Y-88284836D01*
X109439752Y-88284836D02*
X109515942Y-88322931D01*
X109515942Y-88322931D02*
X109744514Y-88322931D01*
X109744514Y-88322931D02*
X109820704Y-88284836D01*
X109820704Y-88284836D02*
X109858800Y-88246741D01*
X109858800Y-88246741D02*
X109896895Y-88170550D01*
X109896895Y-88170550D02*
X109896895Y-88056264D01*
X109896895Y-88665789D02*
X109363561Y-88665789D01*
X109515942Y-88665789D02*
X109439752Y-88703884D01*
X109439752Y-88703884D02*
X109401657Y-88741979D01*
X109401657Y-88741979D02*
X109363561Y-88818170D01*
X109363561Y-88818170D02*
X109363561Y-88894360D01*
X109477847Y-89770551D02*
X109477847Y-90037217D01*
X109896895Y-90151503D02*
X109896895Y-89770551D01*
X109896895Y-89770551D02*
X109096895Y-89770551D01*
X109096895Y-89770551D02*
X109096895Y-90151503D01*
X109173085Y-90456265D02*
X109134990Y-90494361D01*
X109134990Y-90494361D02*
X109096895Y-90570551D01*
X109096895Y-90570551D02*
X109096895Y-90761027D01*
X109096895Y-90761027D02*
X109134990Y-90837218D01*
X109134990Y-90837218D02*
X109173085Y-90875313D01*
X109173085Y-90875313D02*
X109249276Y-90913408D01*
X109249276Y-90913408D02*
X109325466Y-90913408D01*
X109325466Y-90913408D02*
X109439752Y-90875313D01*
X109439752Y-90875313D02*
X109896895Y-90418170D01*
X109896895Y-90418170D02*
X109896895Y-90913408D01*
X109173085Y-91218170D02*
X109134990Y-91256266D01*
X109134990Y-91256266D02*
X109096895Y-91332456D01*
X109096895Y-91332456D02*
X109096895Y-91522932D01*
X109096895Y-91522932D02*
X109134990Y-91599123D01*
X109134990Y-91599123D02*
X109173085Y-91637218D01*
X109173085Y-91637218D02*
X109249276Y-91675313D01*
X109249276Y-91675313D02*
X109325466Y-91675313D01*
X109325466Y-91675313D02*
X109439752Y-91637218D01*
X109439752Y-91637218D02*
X109896895Y-91180075D01*
X109896895Y-91180075D02*
X109896895Y-91675313D01*
D11*
X89369673Y-105343733D02*
X90131578Y-105343733D01*
X91655387Y-104629447D02*
X91417292Y-104629447D01*
X91417292Y-104629447D02*
X91417292Y-106058019D01*
X91417292Y-106058019D02*
X91655387Y-106058019D01*
X92703007Y-104629447D02*
X92941102Y-104629447D01*
X92941102Y-104629447D02*
X92941102Y-106058019D01*
X92941102Y-106058019D02*
X92703007Y-106058019D01*
X94655388Y-105629447D02*
X94655388Y-104962780D01*
X94417293Y-106010400D02*
X94179198Y-105296114D01*
X94179198Y-105296114D02*
X94798245Y-105296114D01*
X95083960Y-105962780D02*
X95703007Y-105962780D01*
X95703007Y-105962780D02*
X95369674Y-105581828D01*
X95369674Y-105581828D02*
X95512531Y-105581828D01*
X95512531Y-105581828D02*
X95607769Y-105534209D01*
X95607769Y-105534209D02*
X95655388Y-105486590D01*
X95655388Y-105486590D02*
X95703007Y-105391352D01*
X95703007Y-105391352D02*
X95703007Y-105153257D01*
X95703007Y-105153257D02*
X95655388Y-105058019D01*
X95655388Y-105058019D02*
X95607769Y-105010400D01*
X95607769Y-105010400D02*
X95512531Y-104962780D01*
X95512531Y-104962780D02*
X95226817Y-104962780D01*
X95226817Y-104962780D02*
X95131579Y-105010400D01*
X95131579Y-105010400D02*
X95083960Y-105058019D01*
X96036341Y-105962780D02*
X96655388Y-105962780D01*
X96655388Y-105962780D02*
X96322055Y-105581828D01*
X96322055Y-105581828D02*
X96464912Y-105581828D01*
X96464912Y-105581828D02*
X96560150Y-105534209D01*
X96560150Y-105534209D02*
X96607769Y-105486590D01*
X96607769Y-105486590D02*
X96655388Y-105391352D01*
X96655388Y-105391352D02*
X96655388Y-105153257D01*
X96655388Y-105153257D02*
X96607769Y-105058019D01*
X96607769Y-105058019D02*
X96560150Y-105010400D01*
X96560150Y-105010400D02*
X96464912Y-104962780D01*
X96464912Y-104962780D02*
X96179198Y-104962780D01*
X96179198Y-104962780D02*
X96083960Y-105010400D01*
X96083960Y-105010400D02*
X96036341Y-105058019D01*
X97845865Y-104962780D02*
X97845865Y-105962780D01*
X97845865Y-105962780D02*
X98179198Y-105248495D01*
X98179198Y-105248495D02*
X98512531Y-105962780D01*
X98512531Y-105962780D02*
X98512531Y-104962780D01*
X98988722Y-104962780D02*
X98988722Y-105962780D01*
X98988722Y-105486590D02*
X99560150Y-105486590D01*
X99560150Y-104962780D02*
X99560150Y-105962780D01*
X99941103Y-105629447D02*
X100464912Y-105629447D01*
X100464912Y-105629447D02*
X99941103Y-104962780D01*
X99941103Y-104962780D02*
X100464912Y-104962780D01*
X89369673Y-103733789D02*
X90131578Y-103733789D01*
X91655387Y-103019503D02*
X91417292Y-103019503D01*
X91417292Y-103019503D02*
X91417292Y-104448075D01*
X91417292Y-104448075D02*
X91655387Y-104448075D01*
X92703007Y-103019503D02*
X92941102Y-103019503D01*
X92941102Y-103019503D02*
X92941102Y-104448075D01*
X92941102Y-104448075D02*
X92703007Y-104448075D01*
X94274436Y-103352836D02*
X94464912Y-103352836D01*
X94464912Y-103352836D02*
X94560150Y-103400456D01*
X94560150Y-103400456D02*
X94607769Y-103448075D01*
X94607769Y-103448075D02*
X94703007Y-103590932D01*
X94703007Y-103590932D02*
X94750626Y-103781408D01*
X94750626Y-103781408D02*
X94750626Y-104162360D01*
X94750626Y-104162360D02*
X94703007Y-104257598D01*
X94703007Y-104257598D02*
X94655388Y-104305217D01*
X94655388Y-104305217D02*
X94560150Y-104352836D01*
X94560150Y-104352836D02*
X94369674Y-104352836D01*
X94369674Y-104352836D02*
X94274436Y-104305217D01*
X94274436Y-104305217D02*
X94226817Y-104257598D01*
X94226817Y-104257598D02*
X94179198Y-104162360D01*
X94179198Y-104162360D02*
X94179198Y-103924265D01*
X94179198Y-103924265D02*
X94226817Y-103829027D01*
X94226817Y-103829027D02*
X94274436Y-103781408D01*
X94274436Y-103781408D02*
X94369674Y-103733789D01*
X94369674Y-103733789D02*
X94560150Y-103733789D01*
X94560150Y-103733789D02*
X94655388Y-103781408D01*
X94655388Y-103781408D02*
X94703007Y-103829027D01*
X94703007Y-103829027D02*
X94750626Y-103924265D01*
X95369674Y-104352836D02*
X95464912Y-104352836D01*
X95464912Y-104352836D02*
X95560150Y-104305217D01*
X95560150Y-104305217D02*
X95607769Y-104257598D01*
X95607769Y-104257598D02*
X95655388Y-104162360D01*
X95655388Y-104162360D02*
X95703007Y-103971884D01*
X95703007Y-103971884D02*
X95703007Y-103733789D01*
X95703007Y-103733789D02*
X95655388Y-103543313D01*
X95655388Y-103543313D02*
X95607769Y-103448075D01*
X95607769Y-103448075D02*
X95560150Y-103400456D01*
X95560150Y-103400456D02*
X95464912Y-103352836D01*
X95464912Y-103352836D02*
X95369674Y-103352836D01*
X95369674Y-103352836D02*
X95274436Y-103400456D01*
X95274436Y-103400456D02*
X95226817Y-103448075D01*
X95226817Y-103448075D02*
X95179198Y-103543313D01*
X95179198Y-103543313D02*
X95131579Y-103733789D01*
X95131579Y-103733789D02*
X95131579Y-103971884D01*
X95131579Y-103971884D02*
X95179198Y-104162360D01*
X95179198Y-104162360D02*
X95226817Y-104257598D01*
X95226817Y-104257598D02*
X95274436Y-104305217D01*
X95274436Y-104305217D02*
X95369674Y-104352836D01*
X96322055Y-104352836D02*
X96417293Y-104352836D01*
X96417293Y-104352836D02*
X96512531Y-104305217D01*
X96512531Y-104305217D02*
X96560150Y-104257598D01*
X96560150Y-104257598D02*
X96607769Y-104162360D01*
X96607769Y-104162360D02*
X96655388Y-103971884D01*
X96655388Y-103971884D02*
X96655388Y-103733789D01*
X96655388Y-103733789D02*
X96607769Y-103543313D01*
X96607769Y-103543313D02*
X96560150Y-103448075D01*
X96560150Y-103448075D02*
X96512531Y-103400456D01*
X96512531Y-103400456D02*
X96417293Y-103352836D01*
X96417293Y-103352836D02*
X96322055Y-103352836D01*
X96322055Y-103352836D02*
X96226817Y-103400456D01*
X96226817Y-103400456D02*
X96179198Y-103448075D01*
X96179198Y-103448075D02*
X96131579Y-103543313D01*
X96131579Y-103543313D02*
X96083960Y-103733789D01*
X96083960Y-103733789D02*
X96083960Y-103971884D01*
X96083960Y-103971884D02*
X96131579Y-104162360D01*
X96131579Y-104162360D02*
X96179198Y-104257598D01*
X96179198Y-104257598D02*
X96226817Y-104305217D01*
X96226817Y-104305217D02*
X96322055Y-104352836D01*
X97845865Y-103352836D02*
X97845865Y-104352836D01*
X97845865Y-104352836D02*
X98179198Y-103638551D01*
X98179198Y-103638551D02*
X98512531Y-104352836D01*
X98512531Y-104352836D02*
X98512531Y-103352836D01*
X98988722Y-103352836D02*
X98988722Y-104352836D01*
X98988722Y-103876646D02*
X99560150Y-103876646D01*
X99560150Y-103352836D02*
X99560150Y-104352836D01*
X99941103Y-104019503D02*
X100464912Y-104019503D01*
X100464912Y-104019503D02*
X99941103Y-103352836D01*
X99941103Y-103352836D02*
X100464912Y-103352836D01*
X89845863Y-114962780D02*
X89369673Y-114962780D01*
X89369673Y-114962780D02*
X89369673Y-115962780D01*
X90322054Y-114962780D02*
X90226816Y-115010400D01*
X90226816Y-115010400D02*
X90179197Y-115058019D01*
X90179197Y-115058019D02*
X90131578Y-115153257D01*
X90131578Y-115153257D02*
X90131578Y-115438971D01*
X90131578Y-115438971D02*
X90179197Y-115534209D01*
X90179197Y-115534209D02*
X90226816Y-115581828D01*
X90226816Y-115581828D02*
X90322054Y-115629447D01*
X90322054Y-115629447D02*
X90464911Y-115629447D01*
X90464911Y-115629447D02*
X90560149Y-115581828D01*
X90560149Y-115581828D02*
X90607768Y-115534209D01*
X90607768Y-115534209D02*
X90655387Y-115438971D01*
X90655387Y-115438971D02*
X90655387Y-115153257D01*
X90655387Y-115153257D02*
X90607768Y-115058019D01*
X90607768Y-115058019D02*
X90560149Y-115010400D01*
X90560149Y-115010400D02*
X90464911Y-114962780D01*
X90464911Y-114962780D02*
X90322054Y-114962780D01*
X91655387Y-114962780D02*
X91322054Y-115438971D01*
X91083959Y-114962780D02*
X91083959Y-115962780D01*
X91083959Y-115962780D02*
X91464911Y-115962780D01*
X91464911Y-115962780D02*
X91560149Y-115915161D01*
X91560149Y-115915161D02*
X91607768Y-115867542D01*
X91607768Y-115867542D02*
X91655387Y-115772304D01*
X91655387Y-115772304D02*
X91655387Y-115629447D01*
X91655387Y-115629447D02*
X91607768Y-115534209D01*
X91607768Y-115534209D02*
X91560149Y-115486590D01*
X91560149Y-115486590D02*
X91464911Y-115438971D01*
X91464911Y-115438971D02*
X91083959Y-115438971D01*
X92512530Y-114962780D02*
X92512530Y-115486590D01*
X92512530Y-115486590D02*
X92464911Y-115581828D01*
X92464911Y-115581828D02*
X92369673Y-115629447D01*
X92369673Y-115629447D02*
X92179197Y-115629447D01*
X92179197Y-115629447D02*
X92083959Y-115581828D01*
X92512530Y-115010400D02*
X92417292Y-114962780D01*
X92417292Y-114962780D02*
X92179197Y-114962780D01*
X92179197Y-114962780D02*
X92083959Y-115010400D01*
X92083959Y-115010400D02*
X92036340Y-115105638D01*
X92036340Y-115105638D02*
X92036340Y-115200876D01*
X92036340Y-115200876D02*
X92083959Y-115296114D01*
X92083959Y-115296114D02*
X92179197Y-115343733D01*
X92179197Y-115343733D02*
X92417292Y-115343733D01*
X92417292Y-115343733D02*
X92512530Y-115391352D01*
X93607769Y-115962780D02*
X94179197Y-115962780D01*
X93893483Y-114962780D02*
X93893483Y-115962780D01*
X94512531Y-114962780D02*
X94512531Y-115962780D01*
X94512531Y-115962780D02*
X94845864Y-115248495D01*
X94845864Y-115248495D02*
X95179197Y-115962780D01*
X95179197Y-115962780D02*
X95179197Y-114962780D01*
X89369673Y-113352836D02*
X89369673Y-114352836D01*
X89369673Y-114352836D02*
X89941101Y-113352836D01*
X89941101Y-113352836D02*
X89941101Y-114352836D01*
X90369673Y-113638551D02*
X90845863Y-113638551D01*
X90274435Y-113352836D02*
X90607768Y-114352836D01*
X90607768Y-114352836D02*
X90941101Y-113352836D01*
X91845863Y-113352836D02*
X91512530Y-113829027D01*
X91274435Y-113352836D02*
X91274435Y-114352836D01*
X91274435Y-114352836D02*
X91655387Y-114352836D01*
X91655387Y-114352836D02*
X91750625Y-114305217D01*
X91750625Y-114305217D02*
X91798244Y-114257598D01*
X91798244Y-114257598D02*
X91845863Y-114162360D01*
X91845863Y-114162360D02*
X91845863Y-114019503D01*
X91845863Y-114019503D02*
X91798244Y-113924265D01*
X91798244Y-113924265D02*
X91750625Y-113876646D01*
X91750625Y-113876646D02*
X91655387Y-113829027D01*
X91655387Y-113829027D02*
X91274435Y-113829027D01*
X92226816Y-113638551D02*
X92703006Y-113638551D01*
X92131578Y-113352836D02*
X92464911Y-114352836D01*
X92464911Y-114352836D02*
X92798244Y-113352836D01*
X93131578Y-113876646D02*
X93464911Y-113876646D01*
X93607768Y-113352836D02*
X93131578Y-113352836D01*
X93131578Y-113352836D02*
X93131578Y-114352836D01*
X93131578Y-114352836D02*
X93607768Y-114352836D01*
X89369673Y-111742892D02*
X89369673Y-112742892D01*
X89845863Y-111742892D02*
X89845863Y-112742892D01*
X89845863Y-112742892D02*
X90417291Y-111742892D01*
X90417291Y-111742892D02*
X90417291Y-112742892D01*
X90893482Y-111742892D02*
X90893482Y-112742892D01*
X90893482Y-112266702D02*
X91464910Y-112266702D01*
X91464910Y-111742892D02*
X91464910Y-112742892D01*
X91893482Y-112028607D02*
X92369672Y-112028607D01*
X91798244Y-111742892D02*
X92131577Y-112742892D01*
X92131577Y-112742892D02*
X92464910Y-111742892D01*
X93560149Y-112742892D02*
X93560149Y-111933369D01*
X93560149Y-111933369D02*
X93607768Y-111838131D01*
X93607768Y-111838131D02*
X93655387Y-111790512D01*
X93655387Y-111790512D02*
X93750625Y-111742892D01*
X93750625Y-111742892D02*
X93941101Y-111742892D01*
X93941101Y-111742892D02*
X94036339Y-111790512D01*
X94036339Y-111790512D02*
X94083958Y-111838131D01*
X94083958Y-111838131D02*
X94131577Y-111933369D01*
X94131577Y-111933369D02*
X94131577Y-112742892D01*
X94607768Y-112409559D02*
X94607768Y-111742892D01*
X94607768Y-112314321D02*
X94655387Y-112361940D01*
X94655387Y-112361940D02*
X94750625Y-112409559D01*
X94750625Y-112409559D02*
X94893482Y-112409559D01*
X94893482Y-112409559D02*
X94988720Y-112361940D01*
X94988720Y-112361940D02*
X95036339Y-112266702D01*
X95036339Y-112266702D02*
X95036339Y-111742892D01*
X95512530Y-111742892D02*
X95512530Y-112409559D01*
X95512530Y-112742892D02*
X95464911Y-112695273D01*
X95464911Y-112695273D02*
X95512530Y-112647654D01*
X95512530Y-112647654D02*
X95560149Y-112695273D01*
X95560149Y-112695273D02*
X95512530Y-112742892D01*
X95512530Y-112742892D02*
X95512530Y-112647654D01*
X95893482Y-112409559D02*
X96131577Y-111742892D01*
X96131577Y-111742892D02*
X96369672Y-112409559D01*
X97131577Y-111790512D02*
X97036339Y-111742892D01*
X97036339Y-111742892D02*
X96845863Y-111742892D01*
X96845863Y-111742892D02*
X96750625Y-111790512D01*
X96750625Y-111790512D02*
X96703006Y-111885750D01*
X96703006Y-111885750D02*
X96703006Y-112266702D01*
X96703006Y-112266702D02*
X96750625Y-112361940D01*
X96750625Y-112361940D02*
X96845863Y-112409559D01*
X96845863Y-112409559D02*
X97036339Y-112409559D01*
X97036339Y-112409559D02*
X97131577Y-112361940D01*
X97131577Y-112361940D02*
X97179196Y-112266702D01*
X97179196Y-112266702D02*
X97179196Y-112171464D01*
X97179196Y-112171464D02*
X96703006Y-112076226D01*
X97607768Y-111742892D02*
X97607768Y-112409559D01*
X97607768Y-112219083D02*
X97655387Y-112314321D01*
X97655387Y-112314321D02*
X97703006Y-112361940D01*
X97703006Y-112361940D02*
X97798244Y-112409559D01*
X97798244Y-112409559D02*
X97893482Y-112409559D01*
X98179197Y-111790512D02*
X98274435Y-111742892D01*
X98274435Y-111742892D02*
X98464911Y-111742892D01*
X98464911Y-111742892D02*
X98560149Y-111790512D01*
X98560149Y-111790512D02*
X98607768Y-111885750D01*
X98607768Y-111885750D02*
X98607768Y-111933369D01*
X98607768Y-111933369D02*
X98560149Y-112028607D01*
X98560149Y-112028607D02*
X98464911Y-112076226D01*
X98464911Y-112076226D02*
X98322054Y-112076226D01*
X98322054Y-112076226D02*
X98226816Y-112123845D01*
X98226816Y-112123845D02*
X98179197Y-112219083D01*
X98179197Y-112219083D02*
X98179197Y-112266702D01*
X98179197Y-112266702D02*
X98226816Y-112361940D01*
X98226816Y-112361940D02*
X98322054Y-112409559D01*
X98322054Y-112409559D02*
X98464911Y-112409559D01*
X98464911Y-112409559D02*
X98560149Y-112361940D01*
X99036340Y-111742892D02*
X99036340Y-112409559D01*
X99036340Y-112742892D02*
X98988721Y-112695273D01*
X98988721Y-112695273D02*
X99036340Y-112647654D01*
X99036340Y-112647654D02*
X99083959Y-112695273D01*
X99083959Y-112695273D02*
X99036340Y-112742892D01*
X99036340Y-112742892D02*
X99036340Y-112647654D01*
X99369673Y-112409559D02*
X99750625Y-112409559D01*
X99512530Y-112742892D02*
X99512530Y-111885750D01*
X99512530Y-111885750D02*
X99560149Y-111790512D01*
X99560149Y-111790512D02*
X99655387Y-111742892D01*
X99655387Y-111742892D02*
X99750625Y-111742892D01*
X99988721Y-112409559D02*
X100226816Y-111742892D01*
X100464911Y-112409559D02*
X100226816Y-111742892D01*
X100226816Y-111742892D02*
X100131578Y-111504797D01*
X100131578Y-111504797D02*
X100083959Y-111457178D01*
X100083959Y-111457178D02*
X99988721Y-111409559D01*
X89941101Y-108523004D02*
X89607768Y-108999195D01*
X89369673Y-108523004D02*
X89369673Y-109523004D01*
X89369673Y-109523004D02*
X89750625Y-109523004D01*
X89750625Y-109523004D02*
X89845863Y-109475385D01*
X89845863Y-109475385D02*
X89893482Y-109427766D01*
X89893482Y-109427766D02*
X89941101Y-109332528D01*
X89941101Y-109332528D02*
X89941101Y-109189671D01*
X89941101Y-109189671D02*
X89893482Y-109094433D01*
X89893482Y-109094433D02*
X89845863Y-109046814D01*
X89845863Y-109046814D02*
X89750625Y-108999195D01*
X89750625Y-108999195D02*
X89369673Y-108999195D01*
X90750625Y-108570624D02*
X90655387Y-108523004D01*
X90655387Y-108523004D02*
X90464911Y-108523004D01*
X90464911Y-108523004D02*
X90369673Y-108570624D01*
X90369673Y-108570624D02*
X90322054Y-108665862D01*
X90322054Y-108665862D02*
X90322054Y-109046814D01*
X90322054Y-109046814D02*
X90369673Y-109142052D01*
X90369673Y-109142052D02*
X90464911Y-109189671D01*
X90464911Y-109189671D02*
X90655387Y-109189671D01*
X90655387Y-109189671D02*
X90750625Y-109142052D01*
X90750625Y-109142052D02*
X90798244Y-109046814D01*
X90798244Y-109046814D02*
X90798244Y-108951576D01*
X90798244Y-108951576D02*
X90322054Y-108856338D01*
X91131578Y-109189671D02*
X91369673Y-108523004D01*
X91369673Y-108523004D02*
X91607768Y-109189671D01*
X92703007Y-109427766D02*
X92750626Y-109475385D01*
X92750626Y-109475385D02*
X92845864Y-109523004D01*
X92845864Y-109523004D02*
X93083959Y-109523004D01*
X93083959Y-109523004D02*
X93179197Y-109475385D01*
X93179197Y-109475385D02*
X93226816Y-109427766D01*
X93226816Y-109427766D02*
X93274435Y-109332528D01*
X93274435Y-109332528D02*
X93274435Y-109237290D01*
X93274435Y-109237290D02*
X93226816Y-109094433D01*
X93226816Y-109094433D02*
X92655388Y-108523004D01*
X92655388Y-108523004D02*
X93274435Y-108523004D01*
X93703007Y-108618243D02*
X93750626Y-108570624D01*
X93750626Y-108570624D02*
X93703007Y-108523004D01*
X93703007Y-108523004D02*
X93655388Y-108570624D01*
X93655388Y-108570624D02*
X93703007Y-108618243D01*
X93703007Y-108618243D02*
X93703007Y-108523004D01*
X94369673Y-109523004D02*
X94464911Y-109523004D01*
X94464911Y-109523004D02*
X94560149Y-109475385D01*
X94560149Y-109475385D02*
X94607768Y-109427766D01*
X94607768Y-109427766D02*
X94655387Y-109332528D01*
X94655387Y-109332528D02*
X94703006Y-109142052D01*
X94703006Y-109142052D02*
X94703006Y-108903957D01*
X94703006Y-108903957D02*
X94655387Y-108713481D01*
X94655387Y-108713481D02*
X94607768Y-108618243D01*
X94607768Y-108618243D02*
X94560149Y-108570624D01*
X94560149Y-108570624D02*
X94464911Y-108523004D01*
X94464911Y-108523004D02*
X94369673Y-108523004D01*
X94369673Y-108523004D02*
X94274435Y-108570624D01*
X94274435Y-108570624D02*
X94226816Y-108618243D01*
X94226816Y-108618243D02*
X94179197Y-108713481D01*
X94179197Y-108713481D02*
X94131578Y-108903957D01*
X94131578Y-108903957D02*
X94131578Y-109142052D01*
X94131578Y-109142052D02*
X94179197Y-109332528D01*
X94179197Y-109332528D02*
X94226816Y-109427766D01*
X94226816Y-109427766D02*
X94274435Y-109475385D01*
X94274435Y-109475385D02*
X94369673Y-109523004D01*
D12*
X91125999Y-96995771D02*
X91325999Y-96710057D01*
X91468856Y-96995771D02*
X91468856Y-96395771D01*
X91468856Y-96395771D02*
X91240285Y-96395771D01*
X91240285Y-96395771D02*
X91183142Y-96424342D01*
X91183142Y-96424342D02*
X91154571Y-96452914D01*
X91154571Y-96452914D02*
X91125999Y-96510057D01*
X91125999Y-96510057D02*
X91125999Y-96595771D01*
X91125999Y-96595771D02*
X91154571Y-96652914D01*
X91154571Y-96652914D02*
X91183142Y-96681485D01*
X91183142Y-96681485D02*
X91240285Y-96710057D01*
X91240285Y-96710057D02*
X91468856Y-96710057D01*
X90840285Y-96995771D02*
X90725999Y-96995771D01*
X90725999Y-96995771D02*
X90668856Y-96967200D01*
X90668856Y-96967200D02*
X90640285Y-96938628D01*
X90640285Y-96938628D02*
X90583142Y-96852914D01*
X90583142Y-96852914D02*
X90554571Y-96738628D01*
X90554571Y-96738628D02*
X90554571Y-96510057D01*
X90554571Y-96510057D02*
X90583142Y-96452914D01*
X90583142Y-96452914D02*
X90611714Y-96424342D01*
X90611714Y-96424342D02*
X90668856Y-96395771D01*
X90668856Y-96395771D02*
X90783142Y-96395771D01*
X90783142Y-96395771D02*
X90840285Y-96424342D01*
X90840285Y-96424342D02*
X90868856Y-96452914D01*
X90868856Y-96452914D02*
X90897428Y-96510057D01*
X90897428Y-96510057D02*
X90897428Y-96652914D01*
X90897428Y-96652914D02*
X90868856Y-96710057D01*
X90868856Y-96710057D02*
X90840285Y-96738628D01*
X90840285Y-96738628D02*
X90783142Y-96767200D01*
X90783142Y-96767200D02*
X90668856Y-96767200D01*
X90668856Y-96767200D02*
X90611714Y-96738628D01*
X90611714Y-96738628D02*
X90583142Y-96710057D01*
X90583142Y-96710057D02*
X90554571Y-96652914D01*
D10*
X108708000Y-82513628D02*
X108422286Y-82513628D01*
X108422286Y-82513628D02*
X108422286Y-83113628D01*
X109222285Y-82513628D02*
X108879428Y-82513628D01*
X109050857Y-82513628D02*
X109050857Y-83113628D01*
X109050857Y-83113628D02*
X108993714Y-83027914D01*
X108993714Y-83027914D02*
X108936571Y-82970771D01*
X108936571Y-82970771D02*
X108879428Y-82942200D01*
D12*
X110907999Y-79438628D02*
X110936571Y-79467200D01*
X110936571Y-79467200D02*
X111022285Y-79495771D01*
X111022285Y-79495771D02*
X111079428Y-79495771D01*
X111079428Y-79495771D02*
X111165142Y-79467200D01*
X111165142Y-79467200D02*
X111222285Y-79410057D01*
X111222285Y-79410057D02*
X111250856Y-79352914D01*
X111250856Y-79352914D02*
X111279428Y-79238628D01*
X111279428Y-79238628D02*
X111279428Y-79152914D01*
X111279428Y-79152914D02*
X111250856Y-79038628D01*
X111250856Y-79038628D02*
X111222285Y-78981485D01*
X111222285Y-78981485D02*
X111165142Y-78924342D01*
X111165142Y-78924342D02*
X111079428Y-78895771D01*
X111079428Y-78895771D02*
X111022285Y-78895771D01*
X111022285Y-78895771D02*
X110936571Y-78924342D01*
X110936571Y-78924342D02*
X110907999Y-78952914D01*
X110393714Y-78895771D02*
X110507999Y-78895771D01*
X110507999Y-78895771D02*
X110565142Y-78924342D01*
X110565142Y-78924342D02*
X110593714Y-78952914D01*
X110593714Y-78952914D02*
X110650856Y-79038628D01*
X110650856Y-79038628D02*
X110679428Y-79152914D01*
X110679428Y-79152914D02*
X110679428Y-79381485D01*
X110679428Y-79381485D02*
X110650856Y-79438628D01*
X110650856Y-79438628D02*
X110622285Y-79467200D01*
X110622285Y-79467200D02*
X110565142Y-79495771D01*
X110565142Y-79495771D02*
X110450856Y-79495771D01*
X110450856Y-79495771D02*
X110393714Y-79467200D01*
X110393714Y-79467200D02*
X110365142Y-79438628D01*
X110365142Y-79438628D02*
X110336571Y-79381485D01*
X110336571Y-79381485D02*
X110336571Y-79238628D01*
X110336571Y-79238628D02*
X110365142Y-79181485D01*
X110365142Y-79181485D02*
X110393714Y-79152914D01*
X110393714Y-79152914D02*
X110450856Y-79124342D01*
X110450856Y-79124342D02*
X110565142Y-79124342D01*
X110565142Y-79124342D02*
X110622285Y-79152914D01*
X110622285Y-79152914D02*
X110650856Y-79181485D01*
X110650856Y-79181485D02*
X110679428Y-79238628D01*
X104770628Y-88408000D02*
X104799200Y-88379428D01*
X104799200Y-88379428D02*
X104827771Y-88293714D01*
X104827771Y-88293714D02*
X104827771Y-88236571D01*
X104827771Y-88236571D02*
X104799200Y-88150857D01*
X104799200Y-88150857D02*
X104742057Y-88093714D01*
X104742057Y-88093714D02*
X104684914Y-88065143D01*
X104684914Y-88065143D02*
X104570628Y-88036571D01*
X104570628Y-88036571D02*
X104484914Y-88036571D01*
X104484914Y-88036571D02*
X104370628Y-88065143D01*
X104370628Y-88065143D02*
X104313485Y-88093714D01*
X104313485Y-88093714D02*
X104256342Y-88150857D01*
X104256342Y-88150857D02*
X104227771Y-88236571D01*
X104227771Y-88236571D02*
X104227771Y-88293714D01*
X104227771Y-88293714D02*
X104256342Y-88379428D01*
X104256342Y-88379428D02*
X104284914Y-88408000D01*
X104227771Y-88950857D02*
X104227771Y-88665143D01*
X104227771Y-88665143D02*
X104513485Y-88636571D01*
X104513485Y-88636571D02*
X104484914Y-88665143D01*
X104484914Y-88665143D02*
X104456342Y-88722286D01*
X104456342Y-88722286D02*
X104456342Y-88865143D01*
X104456342Y-88865143D02*
X104484914Y-88922286D01*
X104484914Y-88922286D02*
X104513485Y-88950857D01*
X104513485Y-88950857D02*
X104570628Y-88979428D01*
X104570628Y-88979428D02*
X104713485Y-88979428D01*
X104713485Y-88979428D02*
X104770628Y-88950857D01*
X104770628Y-88950857D02*
X104799200Y-88922286D01*
X104799200Y-88922286D02*
X104827771Y-88865143D01*
X104827771Y-88865143D02*
X104827771Y-88722286D01*
X104827771Y-88722286D02*
X104799200Y-88665143D01*
X104799200Y-88665143D02*
X104770628Y-88636571D01*
X90157999Y-88688628D02*
X90186571Y-88717200D01*
X90186571Y-88717200D02*
X90272285Y-88745771D01*
X90272285Y-88745771D02*
X90329428Y-88745771D01*
X90329428Y-88745771D02*
X90415142Y-88717200D01*
X90415142Y-88717200D02*
X90472285Y-88660057D01*
X90472285Y-88660057D02*
X90500856Y-88602914D01*
X90500856Y-88602914D02*
X90529428Y-88488628D01*
X90529428Y-88488628D02*
X90529428Y-88402914D01*
X90529428Y-88402914D02*
X90500856Y-88288628D01*
X90500856Y-88288628D02*
X90472285Y-88231485D01*
X90472285Y-88231485D02*
X90415142Y-88174342D01*
X90415142Y-88174342D02*
X90329428Y-88145771D01*
X90329428Y-88145771D02*
X90272285Y-88145771D01*
X90272285Y-88145771D02*
X90186571Y-88174342D01*
X90186571Y-88174342D02*
X90157999Y-88202914D01*
X89929428Y-88202914D02*
X89900856Y-88174342D01*
X89900856Y-88174342D02*
X89843714Y-88145771D01*
X89843714Y-88145771D02*
X89700856Y-88145771D01*
X89700856Y-88145771D02*
X89643714Y-88174342D01*
X89643714Y-88174342D02*
X89615142Y-88202914D01*
X89615142Y-88202914D02*
X89586571Y-88260057D01*
X89586571Y-88260057D02*
X89586571Y-88317200D01*
X89586571Y-88317200D02*
X89615142Y-88402914D01*
X89615142Y-88402914D02*
X89957999Y-88745771D01*
X89957999Y-88745771D02*
X89586571Y-88745771D01*
X106375999Y-73124628D02*
X106404571Y-73153200D01*
X106404571Y-73153200D02*
X106490285Y-73181771D01*
X106490285Y-73181771D02*
X106547428Y-73181771D01*
X106547428Y-73181771D02*
X106633142Y-73153200D01*
X106633142Y-73153200D02*
X106690285Y-73096057D01*
X106690285Y-73096057D02*
X106718856Y-73038914D01*
X106718856Y-73038914D02*
X106747428Y-72924628D01*
X106747428Y-72924628D02*
X106747428Y-72838914D01*
X106747428Y-72838914D02*
X106718856Y-72724628D01*
X106718856Y-72724628D02*
X106690285Y-72667485D01*
X106690285Y-72667485D02*
X106633142Y-72610342D01*
X106633142Y-72610342D02*
X106547428Y-72581771D01*
X106547428Y-72581771D02*
X106490285Y-72581771D01*
X106490285Y-72581771D02*
X106404571Y-72610342D01*
X106404571Y-72610342D02*
X106375999Y-72638914D01*
X105804571Y-73181771D02*
X106147428Y-73181771D01*
X105975999Y-73181771D02*
X105975999Y-72581771D01*
X105975999Y-72581771D02*
X106033142Y-72667485D01*
X106033142Y-72667485D02*
X106090285Y-72724628D01*
X106090285Y-72724628D02*
X106147428Y-72753200D01*
X88000856Y-80245771D02*
X88000856Y-79645771D01*
X88000856Y-79645771D02*
X87857999Y-79645771D01*
X87857999Y-79645771D02*
X87772285Y-79674342D01*
X87772285Y-79674342D02*
X87715142Y-79731485D01*
X87715142Y-79731485D02*
X87686571Y-79788628D01*
X87686571Y-79788628D02*
X87657999Y-79902914D01*
X87657999Y-79902914D02*
X87657999Y-79988628D01*
X87657999Y-79988628D02*
X87686571Y-80102914D01*
X87686571Y-80102914D02*
X87715142Y-80160057D01*
X87715142Y-80160057D02*
X87772285Y-80217200D01*
X87772285Y-80217200D02*
X87857999Y-80245771D01*
X87857999Y-80245771D02*
X88000856Y-80245771D01*
X87086571Y-80245771D02*
X87429428Y-80245771D01*
X87257999Y-80245771D02*
X87257999Y-79645771D01*
X87257999Y-79645771D02*
X87315142Y-79731485D01*
X87315142Y-79731485D02*
X87372285Y-79788628D01*
X87372285Y-79788628D02*
X87429428Y-79817200D01*
X91157714Y-94495771D02*
X91357714Y-94210057D01*
X91500571Y-94495771D02*
X91500571Y-93895771D01*
X91500571Y-93895771D02*
X91272000Y-93895771D01*
X91272000Y-93895771D02*
X91214857Y-93924342D01*
X91214857Y-93924342D02*
X91186286Y-93952914D01*
X91186286Y-93952914D02*
X91157714Y-94010057D01*
X91157714Y-94010057D02*
X91157714Y-94095771D01*
X91157714Y-94095771D02*
X91186286Y-94152914D01*
X91186286Y-94152914D02*
X91214857Y-94181485D01*
X91214857Y-94181485D02*
X91272000Y-94210057D01*
X91272000Y-94210057D02*
X91500571Y-94210057D01*
X90586286Y-94495771D02*
X90929143Y-94495771D01*
X90757714Y-94495771D02*
X90757714Y-93895771D01*
X90757714Y-93895771D02*
X90814857Y-93981485D01*
X90814857Y-93981485D02*
X90872000Y-94038628D01*
X90872000Y-94038628D02*
X90929143Y-94067200D01*
X90043428Y-93895771D02*
X90329142Y-93895771D01*
X90329142Y-93895771D02*
X90357714Y-94181485D01*
X90357714Y-94181485D02*
X90329142Y-94152914D01*
X90329142Y-94152914D02*
X90272000Y-94124342D01*
X90272000Y-94124342D02*
X90129142Y-94124342D01*
X90129142Y-94124342D02*
X90072000Y-94152914D01*
X90072000Y-94152914D02*
X90043428Y-94181485D01*
X90043428Y-94181485D02*
X90014857Y-94238628D01*
X90014857Y-94238628D02*
X90014857Y-94381485D01*
X90014857Y-94381485D02*
X90043428Y-94438628D01*
X90043428Y-94438628D02*
X90072000Y-94467200D01*
X90072000Y-94467200D02*
X90129142Y-94495771D01*
X90129142Y-94495771D02*
X90272000Y-94495771D01*
X90272000Y-94495771D02*
X90329142Y-94467200D01*
X90329142Y-94467200D02*
X90357714Y-94438628D01*
X94157999Y-78245771D02*
X94357999Y-77960057D01*
X94500856Y-78245771D02*
X94500856Y-77645771D01*
X94500856Y-77645771D02*
X94272285Y-77645771D01*
X94272285Y-77645771D02*
X94215142Y-77674342D01*
X94215142Y-77674342D02*
X94186571Y-77702914D01*
X94186571Y-77702914D02*
X94157999Y-77760057D01*
X94157999Y-77760057D02*
X94157999Y-77845771D01*
X94157999Y-77845771D02*
X94186571Y-77902914D01*
X94186571Y-77902914D02*
X94215142Y-77931485D01*
X94215142Y-77931485D02*
X94272285Y-77960057D01*
X94272285Y-77960057D02*
X94500856Y-77960057D01*
X93586571Y-78245771D02*
X93929428Y-78245771D01*
X93757999Y-78245771D02*
X93757999Y-77645771D01*
X93757999Y-77645771D02*
X93815142Y-77731485D01*
X93815142Y-77731485D02*
X93872285Y-77788628D01*
X93872285Y-77788628D02*
X93929428Y-77817200D01*
X92157999Y-78275771D02*
X92357999Y-77990057D01*
X92500856Y-78275771D02*
X92500856Y-77675771D01*
X92500856Y-77675771D02*
X92272285Y-77675771D01*
X92272285Y-77675771D02*
X92215142Y-77704342D01*
X92215142Y-77704342D02*
X92186571Y-77732914D01*
X92186571Y-77732914D02*
X92157999Y-77790057D01*
X92157999Y-77790057D02*
X92157999Y-77875771D01*
X92157999Y-77875771D02*
X92186571Y-77932914D01*
X92186571Y-77932914D02*
X92215142Y-77961485D01*
X92215142Y-77961485D02*
X92272285Y-77990057D01*
X92272285Y-77990057D02*
X92500856Y-77990057D01*
X91929428Y-77732914D02*
X91900856Y-77704342D01*
X91900856Y-77704342D02*
X91843714Y-77675771D01*
X91843714Y-77675771D02*
X91700856Y-77675771D01*
X91700856Y-77675771D02*
X91643714Y-77704342D01*
X91643714Y-77704342D02*
X91615142Y-77732914D01*
X91615142Y-77732914D02*
X91586571Y-77790057D01*
X91586571Y-77790057D02*
X91586571Y-77847200D01*
X91586571Y-77847200D02*
X91615142Y-77932914D01*
X91615142Y-77932914D02*
X91957999Y-78275771D01*
X91957999Y-78275771D02*
X91586571Y-78275771D01*
X93203800Y-88688628D02*
X93232372Y-88717200D01*
X93232372Y-88717200D02*
X93318086Y-88745771D01*
X93318086Y-88745771D02*
X93375229Y-88745771D01*
X93375229Y-88745771D02*
X93460943Y-88717200D01*
X93460943Y-88717200D02*
X93518086Y-88660057D01*
X93518086Y-88660057D02*
X93546657Y-88602914D01*
X93546657Y-88602914D02*
X93575229Y-88488628D01*
X93575229Y-88488628D02*
X93575229Y-88402914D01*
X93575229Y-88402914D02*
X93546657Y-88288628D01*
X93546657Y-88288628D02*
X93518086Y-88231485D01*
X93518086Y-88231485D02*
X93460943Y-88174342D01*
X93460943Y-88174342D02*
X93375229Y-88145771D01*
X93375229Y-88145771D02*
X93318086Y-88145771D01*
X93318086Y-88145771D02*
X93232372Y-88174342D01*
X93232372Y-88174342D02*
X93203800Y-88202914D01*
X93003800Y-88145771D02*
X92603800Y-88145771D01*
X92603800Y-88145771D02*
X92860943Y-88745771D01*
X103246628Y-88408000D02*
X103275200Y-88379428D01*
X103275200Y-88379428D02*
X103303771Y-88293714D01*
X103303771Y-88293714D02*
X103303771Y-88236571D01*
X103303771Y-88236571D02*
X103275200Y-88150857D01*
X103275200Y-88150857D02*
X103218057Y-88093714D01*
X103218057Y-88093714D02*
X103160914Y-88065143D01*
X103160914Y-88065143D02*
X103046628Y-88036571D01*
X103046628Y-88036571D02*
X102960914Y-88036571D01*
X102960914Y-88036571D02*
X102846628Y-88065143D01*
X102846628Y-88065143D02*
X102789485Y-88093714D01*
X102789485Y-88093714D02*
X102732342Y-88150857D01*
X102732342Y-88150857D02*
X102703771Y-88236571D01*
X102703771Y-88236571D02*
X102703771Y-88293714D01*
X102703771Y-88293714D02*
X102732342Y-88379428D01*
X102732342Y-88379428D02*
X102760914Y-88408000D01*
X102703771Y-88608000D02*
X102703771Y-88979428D01*
X102703771Y-88979428D02*
X102932342Y-88779428D01*
X102932342Y-88779428D02*
X102932342Y-88865143D01*
X102932342Y-88865143D02*
X102960914Y-88922286D01*
X102960914Y-88922286D02*
X102989485Y-88950857D01*
X102989485Y-88950857D02*
X103046628Y-88979428D01*
X103046628Y-88979428D02*
X103189485Y-88979428D01*
X103189485Y-88979428D02*
X103246628Y-88950857D01*
X103246628Y-88950857D02*
X103275200Y-88922286D01*
X103275200Y-88922286D02*
X103303771Y-88865143D01*
X103303771Y-88865143D02*
X103303771Y-88693714D01*
X103303771Y-88693714D02*
X103275200Y-88636571D01*
X103275200Y-88636571D02*
X103246628Y-88608000D01*
X103946999Y-82662771D02*
X104146999Y-82377057D01*
X104289856Y-82662771D02*
X104289856Y-82062771D01*
X104289856Y-82062771D02*
X104061285Y-82062771D01*
X104061285Y-82062771D02*
X104004142Y-82091342D01*
X104004142Y-82091342D02*
X103975571Y-82119914D01*
X103975571Y-82119914D02*
X103946999Y-82177057D01*
X103946999Y-82177057D02*
X103946999Y-82262771D01*
X103946999Y-82262771D02*
X103975571Y-82319914D01*
X103975571Y-82319914D02*
X104004142Y-82348485D01*
X104004142Y-82348485D02*
X104061285Y-82377057D01*
X104061285Y-82377057D02*
X104289856Y-82377057D01*
X103746999Y-82062771D02*
X103375571Y-82062771D01*
X103375571Y-82062771D02*
X103575571Y-82291342D01*
X103575571Y-82291342D02*
X103489856Y-82291342D01*
X103489856Y-82291342D02*
X103432714Y-82319914D01*
X103432714Y-82319914D02*
X103404142Y-82348485D01*
X103404142Y-82348485D02*
X103375571Y-82405628D01*
X103375571Y-82405628D02*
X103375571Y-82548485D01*
X103375571Y-82548485D02*
X103404142Y-82605628D01*
X103404142Y-82605628D02*
X103432714Y-82634200D01*
X103432714Y-82634200D02*
X103489856Y-82662771D01*
X103489856Y-82662771D02*
X103661285Y-82662771D01*
X103661285Y-82662771D02*
X103718428Y-82634200D01*
X103718428Y-82634200D02*
X103746999Y-82605628D01*
X91657999Y-88688628D02*
X91686571Y-88717200D01*
X91686571Y-88717200D02*
X91772285Y-88745771D01*
X91772285Y-88745771D02*
X91829428Y-88745771D01*
X91829428Y-88745771D02*
X91915142Y-88717200D01*
X91915142Y-88717200D02*
X91972285Y-88660057D01*
X91972285Y-88660057D02*
X92000856Y-88602914D01*
X92000856Y-88602914D02*
X92029428Y-88488628D01*
X92029428Y-88488628D02*
X92029428Y-88402914D01*
X92029428Y-88402914D02*
X92000856Y-88288628D01*
X92000856Y-88288628D02*
X91972285Y-88231485D01*
X91972285Y-88231485D02*
X91915142Y-88174342D01*
X91915142Y-88174342D02*
X91829428Y-88145771D01*
X91829428Y-88145771D02*
X91772285Y-88145771D01*
X91772285Y-88145771D02*
X91686571Y-88174342D01*
X91686571Y-88174342D02*
X91657999Y-88202914D01*
X91143714Y-88345771D02*
X91143714Y-88745771D01*
X91286571Y-88117200D02*
X91429428Y-88545771D01*
X91429428Y-88545771D02*
X91057999Y-88545771D01*
X90227771Y-79768857D02*
X90713485Y-79768857D01*
X90713485Y-79768857D02*
X90770628Y-79797428D01*
X90770628Y-79797428D02*
X90799200Y-79826000D01*
X90799200Y-79826000D02*
X90827771Y-79883142D01*
X90827771Y-79883142D02*
X90827771Y-79997428D01*
X90827771Y-79997428D02*
X90799200Y-80054571D01*
X90799200Y-80054571D02*
X90770628Y-80083142D01*
X90770628Y-80083142D02*
X90713485Y-80111714D01*
X90713485Y-80111714D02*
X90227771Y-80111714D01*
X90227771Y-80340285D02*
X90227771Y-80711713D01*
X90227771Y-80711713D02*
X90456342Y-80511713D01*
X90456342Y-80511713D02*
X90456342Y-80597428D01*
X90456342Y-80597428D02*
X90484914Y-80654571D01*
X90484914Y-80654571D02*
X90513485Y-80683142D01*
X90513485Y-80683142D02*
X90570628Y-80711713D01*
X90570628Y-80711713D02*
X90713485Y-80711713D01*
X90713485Y-80711713D02*
X90770628Y-80683142D01*
X90770628Y-80683142D02*
X90799200Y-80654571D01*
X90799200Y-80654571D02*
X90827771Y-80597428D01*
X90827771Y-80597428D02*
X90827771Y-80425999D01*
X90827771Y-80425999D02*
X90799200Y-80368856D01*
X90799200Y-80368856D02*
X90770628Y-80340285D01*
X108147771Y-85340285D02*
X107862057Y-85140285D01*
X108147771Y-84997428D02*
X107547771Y-84997428D01*
X107547771Y-84997428D02*
X107547771Y-85225999D01*
X107547771Y-85225999D02*
X107576342Y-85283142D01*
X107576342Y-85283142D02*
X107604914Y-85311713D01*
X107604914Y-85311713D02*
X107662057Y-85340285D01*
X107662057Y-85340285D02*
X107747771Y-85340285D01*
X107747771Y-85340285D02*
X107804914Y-85311713D01*
X107804914Y-85311713D02*
X107833485Y-85283142D01*
X107833485Y-85283142D02*
X107862057Y-85225999D01*
X107862057Y-85225999D02*
X107862057Y-84997428D01*
X108147771Y-85911713D02*
X108147771Y-85568856D01*
X108147771Y-85740285D02*
X107547771Y-85740285D01*
X107547771Y-85740285D02*
X107633485Y-85683142D01*
X107633485Y-85683142D02*
X107690628Y-85625999D01*
X107690628Y-85625999D02*
X107719200Y-85568856D01*
X107747771Y-86426000D02*
X108147771Y-86426000D01*
X107519200Y-86283142D02*
X107947771Y-86140285D01*
X107947771Y-86140285D02*
X107947771Y-86511714D01*
X105577771Y-77892000D02*
X105292057Y-77692000D01*
X105577771Y-77549143D02*
X104977771Y-77549143D01*
X104977771Y-77549143D02*
X104977771Y-77777714D01*
X104977771Y-77777714D02*
X105006342Y-77834857D01*
X105006342Y-77834857D02*
X105034914Y-77863428D01*
X105034914Y-77863428D02*
X105092057Y-77892000D01*
X105092057Y-77892000D02*
X105177771Y-77892000D01*
X105177771Y-77892000D02*
X105234914Y-77863428D01*
X105234914Y-77863428D02*
X105263485Y-77834857D01*
X105263485Y-77834857D02*
X105292057Y-77777714D01*
X105292057Y-77777714D02*
X105292057Y-77549143D01*
X104977771Y-78434857D02*
X104977771Y-78149143D01*
X104977771Y-78149143D02*
X105263485Y-78120571D01*
X105263485Y-78120571D02*
X105234914Y-78149143D01*
X105234914Y-78149143D02*
X105206342Y-78206286D01*
X105206342Y-78206286D02*
X105206342Y-78349143D01*
X105206342Y-78349143D02*
X105234914Y-78406286D01*
X105234914Y-78406286D02*
X105263485Y-78434857D01*
X105263485Y-78434857D02*
X105320628Y-78463428D01*
X105320628Y-78463428D02*
X105463485Y-78463428D01*
X105463485Y-78463428D02*
X105520628Y-78434857D01*
X105520628Y-78434857D02*
X105549200Y-78406286D01*
X105549200Y-78406286D02*
X105577771Y-78349143D01*
X105577771Y-78349143D02*
X105577771Y-78206286D01*
X105577771Y-78206286D02*
X105549200Y-78149143D01*
X105549200Y-78149143D02*
X105520628Y-78120571D01*
X91157714Y-99507771D02*
X91357714Y-99222057D01*
X91500571Y-99507771D02*
X91500571Y-98907771D01*
X91500571Y-98907771D02*
X91272000Y-98907771D01*
X91272000Y-98907771D02*
X91214857Y-98936342D01*
X91214857Y-98936342D02*
X91186286Y-98964914D01*
X91186286Y-98964914D02*
X91157714Y-99022057D01*
X91157714Y-99022057D02*
X91157714Y-99107771D01*
X91157714Y-99107771D02*
X91186286Y-99164914D01*
X91186286Y-99164914D02*
X91214857Y-99193485D01*
X91214857Y-99193485D02*
X91272000Y-99222057D01*
X91272000Y-99222057D02*
X91500571Y-99222057D01*
X90586286Y-99507771D02*
X90929143Y-99507771D01*
X90757714Y-99507771D02*
X90757714Y-98907771D01*
X90757714Y-98907771D02*
X90814857Y-98993485D01*
X90814857Y-98993485D02*
X90872000Y-99050628D01*
X90872000Y-99050628D02*
X90929143Y-99079200D01*
X90214857Y-98907771D02*
X90157714Y-98907771D01*
X90157714Y-98907771D02*
X90100571Y-98936342D01*
X90100571Y-98936342D02*
X90072000Y-98964914D01*
X90072000Y-98964914D02*
X90043428Y-99022057D01*
X90043428Y-99022057D02*
X90014857Y-99136342D01*
X90014857Y-99136342D02*
X90014857Y-99279200D01*
X90014857Y-99279200D02*
X90043428Y-99393485D01*
X90043428Y-99393485D02*
X90072000Y-99450628D01*
X90072000Y-99450628D02*
X90100571Y-99479200D01*
X90100571Y-99479200D02*
X90157714Y-99507771D01*
X90157714Y-99507771D02*
X90214857Y-99507771D01*
X90214857Y-99507771D02*
X90272000Y-99479200D01*
X90272000Y-99479200D02*
X90300571Y-99450628D01*
X90300571Y-99450628D02*
X90329142Y-99393485D01*
X90329142Y-99393485D02*
X90357714Y-99279200D01*
X90357714Y-99279200D02*
X90357714Y-99136342D01*
X90357714Y-99136342D02*
X90329142Y-99022057D01*
X90329142Y-99022057D02*
X90300571Y-98964914D01*
X90300571Y-98964914D02*
X90272000Y-98936342D01*
X90272000Y-98936342D02*
X90214857Y-98907771D01*
X109763771Y-74486857D02*
X110249485Y-74486857D01*
X110249485Y-74486857D02*
X110306628Y-74515428D01*
X110306628Y-74515428D02*
X110335200Y-74544000D01*
X110335200Y-74544000D02*
X110363771Y-74601142D01*
X110363771Y-74601142D02*
X110363771Y-74715428D01*
X110363771Y-74715428D02*
X110335200Y-74772571D01*
X110335200Y-74772571D02*
X110306628Y-74801142D01*
X110306628Y-74801142D02*
X110249485Y-74829714D01*
X110249485Y-74829714D02*
X109763771Y-74829714D01*
X109820914Y-75086856D02*
X109792342Y-75115428D01*
X109792342Y-75115428D02*
X109763771Y-75172571D01*
X109763771Y-75172571D02*
X109763771Y-75315428D01*
X109763771Y-75315428D02*
X109792342Y-75372571D01*
X109792342Y-75372571D02*
X109820914Y-75401142D01*
X109820914Y-75401142D02*
X109878057Y-75429713D01*
X109878057Y-75429713D02*
X109935200Y-75429713D01*
X109935200Y-75429713D02*
X110020914Y-75401142D01*
X110020914Y-75401142D02*
X110363771Y-75058285D01*
X110363771Y-75058285D02*
X110363771Y-75429713D01*
X98515142Y-86145771D02*
X98515142Y-86631485D01*
X98515142Y-86631485D02*
X98486571Y-86688628D01*
X98486571Y-86688628D02*
X98458000Y-86717200D01*
X98458000Y-86717200D02*
X98400857Y-86745771D01*
X98400857Y-86745771D02*
X98286571Y-86745771D01*
X98286571Y-86745771D02*
X98229428Y-86717200D01*
X98229428Y-86717200D02*
X98200857Y-86688628D01*
X98200857Y-86688628D02*
X98172285Y-86631485D01*
X98172285Y-86631485D02*
X98172285Y-86145771D01*
X97572286Y-86745771D02*
X97915143Y-86745771D01*
X97743714Y-86745771D02*
X97743714Y-86145771D01*
X97743714Y-86145771D02*
X97800857Y-86231485D01*
X97800857Y-86231485D02*
X97858000Y-86288628D01*
X97858000Y-86288628D02*
X97915143Y-86317200D01*
X101232999Y-82755819D02*
X101232999Y-82993914D01*
X101471094Y-82898676D02*
X101232999Y-82993914D01*
X101232999Y-82993914D02*
X100994904Y-82898676D01*
X101375856Y-83184390D02*
X101232999Y-82993914D01*
X101232999Y-82993914D02*
X101090142Y-83184390D01*
D13*
%TO.C,R9*%
X92820742Y-96203500D02*
X93295258Y-96203500D01*
X92820742Y-97248500D02*
X93295258Y-97248500D01*
%TO.C,C6*%
X110298000Y-77616580D02*
X110298000Y-77335420D01*
X111318000Y-77616580D02*
X111318000Y-77335420D01*
%TO.C,C5*%
X104048000Y-86335420D02*
X104048000Y-86616580D01*
X105068000Y-86335420D02*
X105068000Y-86616580D01*
%TO.C,C2*%
X89548000Y-86335420D02*
X89548000Y-86616580D01*
X90568000Y-86335420D02*
X90568000Y-86616580D01*
%TO.C,C1*%
X108167420Y-72402000D02*
X108448580Y-72402000D01*
X108167420Y-73422000D02*
X108448580Y-73422000D01*
%TO.C,D1*%
X86708000Y-79336000D02*
X86708000Y-76676000D01*
X88408000Y-79336000D02*
X86708000Y-79336000D01*
X88408000Y-79336000D02*
X88408000Y-76676000D01*
%TO.C,R15*%
X93295258Y-93703500D02*
X92820742Y-93703500D01*
X93295258Y-94748500D02*
X92820742Y-94748500D01*
%TO.C,R1*%
X95820742Y-78498500D02*
X96295258Y-78498500D01*
X95820742Y-77453500D02*
X96295258Y-77453500D01*
%TO.C,R2*%
X90295258Y-77453500D02*
X89820742Y-77453500D01*
X90295258Y-78498500D02*
X89820742Y-78498500D01*
%TO.C,C7*%
X92548000Y-86335420D02*
X92548000Y-86616580D01*
X93568000Y-86335420D02*
X93568000Y-86616580D01*
%TO.C,C3*%
X102524000Y-86348420D02*
X102524000Y-86629580D01*
X103544000Y-86348420D02*
X103544000Y-86629580D01*
%TO.C,R3*%
X104045258Y-82953500D02*
X103570742Y-82953500D01*
X104045258Y-83998500D02*
X103570742Y-83998500D01*
%TO.C,C4*%
X91048000Y-86335420D02*
X91048000Y-86616580D01*
X92068000Y-86335420D02*
X92068000Y-86616580D01*
%TO.C,U3*%
X93058000Y-78666000D02*
X92258000Y-78666000D01*
X93058000Y-78666000D02*
X93858000Y-78666000D01*
X93058000Y-81786000D02*
X92258000Y-81786000D01*
X93058000Y-81786000D02*
X93858000Y-81786000D01*
X91998000Y-82066000D02*
X91518000Y-82066000D01*
X91758000Y-81736000D01*
X91998000Y-82066000D01*
G36*
X91998000Y-82066000D02*
G01*
X91518000Y-82066000D01*
X91758000Y-81736000D01*
X91998000Y-82066000D01*
G37*
%TO.C,R14*%
X109830500Y-85488742D02*
X109830500Y-85963258D01*
X108785500Y-85488742D02*
X108785500Y-85963258D01*
%TO.C,R5*%
X105830500Y-80261258D02*
X105830500Y-79786742D01*
X104785500Y-80261258D02*
X104785500Y-79786742D01*
%TO.C,R10*%
X92820742Y-98715500D02*
X93295258Y-98715500D01*
X92820742Y-99760500D02*
X93295258Y-99760500D01*
%TO.C,U2*%
X109418000Y-76976000D02*
X109418000Y-75476000D01*
X109418000Y-76976000D02*
X109418000Y-78476000D01*
X106198000Y-76976000D02*
X106198000Y-75476000D01*
X106198000Y-76976000D02*
X106198000Y-78476000D01*
X109623000Y-79403500D02*
X109293000Y-79163500D01*
X109623000Y-78923500D01*
X109623000Y-79403500D01*
G36*
X109623000Y-79403500D02*
G01*
X109293000Y-79163500D01*
X109623000Y-78923500D01*
X109623000Y-79403500D01*
G37*
D14*
%TO.C,U1*%
X95939236Y-83047000D02*
X100176751Y-83047000D01*
X100176764Y-89905000D02*
X95939249Y-89905000D01*
D15*
G36*
X94146400Y-83741502D02*
G01*
X93892400Y-83741502D01*
X93892400Y-83360502D01*
X94146400Y-83360502D01*
X94146400Y-83741502D01*
G37*
G36*
X102223600Y-89591498D02*
G01*
X101969600Y-89591498D01*
X101969600Y-89210498D01*
X102223600Y-89210498D01*
X102223600Y-89591498D01*
G37*
D13*
%TO.C,J1*%
X86608000Y-74972000D02*
X88158000Y-74972000D01*
X86608000Y-73872000D02*
X86608000Y-74972000D01*
X87108000Y-74472000D02*
X87108000Y-73872000D01*
X87108000Y-73872000D02*
X86608000Y-73872000D01*
X87333000Y-75972000D02*
X87333000Y-75372000D01*
X87333000Y-75372000D02*
X87933000Y-75672000D01*
X87933000Y-75672000D02*
X87333000Y-75972000D01*
X88158000Y-74972000D02*
X88158000Y-74472000D01*
X88158000Y-74472000D02*
X87108000Y-74472000D01*
X88308000Y-70672000D02*
X100808000Y-70672000D01*
X100958000Y-74972000D02*
X100958000Y-74472000D01*
X100958000Y-74472000D02*
X102008000Y-74472000D01*
X102008000Y-74472000D02*
X102008000Y-73872000D01*
X102008000Y-73872000D02*
X102508000Y-73872000D01*
X102508000Y-74972000D02*
X100958000Y-74972000D01*
X102508000Y-73872000D02*
X102508000Y-74972000D01*
%TD*%
M02*
