M48
; DRILL file {KiCad 9.0.2} date 2025-06-18T22:14:30+0900
; FORMAT={-:-/ absolute / metric / decimal}
; #@! TF.CreationDate,2025-06-18T22:14:30+09:00
; #@! TF.GenerationSoftware,Kicad,Pcbnew,9.0.2
; #@! TF.FileFunction,Plated,1,4,PTH
FMAT,2
METRIC
; #@! TA.AperFunction,Plated,PTH,ViaDrill
T1C0.300
%
G90
G05
T1
X87.558Y-75.476
X88.308Y-85.976
X89.308Y-78.976
X90.058Y-73.976
X90.716Y-78.731
X90.808Y-84.976
X90.808Y-87.976
X91.308Y-94.226
X91.308Y-96.726
X91.308Y-99.226
X91.558Y-73.976
X92.058Y-89.226
X92.708Y-78.99
X92.808Y-73.976
X93.408Y-78.99
X93.808Y-73.976
X94.308Y-78.476
X94.808Y-80.226
X94.808Y-94.226
X94.808Y-96.726
X95.058Y-73.976
X96.04Y-83.439
X96.308Y-83.976
X96.908Y-78.576
X98.308Y-86.226
X98.958Y-84.076
X99.558Y-124.476
X100.308Y-83.226
X101.058Y-124.476
X102.058Y-85.476
X102.308Y-84.726
X102.308Y-88.726
X102.558Y-87.226
X103.058Y-124.476
X103.558Y-88.726
X104.558Y-124.476
X105.308Y-85.726
X105.308Y-87.226
X105.808Y-76.576
X105.808Y-77.076
X105.808Y-77.576
X106.558Y-124.476
X107.558Y-72.226
X108.058Y-124.476
X109.808Y-76.476
X109.808Y-76.976
X109.808Y-77.476
X110.058Y-86.726
X111.558Y-78.226
M30
