%TF.GenerationSoftware,KiCad,Pcbnew,9.0.2*%
%TF.CreationDate,2025-06-18T22:14:32+09:00*%
%TF.ProjectId,LoRa_TM,4c6f5261-5f54-44d2-9e6b-696361645f70,rev?*%
%TF.SameCoordinates,Original*%
%TF.FileFunction,Copper,L4,Bot*%
%TF.FilePolarity,Positive*%
%FSLAX46Y46*%
G04 Gerber Fmt 4.6, Leading zero omitted, Abs format (unit mm)*
G04 Created by KiCad (PCBNEW 9.0.2) date 2025-06-18 22:14:32*
%MOMM*%
%LPD*%
G01*
G04 APERTURE LIST*
G04 Aperture macros list*
%AMRoundRect*
0 Rectangle with rounded corners*
0 $1 Rounding radius*
0 $2 $3 $4 $5 $6 $7 $8 $9 X,Y pos of 4 corners*
0 Add a 4 corners polygon primitive as box body*
4,1,4,$2,$3,$4,$5,$6,$7,$8,$9,$2,$3,0*
0 Add four circle primitives for the rounded corners*
1,1,$1+$1,$2,$3*
1,1,$1+$1,$4,$5*
1,1,$1+$1,$6,$7*
1,1,$1+$1,$8,$9*
0 Add four rect primitives between the rounded corners*
20,1,$1+$1,$2,$3,$4,$5,0*
20,1,$1+$1,$4,$5,$6,$7,0*
20,1,$1+$1,$6,$7,$8,$9,0*
20,1,$1+$1,$8,$9,$2,$3,0*%
G04 Aperture macros list end*
%TA.AperFunction,SMDPad,CuDef*%
%ADD10RoundRect,0.200000X-0.200000X-0.275000X0.200000X-0.275000X0.200000X0.275000X-0.200000X0.275000X0*%
%TD*%
%TA.AperFunction,SMDPad,CuDef*%
%ADD11RoundRect,0.097500X-0.227500X-0.702500X0.227500X-0.702500X0.227500X0.702500X-0.227500X0.702500X0*%
%TD*%
%TA.AperFunction,SMDPad,CuDef*%
%ADD12RoundRect,0.225000X0.250000X-0.225000X0.250000X0.225000X-0.250000X0.225000X-0.250000X-0.225000X0*%
%TD*%
%TA.AperFunction,SMDPad,CuDef*%
%ADD13RoundRect,0.225000X-0.250000X0.225000X-0.250000X-0.225000X0.250000X-0.225000X0.250000X0.225000X0*%
%TD*%
%TA.AperFunction,SMDPad,CuDef*%
%ADD14RoundRect,0.225000X-0.225000X-0.250000X0.225000X-0.250000X0.225000X0.250000X-0.225000X0.250000X0*%
%TD*%
%TA.AperFunction,SMDPad,CuDef*%
%ADD15RoundRect,0.112500X0.112500X-0.187500X0.112500X0.187500X-0.112500X0.187500X-0.112500X-0.187500X0*%
%TD*%
%TA.AperFunction,SMDPad,CuDef*%
%ADD16R,1.500000X5.080000*%
%TD*%
%TA.AperFunction,SMDPad,CuDef*%
%ADD17RoundRect,0.200000X0.200000X0.275000X-0.200000X0.275000X-0.200000X-0.275000X0.200000X-0.275000X0*%
%TD*%
%TA.AperFunction,SMDPad,CuDef*%
%ADD18RoundRect,0.150000X-0.512500X-0.150000X0.512500X-0.150000X0.512500X0.150000X-0.512500X0.150000X0*%
%TD*%
%TA.AperFunction,SMDPad,CuDef*%
%ADD19RoundRect,0.200000X-0.275000X0.200000X-0.275000X-0.200000X0.275000X-0.200000X0.275000X0.200000X0*%
%TD*%
%TA.AperFunction,SMDPad,CuDef*%
%ADD20RoundRect,0.200000X0.275000X-0.200000X0.275000X0.200000X-0.275000X0.200000X-0.275000X-0.200000X0*%
%TD*%
%TA.AperFunction,SMDPad,CuDef*%
%ADD21RoundRect,0.125000X0.125000X-0.600000X0.125000X0.600000X-0.125000X0.600000X-0.125000X-0.600000X0*%
%TD*%
%TA.AperFunction,HeatsinkPad*%
%ADD22R,1.890000X1.570000*%
%TD*%
%TA.AperFunction,SMDPad,CuDef*%
%ADD23R,1.473200X0.355600*%
%TD*%
%TA.AperFunction,SMDPad,CuDef*%
%ADD24R,1.000000X2.800000*%
%TD*%
%TA.AperFunction,SMDPad,CuDef*%
%ADD25R,0.600000X1.800000*%
%TD*%
%TA.AperFunction,ViaPad*%
%ADD26C,0.600000*%
%TD*%
%TA.AperFunction,ViaPad*%
%ADD27C,0.400000*%
%TD*%
%TA.AperFunction,ViaPad*%
%ADD28C,0.450000*%
%TD*%
%TA.AperFunction,Conductor*%
%ADD29C,0.200000*%
%TD*%
%TA.AperFunction,Conductor*%
%ADD30C,0.300000*%
%TD*%
G04 APERTURE END LIST*
D10*
%TO.P,R9,1*%
%TO.N,/LoRa_M1*%
X92233000Y-96726000D03*
%TO.P,R9,2*%
%TO.N,GND*%
X93883000Y-96726000D03*
%TD*%
D11*
%TO.P,L1,1*%
%TO.N,Net-(U2-SW)*%
X108133000Y-81286000D03*
%TO.P,L1,2*%
%TO.N,+3.3V*%
X109483000Y-81286000D03*
%TD*%
D12*
%TO.P,C6,2*%
%TO.N,GND*%
X110808000Y-76701000D03*
%TO.P,C6,1*%
%TO.N,+3.3V*%
X110808000Y-78251000D03*
%TD*%
D13*
%TO.P,C5,1*%
%TO.N,+3.3V*%
X104558000Y-85701000D03*
%TO.P,C5,2*%
%TO.N,GND*%
X104558000Y-87251000D03*
%TD*%
%TO.P,C2,1*%
%TO.N,+3.3V*%
X90058000Y-85701000D03*
%TO.P,C2,2*%
%TO.N,GND*%
X90058000Y-87251000D03*
%TD*%
D14*
%TO.P,C1,1*%
%TO.N,+5V*%
X107533000Y-72912000D03*
%TO.P,C1,2*%
%TO.N,GND*%
X109083000Y-72912000D03*
%TD*%
D15*
%TO.P,D1,1,K*%
%TO.N,+5V*%
X87558000Y-78776000D03*
%TO.P,D1,2,A*%
%TO.N,VBUS*%
X87558000Y-76676000D03*
%TD*%
D16*
%TO.P,J3,2,Ext*%
%TO.N,GND*%
X89821000Y-125117500D03*
X96196000Y-125117500D03*
%TD*%
D17*
%TO.P,R15,1*%
%TO.N,+3.3V*%
X93883000Y-94226000D03*
%TO.P,R15,2*%
%TO.N,/LoRa_RX*%
X92233000Y-94226000D03*
%TD*%
D10*
%TO.P,R1,2*%
%TO.N,GND*%
X96883000Y-77976000D03*
%TO.P,R1,1*%
%TO.N,Net-(J2-CC1)*%
X95233000Y-77976000D03*
%TD*%
D17*
%TO.P,R2,1*%
%TO.N,Net-(J2-CC2)*%
X90883000Y-77976000D03*
%TO.P,R2,2*%
%TO.N,GND*%
X89233000Y-77976000D03*
%TD*%
D13*
%TO.P,C7,1*%
%TO.N,+3.3V*%
X93058000Y-85701000D03*
%TO.P,C7,2*%
%TO.N,GND*%
X93058000Y-87251000D03*
%TD*%
%TO.P,C3,1*%
%TO.N,+3.3V*%
X103034000Y-85714000D03*
%TO.P,C3,2*%
%TO.N,GND*%
X103034000Y-87264000D03*
%TD*%
D17*
%TO.P,R3,1*%
%TO.N,GND*%
X104633000Y-83476000D03*
%TO.P,R3,2*%
%TO.N,/BOOT0*%
X102983000Y-83476000D03*
%TD*%
D13*
%TO.P,C4,1*%
%TO.N,+3.3V*%
X91558000Y-85701000D03*
%TO.P,C4,2*%
%TO.N,GND*%
X91558000Y-87251000D03*
%TD*%
D18*
%TO.P,U3,1,I/O1*%
%TO.N,/USB_D-*%
X91920500Y-81176000D03*
%TO.P,U3,2,GND*%
%TO.N,GND*%
X91920500Y-80226000D03*
%TO.P,U3,3,I/O2*%
%TO.N,/USB_CONN_D-*%
X91920500Y-79276000D03*
%TO.P,U3,4,I/O2*%
%TO.N,/USB_CONN_D+*%
X94195500Y-79276000D03*
%TO.P,U3,5,VBUS*%
%TO.N,VBUS*%
X94195500Y-80226000D03*
%TO.P,U3,6,I/O1*%
%TO.N,/USB_D+*%
X94195500Y-81176000D03*
%TD*%
D19*
%TO.P,R14,1*%
%TO.N,GND*%
X109308000Y-84901000D03*
%TO.P,R14,2*%
%TO.N,Net-(R14-Pad2)*%
X109308000Y-86551000D03*
%TD*%
D20*
%TO.P,R5,1*%
%TO.N,GND*%
X105308000Y-80849000D03*
%TO.P,R5,2*%
%TO.N,Net-(U2-VSET)*%
X105308000Y-79199000D03*
%TD*%
D10*
%TO.P,R10,1*%
%TO.N,/LoRa_M0*%
X92233000Y-99238000D03*
%TO.P,R10,2*%
%TO.N,GND*%
X93883000Y-99238000D03*
%TD*%
D21*
%TO.P,U2,1,VOS*%
%TO.N,+3.3V*%
X108783000Y-79126000D03*
%TO.P,U2,2,SW*%
%TO.N,Net-(U2-SW)*%
X108133000Y-79126000D03*
%TO.P,U2,3,MODE*%
%TO.N,GND*%
X107483000Y-79126000D03*
%TO.P,U2,4,VSET*%
%TO.N,Net-(U2-VSET)*%
X106833000Y-79126000D03*
%TO.P,U2,5,EN*%
%TO.N,+5V*%
X106833000Y-74826000D03*
%TO.P,U2,6,VIN*%
X107483000Y-74826000D03*
%TO.P,U2,7,NC*%
%TO.N,unconnected-(U2-NC-Pad7)*%
X108133000Y-74826000D03*
%TO.P,U2,8,GND*%
%TO.N,GND*%
X108783000Y-74826000D03*
D22*
%TO.P,U2,9*%
%TO.N,N/C*%
X107808000Y-76976000D03*
%TD*%
D23*
%TO.P,U1,1,PB8-BOOT0*%
%TO.N,/BOOT0*%
X100979000Y-83551000D03*
%TO.P,U1,2,PF0-OSC_IN*%
%TO.N,/LoRa_M0*%
X100979000Y-84201001D03*
%TO.P,U1,3,PF1-OSC_OUT*%
%TO.N,/LoRa_M1*%
X100979000Y-84850999D03*
%TO.P,U1,4,NRST*%
%TO.N,/NRST*%
X100979000Y-85501001D03*
%TO.P,U1,5,VDDA*%
%TO.N,+3.3V*%
X100979000Y-86150999D03*
%TO.P,U1,6,PA0*%
%TO.N,unconnected-(U1-PA0-Pad6)*%
X100979000Y-86800998D03*
%TO.P,U1,7,PA1*%
%TO.N,unconnected-(U1-PA1-Pad7)*%
X100979000Y-87450999D03*
%TO.P,U1,8,PA2*%
%TO.N,/LoRa_RX*%
X100979000Y-88100998D03*
%TO.P,U1,9,PA3*%
%TO.N,/LoRa_TX*%
X100979000Y-88750999D03*
%TO.P,U1,10,PA4*%
%TO.N,/LED_TX*%
X100979000Y-89400998D03*
%TO.P,U1,11,PA5*%
%TO.N,/LED_RX*%
X95137000Y-89401000D03*
%TO.P,U1,12,PA6*%
%TO.N,/LED_ON*%
X95137000Y-88751002D03*
%TO.P,U1,13,PA7*%
%TO.N,unconnected-(U1-PA7-Pad13)*%
X95137000Y-88101001D03*
%TO.P,U1,14,PB1*%
%TO.N,/LoRa_AUX*%
X95137000Y-87451002D03*
%TO.P,U1,15,VSS*%
%TO.N,GND*%
X95137000Y-86801001D03*
%TO.P,U1,16,VDD*%
%TO.N,+3.3V*%
X95137000Y-86151002D03*
%TO.P,U1,17,PA9/PA11*%
%TO.N,/USB_D-*%
X95137000Y-85501001D03*
%TO.P,U1,18,PA10/PA12*%
%TO.N,/USB_D+*%
X95137000Y-84851002D03*
%TO.P,U1,19,PA13*%
%TO.N,/SWDIO*%
X95137000Y-84201001D03*
%TO.P,U1,20,PA14*%
%TO.N,/SWCLK*%
X95137000Y-83551002D03*
%TD*%
D24*
%TO.P,J1,*%
%TO.N,*%
X87208000Y-71922000D03*
X101908000Y-71922000D03*
D25*
%TO.P,J1,1,Pin_1*%
%TO.N,unconnected-(J1-Pin_1-Pad1)*%
X88933000Y-75122000D03*
%TO.P,J1,2,Pin_2*%
%TO.N,+3.3V*%
X90183000Y-75122000D03*
%TO.P,J1,3,Pin_3*%
%TO.N,/SWDIO*%
X91433000Y-75122000D03*
%TO.P,J1,4,Pin_4*%
%TO.N,/SWCLK*%
X92683000Y-75122000D03*
%TO.P,J1,5,Pin_5*%
%TO.N,/NRST*%
X93933000Y-75122000D03*
%TO.P,J1,6,Pin_6*%
%TO.N,/BOOT0*%
X95183000Y-75122000D03*
%TO.P,J1,7,Pin_7*%
%TO.N,/LoRa_AUX*%
X96433000Y-75122000D03*
%TO.P,J1,8,Pin_8*%
%TO.N,/LoRa_M1*%
X97683000Y-75122000D03*
%TO.P,J1,9,Pin_9*%
%TO.N,/LoRa_M0*%
X98933000Y-75122000D03*
%TO.P,J1,10,Pin_10*%
%TO.N,GND*%
X100183000Y-75122000D03*
%TD*%
D26*
%TO.N,/LoRa_RX*%
X91308000Y-94226000D03*
D27*
X103558000Y-88726000D03*
%TO.N,/LoRa_TX*%
X102308000Y-88726000D03*
D28*
%TO.N,+3.3V*%
X111558000Y-78226000D03*
D26*
%TO.N,GND*%
X89308000Y-78976000D03*
X108058000Y-124476000D03*
X104558000Y-124476000D03*
X101058000Y-124476000D03*
%TO.N,/LED_TX*%
X106558000Y-124476000D03*
%TO.N,/LED_RX*%
X103058000Y-124476000D03*
%TO.N,/LED_ON*%
X99558000Y-124476000D03*
%TO.N,/LoRa_M1*%
X98308000Y-86226000D03*
%TO.N,/LoRa_M0*%
X98958000Y-84076000D03*
D28*
%TO.N,/USB_CONN_D-*%
X92708000Y-78989590D03*
%TO.N,/USB_CONN_D+*%
X93408000Y-78989590D03*
%TO.N,GND*%
X102308000Y-84726000D03*
X102558000Y-87226000D03*
%TO.N,+5V*%
X107558000Y-72226000D03*
D27*
%TO.N,GND*%
X96908000Y-78576000D03*
%TO.N,/BOOT0*%
X100308000Y-83226000D03*
X95058000Y-73976000D03*
%TO.N,/NRST*%
X93808000Y-73976000D03*
X102058000Y-85476000D03*
%TO.N,/SWCLK*%
X92808000Y-73976000D03*
%TO.N,/SWDIO*%
X91558000Y-73976000D03*
%TO.N,/SWCLK*%
X96039671Y-83439341D03*
%TO.N,/SWDIO*%
X96308000Y-83976000D03*
D28*
%TO.N,GND*%
X105808000Y-77576000D03*
X105808000Y-76576000D03*
X105808000Y-77076000D03*
X109808000Y-76476000D03*
X109808000Y-76976000D03*
X109808000Y-77476000D03*
D26*
%TO.N,Net-(R14-Pad2)*%
X110058000Y-86726000D03*
%TO.N,GND*%
X94808000Y-96726000D03*
%TO.N,+3.3V*%
X94808000Y-94226000D03*
%TO.N,/LoRa_AUX*%
X92058000Y-89226000D03*
%TO.N,/LoRa_M1*%
X91308000Y-96726000D03*
%TO.N,/LoRa_M0*%
X91308000Y-99226000D03*
D28*
%TO.N,+5V*%
X88308000Y-85976000D03*
%TO.N,VBUS*%
X87558000Y-75476000D03*
D27*
%TO.N,Net-(J2-CC1)*%
X94308000Y-78476000D03*
%TO.N,Net-(J2-CC2)*%
X90716428Y-78731000D03*
D26*
%TO.N,VBUS*%
X94808000Y-80226000D03*
D28*
%TO.N,+3.3V*%
X90058000Y-73976000D03*
D26*
%TO.N,GND*%
X105308000Y-87226000D03*
%TO.N,+3.3V*%
X105308000Y-85726000D03*
%TO.N,GND*%
X90808000Y-87976000D03*
%TO.N,+3.3V*%
X90808000Y-84976000D03*
%TD*%
D29*
%TO.N,/LoRa_RX*%
X92233000Y-94226000D02*
X91308000Y-94226000D01*
X102932998Y-88100998D02*
X103558000Y-88726000D01*
X100979000Y-88100998D02*
X102932998Y-88100998D01*
%TO.N,/LoRa_TX*%
X102308000Y-88726000D02*
X101003999Y-88726000D01*
X101003999Y-88726000D02*
X100979000Y-88750999D01*
D30*
%TO.N,+3.3V*%
X110808000Y-78251000D02*
X111533000Y-78251000D01*
X111533000Y-78251000D02*
X111558000Y-78226000D01*
X110433000Y-78251000D02*
X110808000Y-78251000D01*
X109483000Y-79201000D02*
X110433000Y-78251000D01*
X109483000Y-79201000D02*
X109558000Y-79126000D01*
X109483000Y-81286000D02*
X109483000Y-79201000D01*
X108783000Y-79126000D02*
X109558000Y-79126000D01*
D29*
%TO.N,GND*%
X89233000Y-78901000D02*
X89308000Y-78976000D01*
X89233000Y-77976000D02*
X89233000Y-78901000D01*
X105308000Y-80849000D02*
X106484999Y-80849000D01*
X106484999Y-80849000D02*
X107483000Y-79850999D01*
X107483000Y-79850999D02*
X107483000Y-79126000D01*
%TO.N,/LED_TX*%
X100459000Y-119127000D02*
X100459000Y-89920998D01*
X100459000Y-89920998D02*
X100979000Y-89400998D01*
X105808000Y-124476000D02*
X100459000Y-119127000D01*
X106558000Y-124476000D02*
X105808000Y-124476000D01*
%TO.N,/LED_RX*%
X102308000Y-124476000D02*
X103058000Y-124476000D01*
X100058000Y-122226000D02*
X102308000Y-124476000D01*
X100058000Y-95658900D02*
X100058000Y-122226000D01*
X94308000Y-89908900D02*
X100058000Y-95658900D01*
X94308000Y-89476000D02*
X94308000Y-89908900D01*
X94383000Y-89401000D02*
X94308000Y-89476000D01*
X95137000Y-89401000D02*
X94383000Y-89401000D01*
%TO.N,/LED_ON*%
X93808000Y-89143402D02*
X93808000Y-89976000D01*
X94200400Y-88751002D02*
X93808000Y-89143402D01*
X95137000Y-88751002D02*
X94200400Y-88751002D01*
X99558000Y-95726000D02*
X93808000Y-89976000D01*
X99558000Y-124476000D02*
X99558000Y-95726000D01*
%TO.N,/LoRa_M1*%
X98308000Y-84476000D02*
X98308000Y-86226000D01*
%TO.N,/LoRa_M0*%
X99083001Y-84201001D02*
X99808000Y-84201001D01*
X98958000Y-84076000D02*
X99083001Y-84201001D01*
%TO.N,/LoRa_M1*%
X98308000Y-76976000D02*
X97683000Y-76351000D01*
X98308000Y-84476000D02*
X98308000Y-76976000D01*
X98682999Y-84850999D02*
X98308000Y-84476000D01*
X97683000Y-76351000D02*
X97683000Y-75122000D01*
X100979000Y-84850999D02*
X98682999Y-84850999D01*
%TO.N,/USB_CONN_D+*%
X93694410Y-79276000D02*
X93408000Y-78989590D01*
X94195500Y-79276000D02*
X93694410Y-79276000D01*
%TO.N,/USB_CONN_D-*%
X92421590Y-79276000D02*
X92708000Y-78989590D01*
X91920500Y-79276000D02*
X92421590Y-79276000D01*
%TO.N,GND*%
X102596000Y-87264000D02*
X102558000Y-87226000D01*
X103034000Y-87264000D02*
X102596000Y-87264000D01*
D30*
%TO.N,+5V*%
X107558000Y-72887000D02*
X107533000Y-72912000D01*
X107558000Y-72226000D02*
X107558000Y-72887000D01*
D29*
%TO.N,GND*%
X96883000Y-78551000D02*
X96908000Y-78576000D01*
X96883000Y-77976000D02*
X96883000Y-78551000D01*
%TO.N,/LoRa_AUX*%
X96433000Y-75668100D02*
X96433000Y-75122000D01*
X97808000Y-77043100D02*
X96433000Y-75668100D01*
X97808000Y-85726000D02*
X97808000Y-77043100D01*
X96082998Y-87451002D02*
X97808000Y-85726000D01*
X95137000Y-87451002D02*
X96082998Y-87451002D01*
%TO.N,/LoRa_M0*%
X98933000Y-83326001D02*
X99808000Y-84201001D01*
X99808000Y-84201001D02*
X100979000Y-84201001D01*
X98933000Y-75122000D02*
X98933000Y-83326001D01*
%TO.N,/BOOT0*%
X100633000Y-83551000D02*
X100308000Y-83226000D01*
X100979000Y-83551000D02*
X100633000Y-83551000D01*
X95183000Y-74101000D02*
X95058000Y-73976000D01*
X95183000Y-75122000D02*
X95183000Y-74101000D01*
%TO.N,/NRST*%
X93808000Y-74997000D02*
X93933000Y-75122000D01*
X93808000Y-73976000D02*
X93808000Y-74997000D01*
X102032999Y-85501001D02*
X102058000Y-85476000D01*
X100979000Y-85501001D02*
X102032999Y-85501001D01*
%TO.N,/SWCLK*%
X92683000Y-74101000D02*
X92808000Y-73976000D01*
X92683000Y-75122000D02*
X92683000Y-74101000D01*
%TO.N,/SWDIO*%
X91433000Y-74101000D02*
X91558000Y-73976000D01*
X91433000Y-75122000D02*
X91433000Y-74101000D01*
%TO.N,/SWCLK*%
X96058000Y-83439342D02*
X96057999Y-83439341D01*
X96058000Y-83476000D02*
X96058000Y-83439342D01*
X96057999Y-83439341D02*
X96039671Y-83439341D01*
X95982998Y-83551002D02*
X96058000Y-83476000D01*
X95137000Y-83551002D02*
X95982998Y-83551002D01*
%TO.N,/SWDIO*%
X96082999Y-84201001D02*
X96308000Y-83976000D01*
X95137000Y-84201001D02*
X96082999Y-84201001D01*
%TO.N,/BOOT0*%
X102908000Y-83551000D02*
X102983000Y-83476000D01*
X100979000Y-83551000D02*
X102908000Y-83551000D01*
%TO.N,Net-(R14-Pad2)*%
X109883000Y-86551000D02*
X110058000Y-86726000D01*
X109308000Y-86551000D02*
X109883000Y-86551000D01*
%TO.N,GND*%
X93883000Y-96726000D02*
X94808000Y-96726000D01*
%TO.N,+3.3V*%
X93883000Y-94226000D02*
X94808000Y-94226000D01*
%TO.N,/LoRa_AUX*%
X92308000Y-89226000D02*
X92058000Y-89226000D01*
X94082998Y-87451002D02*
X94058000Y-87476000D01*
X94058000Y-87476000D02*
X92308000Y-89226000D01*
X95137000Y-87451002D02*
X94082998Y-87451002D01*
%TO.N,/LoRa_M1*%
X92233000Y-96726000D02*
X91308000Y-96726000D01*
%TO.N,/LoRa_M0*%
X91320000Y-99238000D02*
X91308000Y-99226000D01*
X92121000Y-99238000D02*
X91320000Y-99238000D01*
D30*
%TO.N,Net-(U2-VSET)*%
X105381000Y-79126000D02*
X105308000Y-79199000D01*
X106833000Y-79126000D02*
X105381000Y-79126000D01*
%TO.N,Net-(U2-SW)*%
X108133000Y-79126000D02*
X108133000Y-81286000D01*
%TO.N,+5V*%
X99808000Y-72726000D02*
X89308000Y-72726000D01*
X100808000Y-73726000D02*
X99808000Y-72726000D01*
X103058000Y-73726000D02*
X100808000Y-73726000D01*
X88134000Y-73900000D02*
X88134000Y-85802000D01*
X103872000Y-72912000D02*
X103058000Y-73726000D01*
X89308000Y-72726000D02*
X88134000Y-73900000D01*
X107533000Y-72912000D02*
X103872000Y-72912000D01*
X88134000Y-85802000D02*
X88308000Y-85976000D01*
X87558000Y-78776000D02*
X88033000Y-78776000D01*
%TO.N,VBUS*%
X87558000Y-75476000D02*
X87558000Y-76676000D01*
D29*
%TO.N,Net-(J2-CC1)*%
X94808000Y-77976000D02*
X94308000Y-78476000D01*
X95233000Y-77976000D02*
X94808000Y-77976000D01*
D30*
%TO.N,VBUS*%
X94808000Y-80226000D02*
X94195500Y-80226000D01*
D29*
%TO.N,+3.3V*%
X90058000Y-85701000D02*
X90808000Y-85701000D01*
%TO.N,GND*%
X90808000Y-87976000D02*
X90808000Y-87251000D01*
X90058000Y-87251000D02*
X90808000Y-87251000D01*
%TO.N,+3.3V*%
X90183000Y-74101000D02*
X90058000Y-73976000D01*
X90183000Y-75122000D02*
X90183000Y-74101000D01*
%TO.N,GND*%
X105283000Y-87251000D02*
X105308000Y-87226000D01*
X104558000Y-87251000D02*
X105283000Y-87251000D01*
%TO.N,+3.3V*%
X105283000Y-85701000D02*
X105308000Y-85726000D01*
X104558000Y-85701000D02*
X105283000Y-85701000D01*
X93508002Y-86151002D02*
X93058000Y-85701000D01*
X95137000Y-86151002D02*
X93508002Y-86151002D01*
%TO.N,GND*%
X93507999Y-86801001D02*
X93058000Y-87251000D01*
X95137000Y-86801001D02*
X93507999Y-86801001D01*
X90808000Y-87251000D02*
X93058000Y-87251000D01*
D30*
%TO.N,+5V*%
X107483000Y-74826000D02*
X106833000Y-74826000D01*
X107533000Y-72912000D02*
X107533000Y-74776000D01*
X107533000Y-74776000D02*
X107483000Y-74826000D01*
X107297000Y-72676000D02*
X107533000Y-72912000D01*
D29*
%TO.N,GND*%
X103034000Y-87264000D02*
X104545000Y-87264000D01*
X104545000Y-87264000D02*
X104558000Y-87251000D01*
%TO.N,+3.3V*%
X104558000Y-85701000D02*
X103047000Y-85701000D01*
X103047000Y-85701000D02*
X103034000Y-85714000D01*
X103034000Y-85714000D02*
X102597001Y-86150999D01*
X102597001Y-86150999D02*
X100979000Y-86150999D01*
%TO.N,/USB_D+*%
X93283000Y-82451000D02*
X93283000Y-83863401D01*
X94195500Y-81176000D02*
X94195500Y-81538500D01*
X94195500Y-81538500D02*
X93283000Y-82451000D01*
X94270601Y-84851002D02*
X95137000Y-84851002D01*
X93283000Y-83863401D02*
X94270601Y-84851002D01*
X95137000Y-84851002D02*
X95695800Y-84851002D01*
%TO.N,/USB_D-*%
X91920500Y-81538500D02*
X92833000Y-82451000D01*
X92833000Y-84049769D02*
X94113033Y-85329802D01*
X94965801Y-85329802D02*
X95137000Y-85501001D01*
X95137000Y-85501001D02*
X95695800Y-85501001D01*
X92833000Y-82451000D02*
X92833000Y-84049769D01*
X91920500Y-81176000D02*
X91920500Y-81538500D01*
X94113033Y-85329802D02*
X94965801Y-85329802D01*
%TO.N,+3.3V*%
X90808000Y-85701000D02*
X93058000Y-85701000D01*
X90808000Y-84976000D02*
X90808000Y-85701000D01*
%TO.N,Net-(J2-CC2)*%
X90883000Y-77976000D02*
X90883000Y-78564428D01*
X90883000Y-78564428D02*
X90716428Y-78731000D01*
%TD*%
%TA.AperFunction,Conductor*%
%TO.N,GND*%
G36*
X113751039Y-70245685D02*
G01*
X113796794Y-70298489D01*
X113808000Y-70350000D01*
X113808000Y-127602000D01*
X113788315Y-127669039D01*
X113735511Y-127714794D01*
X113684000Y-127726000D01*
X97570000Y-127726000D01*
X97502961Y-127706315D01*
X97457206Y-127653511D01*
X97446000Y-127602000D01*
X97446000Y-125367500D01*
X94946000Y-125367500D01*
X94946000Y-127602000D01*
X94926315Y-127669039D01*
X94873511Y-127714794D01*
X94822000Y-127726000D01*
X91195000Y-127726000D01*
X91127961Y-127706315D01*
X91082206Y-127653511D01*
X91071000Y-127602000D01*
X91071000Y-125367500D01*
X88571000Y-125367500D01*
X88571000Y-127602000D01*
X88551315Y-127669039D01*
X88498511Y-127714794D01*
X88447000Y-127726000D01*
X86432000Y-127726000D01*
X86364961Y-127706315D01*
X86319206Y-127653511D01*
X86308000Y-127602000D01*
X86308000Y-122529655D01*
X88571000Y-122529655D01*
X88571000Y-124867500D01*
X89571000Y-124867500D01*
X90071000Y-124867500D01*
X91071000Y-124867500D01*
X91071000Y-122529672D01*
X91070999Y-122529655D01*
X94946000Y-122529655D01*
X94946000Y-124867500D01*
X95946000Y-124867500D01*
X96446000Y-124867500D01*
X97446000Y-124867500D01*
X97446000Y-122529672D01*
X97445999Y-122529655D01*
X97439598Y-122470127D01*
X97439596Y-122470120D01*
X97389354Y-122335413D01*
X97389350Y-122335406D01*
X97303190Y-122220312D01*
X97303187Y-122220309D01*
X97188093Y-122134149D01*
X97188086Y-122134145D01*
X97053379Y-122083903D01*
X97053372Y-122083901D01*
X96993844Y-122077500D01*
X96446000Y-122077500D01*
X96446000Y-124867500D01*
X95946000Y-124867500D01*
X95946000Y-122077500D01*
X95398155Y-122077500D01*
X95338627Y-122083901D01*
X95338620Y-122083903D01*
X95203913Y-122134145D01*
X95203906Y-122134149D01*
X95088812Y-122220309D01*
X95088809Y-122220312D01*
X95002649Y-122335406D01*
X95002645Y-122335413D01*
X94952403Y-122470120D01*
X94952401Y-122470127D01*
X94946000Y-122529655D01*
X91070999Y-122529655D01*
X91064598Y-122470127D01*
X91064596Y-122470120D01*
X91014354Y-122335413D01*
X91014350Y-122335406D01*
X90928190Y-122220312D01*
X90928187Y-122220309D01*
X90813093Y-122134149D01*
X90813086Y-122134145D01*
X90678379Y-122083903D01*
X90678372Y-122083901D01*
X90618844Y-122077500D01*
X90071000Y-122077500D01*
X90071000Y-124867500D01*
X89571000Y-124867500D01*
X89571000Y-122077500D01*
X89023155Y-122077500D01*
X88963627Y-122083901D01*
X88963620Y-122083903D01*
X88828913Y-122134145D01*
X88828906Y-122134149D01*
X88713812Y-122220309D01*
X88713809Y-122220312D01*
X88627649Y-122335406D01*
X88627645Y-122335413D01*
X88577403Y-122470120D01*
X88577401Y-122470127D01*
X88571000Y-122529655D01*
X86308000Y-122529655D01*
X86308000Y-99147153D01*
X90507500Y-99147153D01*
X90507500Y-99304846D01*
X90538261Y-99459489D01*
X90538264Y-99459501D01*
X90598602Y-99605172D01*
X90598609Y-99605185D01*
X90686210Y-99736288D01*
X90686213Y-99736292D01*
X90797707Y-99847786D01*
X90797711Y-99847789D01*
X90928814Y-99935390D01*
X90928827Y-99935397D01*
X91074498Y-99995735D01*
X91074503Y-99995737D01*
X91229153Y-100026499D01*
X91229156Y-100026500D01*
X91229158Y-100026500D01*
X91386843Y-100026500D01*
X91411702Y-100021554D01*
X91462796Y-100011391D01*
X91532387Y-100017618D01*
X91574669Y-100045327D01*
X91597811Y-100068469D01*
X91597813Y-100068470D01*
X91597815Y-100068472D01*
X91743394Y-100156478D01*
X91905804Y-100207086D01*
X91976384Y-100213500D01*
X91976387Y-100213500D01*
X92489613Y-100213500D01*
X92489616Y-100213500D01*
X92560196Y-100207086D01*
X92722606Y-100156478D01*
X92868185Y-100068472D01*
X92970673Y-99965983D01*
X93031994Y-99932499D01*
X93101685Y-99937483D01*
X93146034Y-99965984D01*
X93248122Y-100068072D01*
X93393604Y-100156019D01*
X93393603Y-100156019D01*
X93555894Y-100206590D01*
X93555893Y-100206590D01*
X93626408Y-100212998D01*
X93626426Y-100212999D01*
X94133000Y-100212999D01*
X94139581Y-100212999D01*
X94210102Y-100206591D01*
X94210107Y-100206590D01*
X94372396Y-100156018D01*
X94517877Y-100068072D01*
X94638072Y-99947877D01*
X94726019Y-99802395D01*
X94776590Y-99640106D01*
X94783000Y-99569572D01*
X94783000Y-99488000D01*
X94133000Y-99488000D01*
X94133000Y-100212999D01*
X93626426Y-100212999D01*
X93632999Y-100212998D01*
X93633000Y-100212998D01*
X93633000Y-98988000D01*
X94133000Y-98988000D01*
X94782999Y-98988000D01*
X94782999Y-98906417D01*
X94776591Y-98835897D01*
X94776590Y-98835892D01*
X94726018Y-98673603D01*
X94638072Y-98528122D01*
X94517877Y-98407927D01*
X94372395Y-98319980D01*
X94372396Y-98319980D01*
X94210105Y-98269409D01*
X94210106Y-98269409D01*
X94139572Y-98263000D01*
X94133000Y-98263000D01*
X94133000Y-98988000D01*
X93633000Y-98988000D01*
X93633000Y-98263000D01*
X93632999Y-98262999D01*
X93626436Y-98263000D01*
X93626417Y-98263001D01*
X93555897Y-98269408D01*
X93555892Y-98269409D01*
X93393603Y-98319981D01*
X93248122Y-98407927D01*
X93248121Y-98407928D01*
X93146035Y-98510015D01*
X93084712Y-98543500D01*
X93015020Y-98538516D01*
X92970673Y-98510015D01*
X92868188Y-98407530D01*
X92722606Y-98319522D01*
X92560196Y-98268914D01*
X92560194Y-98268913D01*
X92560192Y-98268913D01*
X92510778Y-98264423D01*
X92489616Y-98262500D01*
X91976384Y-98262500D01*
X91957145Y-98264248D01*
X91905807Y-98268913D01*
X91743393Y-98319522D01*
X91597814Y-98407527D01*
X91597809Y-98407531D01*
X91594683Y-98410658D01*
X91533358Y-98444140D01*
X91482817Y-98444590D01*
X91386842Y-98425500D01*
X91229158Y-98425500D01*
X91229155Y-98425500D01*
X91074510Y-98456261D01*
X91074498Y-98456264D01*
X90928827Y-98516602D01*
X90928814Y-98516609D01*
X90797711Y-98604210D01*
X90797707Y-98604213D01*
X90686213Y-98715707D01*
X90686210Y-98715711D01*
X90598609Y-98846814D01*
X90598602Y-98846827D01*
X90538264Y-98992498D01*
X90538261Y-98992510D01*
X90507500Y-99147153D01*
X86308000Y-99147153D01*
X86308000Y-96647153D01*
X90507500Y-96647153D01*
X90507500Y-96804846D01*
X90538261Y-96959489D01*
X90538264Y-96959501D01*
X90598602Y-97105172D01*
X90598609Y-97105185D01*
X90686210Y-97236288D01*
X90686213Y-97236292D01*
X90797707Y-97347786D01*
X90797711Y-97347789D01*
X90928814Y-97435390D01*
X90928827Y-97435397D01*
X91074498Y-97495735D01*
X91074503Y-97495737D01*
X91229153Y-97526499D01*
X91229156Y-97526500D01*
X91229158Y-97526500D01*
X91386843Y-97526500D01*
X91414839Y-97520930D01*
X91472805Y-97509400D01*
X91542396Y-97515627D01*
X91584678Y-97543336D01*
X91597811Y-97556469D01*
X91597813Y-97556470D01*
X91597815Y-97556472D01*
X91743394Y-97644478D01*
X91905804Y-97695086D01*
X91976384Y-97701500D01*
X91976387Y-97701500D01*
X92489613Y-97701500D01*
X92489616Y-97701500D01*
X92560196Y-97695086D01*
X92722606Y-97644478D01*
X92868185Y-97556472D01*
X92970673Y-97453983D01*
X93031994Y-97420499D01*
X93101685Y-97425483D01*
X93146034Y-97453984D01*
X93248122Y-97556072D01*
X93393604Y-97644019D01*
X93393603Y-97644019D01*
X93555894Y-97694590D01*
X93555893Y-97694590D01*
X93626408Y-97700998D01*
X93626426Y-97700999D01*
X94133000Y-97700999D01*
X94139581Y-97700999D01*
X94210102Y-97694591D01*
X94210107Y-97694590D01*
X94372396Y-97644018D01*
X94517877Y-97556072D01*
X94638072Y-97435877D01*
X94726019Y-97290395D01*
X94776590Y-97128106D01*
X94783000Y-97057572D01*
X94783000Y-96976000D01*
X94133000Y-96976000D01*
X94133000Y-97700999D01*
X93626426Y-97700999D01*
X93632999Y-97700998D01*
X93633000Y-97700998D01*
X93633000Y-96476000D01*
X94133000Y-96476000D01*
X94782999Y-96476000D01*
X94782999Y-96394417D01*
X94776591Y-96323897D01*
X94776590Y-96323892D01*
X94726018Y-96161603D01*
X94638072Y-96016122D01*
X94517877Y-95895927D01*
X94372395Y-95807980D01*
X94372396Y-95807980D01*
X94210105Y-95757409D01*
X94210106Y-95757409D01*
X94139572Y-95751000D01*
X94133000Y-95751000D01*
X94133000Y-96476000D01*
X93633000Y-96476000D01*
X93633000Y-95751000D01*
X93632999Y-95750999D01*
X93626436Y-95751000D01*
X93626417Y-95751001D01*
X93555897Y-95757408D01*
X93555892Y-95757409D01*
X93393603Y-95807981D01*
X93248122Y-95895927D01*
X93248121Y-95895928D01*
X93146035Y-95998015D01*
X93084712Y-96031500D01*
X93015020Y-96026516D01*
X92970673Y-95998015D01*
X92868188Y-95895530D01*
X92722606Y-95807522D01*
X92560196Y-95756914D01*
X92560194Y-95756913D01*
X92560192Y-95756913D01*
X92510778Y-95752423D01*
X92489616Y-95750500D01*
X91976384Y-95750500D01*
X91957145Y-95752248D01*
X91905807Y-95756913D01*
X91743393Y-95807522D01*
X91597817Y-95895525D01*
X91584677Y-95908666D01*
X91523353Y-95942149D01*
X91472807Y-95942599D01*
X91386845Y-95925500D01*
X91386842Y-95925500D01*
X91229158Y-95925500D01*
X91229155Y-95925500D01*
X91074510Y-95956261D01*
X91074498Y-95956264D01*
X90928827Y-96016602D01*
X90928814Y-96016609D01*
X90797711Y-96104210D01*
X90797707Y-96104213D01*
X90686213Y-96215707D01*
X90686210Y-96215711D01*
X90598609Y-96346814D01*
X90598602Y-96346827D01*
X90538264Y-96492498D01*
X90538261Y-96492510D01*
X90507500Y-96647153D01*
X86308000Y-96647153D01*
X86308000Y-94147153D01*
X90507500Y-94147153D01*
X90507500Y-94304846D01*
X90538261Y-94459489D01*
X90538264Y-94459501D01*
X90598602Y-94605172D01*
X90598609Y-94605185D01*
X90686210Y-94736288D01*
X90686213Y-94736292D01*
X90797707Y-94847786D01*
X90797711Y-94847789D01*
X90928814Y-94935390D01*
X90928827Y-94935397D01*
X91074498Y-94995735D01*
X91074503Y-94995737D01*
X91229153Y-95026499D01*
X91229156Y-95026500D01*
X91229158Y-95026500D01*
X91386843Y-95026500D01*
X91414839Y-95020930D01*
X91472805Y-95009400D01*
X91542396Y-95015627D01*
X91584678Y-95043336D01*
X91597811Y-95056469D01*
X91597813Y-95056470D01*
X91597815Y-95056472D01*
X91743394Y-95144478D01*
X91905804Y-95195086D01*
X91976384Y-95201500D01*
X91976387Y-95201500D01*
X92489613Y-95201500D01*
X92489616Y-95201500D01*
X92560196Y-95195086D01*
X92722606Y-95144478D01*
X92868185Y-95056472D01*
X92915257Y-95009400D01*
X92970319Y-94954339D01*
X93031642Y-94920854D01*
X93101334Y-94925838D01*
X93145681Y-94954339D01*
X93247811Y-95056469D01*
X93247813Y-95056470D01*
X93247815Y-95056472D01*
X93393394Y-95144478D01*
X93555804Y-95195086D01*
X93626384Y-95201500D01*
X93626387Y-95201500D01*
X94139613Y-95201500D01*
X94139616Y-95201500D01*
X94210196Y-95195086D01*
X94372606Y-95144478D01*
X94518185Y-95056472D01*
X94531320Y-95043335D01*
X94592640Y-95009852D01*
X94643193Y-95009400D01*
X94729156Y-95026500D01*
X94729158Y-95026500D01*
X94886844Y-95026500D01*
X94886845Y-95026499D01*
X95041497Y-94995737D01*
X95154166Y-94949067D01*
X95187172Y-94935397D01*
X95187172Y-94935396D01*
X95187179Y-94935394D01*
X95318289Y-94847789D01*
X95429789Y-94736289D01*
X95517394Y-94605179D01*
X95577737Y-94459497D01*
X95608500Y-94304842D01*
X95608500Y-94147158D01*
X95608500Y-94147155D01*
X95608499Y-94147153D01*
X95577738Y-93992510D01*
X95577737Y-93992503D01*
X95577735Y-93992498D01*
X95517397Y-93846827D01*
X95517390Y-93846814D01*
X95429789Y-93715711D01*
X95429786Y-93715707D01*
X95318292Y-93604213D01*
X95318288Y-93604210D01*
X95187185Y-93516609D01*
X95187172Y-93516602D01*
X95041501Y-93456264D01*
X95041489Y-93456261D01*
X94886845Y-93425500D01*
X94886842Y-93425500D01*
X94729158Y-93425500D01*
X94729153Y-93425500D01*
X94643192Y-93442599D01*
X94573601Y-93436372D01*
X94531319Y-93408662D01*
X94518185Y-93395528D01*
X94372606Y-93307522D01*
X94210196Y-93256914D01*
X94210194Y-93256913D01*
X94210192Y-93256913D01*
X94160778Y-93252423D01*
X94139616Y-93250500D01*
X93626384Y-93250500D01*
X93607145Y-93252248D01*
X93555807Y-93256913D01*
X93393393Y-93307522D01*
X93247811Y-93395530D01*
X93247810Y-93395531D01*
X93145681Y-93497661D01*
X93084358Y-93531146D01*
X93014666Y-93526162D01*
X92970319Y-93497661D01*
X92868188Y-93395530D01*
X92722606Y-93307522D01*
X92560196Y-93256914D01*
X92560194Y-93256913D01*
X92560192Y-93256913D01*
X92510778Y-93252423D01*
X92489616Y-93250500D01*
X91976384Y-93250500D01*
X91957145Y-93252248D01*
X91905807Y-93256913D01*
X91743393Y-93307522D01*
X91597817Y-93395525D01*
X91584677Y-93408666D01*
X91523353Y-93442149D01*
X91472807Y-93442599D01*
X91386845Y-93425500D01*
X91386842Y-93425500D01*
X91229158Y-93425500D01*
X91229155Y-93425500D01*
X91074510Y-93456261D01*
X91074498Y-93456264D01*
X90928827Y-93516602D01*
X90928814Y-93516609D01*
X90797711Y-93604210D01*
X90797707Y-93604213D01*
X90686213Y-93715707D01*
X90686210Y-93715711D01*
X90598609Y-93846814D01*
X90598602Y-93846827D01*
X90538264Y-93992498D01*
X90538261Y-93992510D01*
X90507500Y-94147153D01*
X86308000Y-94147153D01*
X86308000Y-87524322D01*
X89083001Y-87524322D01*
X89093144Y-87623607D01*
X89146452Y-87784481D01*
X89146457Y-87784492D01*
X89235424Y-87928728D01*
X89235427Y-87928732D01*
X89355267Y-88048572D01*
X89355271Y-88048575D01*
X89499507Y-88137542D01*
X89499518Y-88137547D01*
X89660393Y-88190855D01*
X89759683Y-88200999D01*
X90308000Y-88200999D01*
X90356308Y-88200999D01*
X90356322Y-88200998D01*
X90455607Y-88190855D01*
X90616481Y-88137547D01*
X90616488Y-88137544D01*
X90742902Y-88059570D01*
X90810295Y-88041129D01*
X90873098Y-88059570D01*
X90999511Y-88137544D01*
X90999518Y-88137547D01*
X91160393Y-88190855D01*
X91259683Y-88200999D01*
X91307999Y-88200998D01*
X91308000Y-88200998D01*
X91308000Y-87501000D01*
X90308000Y-87501000D01*
X90308000Y-88200999D01*
X89759683Y-88200999D01*
X89807999Y-88200998D01*
X89808000Y-88200998D01*
X89808000Y-87501000D01*
X89083001Y-87501000D01*
X89083001Y-87524322D01*
X86308000Y-87524322D01*
X86308000Y-73885582D01*
X86327685Y-73818543D01*
X86380489Y-73772788D01*
X86449647Y-73762844D01*
X86475327Y-73769398D01*
X86600517Y-73816091D01*
X86660127Y-73822500D01*
X87359500Y-73822499D01*
X87426539Y-73842183D01*
X87472294Y-73894987D01*
X87483500Y-73946499D01*
X87483500Y-74649341D01*
X87463815Y-74716380D01*
X87411011Y-74762135D01*
X87383693Y-74770958D01*
X87346383Y-74778379D01*
X87346381Y-74778380D01*
X87214349Y-74833069D01*
X87214340Y-74833074D01*
X87095521Y-74912467D01*
X87095517Y-74912470D01*
X86994470Y-75013517D01*
X86994467Y-75013521D01*
X86915074Y-75132340D01*
X86915069Y-75132349D01*
X86860381Y-75264379D01*
X86860379Y-75264385D01*
X86832500Y-75404542D01*
X86832500Y-75404545D01*
X86832500Y-75547455D01*
X86832500Y-75547457D01*
X86832499Y-75547457D01*
X86860379Y-75687614D01*
X86860381Y-75687620D01*
X86898061Y-75778587D01*
X86907500Y-75826040D01*
X86907500Y-76160060D01*
X86890232Y-76223181D01*
X86878447Y-76243108D01*
X86878446Y-76243111D01*
X86878445Y-76243113D01*
X86853669Y-76328393D01*
X86835234Y-76391847D01*
X86835234Y-76391849D01*
X86832500Y-76426589D01*
X86832500Y-76925393D01*
X86832501Y-76925415D01*
X86835234Y-76960152D01*
X86835234Y-76960155D01*
X86835235Y-76960156D01*
X86878445Y-77108887D01*
X86900116Y-77145530D01*
X86957282Y-77242194D01*
X86957289Y-77242203D01*
X87066796Y-77351710D01*
X87066800Y-77351713D01*
X87066802Y-77351715D01*
X87200113Y-77430555D01*
X87348844Y-77473765D01*
X87369227Y-77475369D01*
X87434516Y-77500252D01*
X87475988Y-77556482D01*
X87483500Y-77598987D01*
X87483500Y-77853013D01*
X87463815Y-77920052D01*
X87411011Y-77965807D01*
X87369228Y-77976631D01*
X87348847Y-77978234D01*
X87348844Y-77978235D01*
X87200113Y-78021445D01*
X87200111Y-78021445D01*
X87200111Y-78021446D01*
X87066805Y-78100282D01*
X87066796Y-78100289D01*
X86957289Y-78209796D01*
X86957282Y-78209805D01*
X86895909Y-78313583D01*
X86878445Y-78343113D01*
X86854347Y-78426060D01*
X86835234Y-78491847D01*
X86835234Y-78491849D01*
X86832500Y-78526589D01*
X86832500Y-79025393D01*
X86832501Y-79025415D01*
X86835234Y-79060152D01*
X86835234Y-79060155D01*
X86835235Y-79060156D01*
X86878445Y-79208887D01*
X86878446Y-79208888D01*
X86957282Y-79342194D01*
X86957289Y-79342203D01*
X87066796Y-79451710D01*
X87066805Y-79451717D01*
X87095664Y-79468784D01*
X87200113Y-79530555D01*
X87348844Y-79573765D01*
X87369227Y-79575369D01*
X87434516Y-79600252D01*
X87475988Y-79656482D01*
X87483500Y-79698987D01*
X87483500Y-85866069D01*
X87483500Y-85866071D01*
X87483499Y-85866071D01*
X87507622Y-85987336D01*
X87507622Y-85987339D01*
X87507623Y-85987339D01*
X87508498Y-85991742D01*
X87508499Y-85991744D01*
X87520162Y-86019900D01*
X87557535Y-86110128D01*
X87605337Y-86181671D01*
X87616795Y-86203107D01*
X87665069Y-86319649D01*
X87665074Y-86319659D01*
X87744467Y-86438478D01*
X87744470Y-86438482D01*
X87845517Y-86539529D01*
X87845521Y-86539532D01*
X87964340Y-86618925D01*
X87964346Y-86618928D01*
X87964347Y-86618929D01*
X88096380Y-86673619D01*
X88096384Y-86673619D01*
X88096385Y-86673620D01*
X88236542Y-86701500D01*
X88236545Y-86701500D01*
X88379457Y-86701500D01*
X88473751Y-86682742D01*
X88519620Y-86673619D01*
X88651653Y-86618929D01*
X88770479Y-86539532D01*
X88871532Y-86438479D01*
X88950929Y-86319653D01*
X88957551Y-86303665D01*
X88963674Y-86296065D01*
X88966196Y-86286635D01*
X88985234Y-86269308D01*
X89001388Y-86249261D01*
X89010651Y-86246177D01*
X89017870Y-86239608D01*
X89043251Y-86235325D01*
X89067681Y-86227193D01*
X89077141Y-86229607D01*
X89086766Y-86227983D01*
X89110435Y-86238103D01*
X89135381Y-86244469D01*
X89143745Y-86252345D01*
X89151009Y-86255451D01*
X89169167Y-86276282D01*
X89174765Y-86281554D01*
X89176257Y-86283756D01*
X89235032Y-86379044D01*
X89253009Y-86397021D01*
X89259631Y-86406793D01*
X89266831Y-86429276D01*
X89278145Y-86449995D01*
X89277291Y-86461933D01*
X89280942Y-86473333D01*
X89274845Y-86496137D01*
X89273161Y-86519687D01*
X89265263Y-86531975D01*
X89262896Y-86540832D01*
X89254889Y-86548118D01*
X89244663Y-86564031D01*
X89235428Y-86573265D01*
X89235424Y-86573271D01*
X89146457Y-86717507D01*
X89146452Y-86717518D01*
X89093144Y-86878393D01*
X89083000Y-86977677D01*
X89083000Y-87001000D01*
X92934000Y-87001000D01*
X93001039Y-87020685D01*
X93046794Y-87073489D01*
X93058000Y-87125000D01*
X93058000Y-87377000D01*
X93038315Y-87444039D01*
X92985511Y-87489794D01*
X92934000Y-87501000D01*
X91808000Y-87501000D01*
X91808000Y-88200999D01*
X91840133Y-88200999D01*
X91987557Y-88180268D01*
X92116481Y-88137547D01*
X92116488Y-88137544D01*
X92242902Y-88059570D01*
X92310295Y-88041129D01*
X92373099Y-88059571D01*
X92395546Y-88073417D01*
X92442269Y-88125365D01*
X92453490Y-88194328D01*
X92425646Y-88258410D01*
X92418128Y-88266635D01*
X92285819Y-88398944D01*
X92224496Y-88432429D01*
X92173947Y-88432880D01*
X92136846Y-88425500D01*
X92136842Y-88425500D01*
X91979158Y-88425500D01*
X91869566Y-88447299D01*
X91869547Y-88447302D01*
X91824510Y-88456261D01*
X91824498Y-88456264D01*
X91678827Y-88516602D01*
X91678814Y-88516609D01*
X91547711Y-88604210D01*
X91547707Y-88604213D01*
X91436213Y-88715707D01*
X91436210Y-88715711D01*
X91348609Y-88846814D01*
X91348602Y-88846827D01*
X91288264Y-88992498D01*
X91288261Y-88992510D01*
X91257500Y-89147153D01*
X91257500Y-89304846D01*
X91288261Y-89459489D01*
X91288264Y-89459501D01*
X91348602Y-89605172D01*
X91348609Y-89605185D01*
X91436210Y-89736288D01*
X91436213Y-89736292D01*
X91547707Y-89847786D01*
X91547711Y-89847789D01*
X91678814Y-89935390D01*
X91678827Y-89935397D01*
X91824498Y-89995735D01*
X91824503Y-89995737D01*
X91979153Y-90026499D01*
X91979156Y-90026500D01*
X91979158Y-90026500D01*
X92136844Y-90026500D01*
X92136845Y-90026499D01*
X92291497Y-89995737D01*
X92434883Y-89936345D01*
X92437172Y-89935397D01*
X92437172Y-89935396D01*
X92437179Y-89935394D01*
X92568289Y-89847789D01*
X92679789Y-89736289D01*
X92713203Y-89686281D01*
X92739138Y-89647467D01*
X92754557Y-89628678D01*
X92756574Y-89626661D01*
X92788520Y-89594716D01*
X92788521Y-89594713D01*
X92995820Y-89387414D01*
X93057142Y-89353930D01*
X93126834Y-89358914D01*
X93182767Y-89400786D01*
X93207184Y-89466250D01*
X93207500Y-89475096D01*
X93207500Y-89889330D01*
X93207499Y-89889348D01*
X93207499Y-90055054D01*
X93207498Y-90055054D01*
X93248423Y-90207785D01*
X93277358Y-90257900D01*
X93277359Y-90257904D01*
X93277360Y-90257904D01*
X93327479Y-90344714D01*
X93327481Y-90344717D01*
X93446349Y-90463585D01*
X93446355Y-90463590D01*
X98921181Y-95938416D01*
X98954666Y-95999739D01*
X98957500Y-96026097D01*
X98957500Y-123896234D01*
X98937815Y-123963273D01*
X98936602Y-123965125D01*
X98848609Y-124096814D01*
X98848602Y-124096827D01*
X98788264Y-124242498D01*
X98788261Y-124242510D01*
X98757500Y-124397153D01*
X98757500Y-124554846D01*
X98788261Y-124709489D01*
X98788264Y-124709501D01*
X98848602Y-124855172D01*
X98848609Y-124855185D01*
X98936210Y-124986288D01*
X98936213Y-124986292D01*
X99047707Y-125097786D01*
X99047711Y-125097789D01*
X99178814Y-125185390D01*
X99178827Y-125185397D01*
X99324498Y-125245735D01*
X99324503Y-125245737D01*
X99479153Y-125276499D01*
X99479156Y-125276500D01*
X99479158Y-125276500D01*
X99636844Y-125276500D01*
X99636845Y-125276499D01*
X99791497Y-125245737D01*
X99937179Y-125185394D01*
X100068289Y-125097789D01*
X100179789Y-124986289D01*
X100267394Y-124855179D01*
X100327737Y-124709497D01*
X100358500Y-124554842D01*
X100358500Y-124397158D01*
X100358500Y-124397155D01*
X100358499Y-124397153D01*
X100327738Y-124242510D01*
X100327737Y-124242503D01*
X100327735Y-124242498D01*
X100267397Y-124096827D01*
X100267390Y-124096814D01*
X100179398Y-123965125D01*
X100158520Y-123898447D01*
X100158500Y-123896234D01*
X100158500Y-123475097D01*
X100178185Y-123408058D01*
X100230989Y-123362303D01*
X100300147Y-123352359D01*
X100363703Y-123381384D01*
X100370179Y-123387414D01*
X101939284Y-124956520D01*
X101939286Y-124956521D01*
X101939290Y-124956524D01*
X102076209Y-125035573D01*
X102076216Y-125035577D01*
X102228943Y-125076501D01*
X102228945Y-125076501D01*
X102394654Y-125076501D01*
X102394670Y-125076500D01*
X102478234Y-125076500D01*
X102545273Y-125096185D01*
X102547125Y-125097398D01*
X102678814Y-125185390D01*
X102678827Y-125185397D01*
X102824498Y-125245735D01*
X102824503Y-125245737D01*
X102979153Y-125276499D01*
X102979156Y-125276500D01*
X102979158Y-125276500D01*
X103136844Y-125276500D01*
X103136845Y-125276499D01*
X103291497Y-125245737D01*
X103437179Y-125185394D01*
X103568289Y-125097789D01*
X103679789Y-124986289D01*
X103767394Y-124855179D01*
X103827737Y-124709497D01*
X103858500Y-124554842D01*
X103858500Y-124397158D01*
X103858500Y-124397155D01*
X103858499Y-124397153D01*
X103827738Y-124242510D01*
X103827737Y-124242503D01*
X103827735Y-124242498D01*
X103767397Y-124096827D01*
X103767390Y-124096814D01*
X103679789Y-123965711D01*
X103679786Y-123965707D01*
X103568292Y-123854213D01*
X103568288Y-123854210D01*
X103437185Y-123766609D01*
X103437172Y-123766602D01*
X103291501Y-123706264D01*
X103291489Y-123706261D01*
X103136845Y-123675500D01*
X103136842Y-123675500D01*
X102979158Y-123675500D01*
X102979155Y-123675500D01*
X102824510Y-123706261D01*
X102824498Y-123706264D01*
X102678827Y-123766602D01*
X102678814Y-123766609D01*
X102624972Y-123802586D01*
X102558294Y-123823464D01*
X102490914Y-123804979D01*
X102468400Y-123787165D01*
X100694819Y-122013583D01*
X100661334Y-121952260D01*
X100658500Y-121925902D01*
X100658500Y-120475097D01*
X100678185Y-120408058D01*
X100730989Y-120362303D01*
X100800147Y-120352359D01*
X100863703Y-120381384D01*
X100870181Y-120387416D01*
X105323139Y-124840374D01*
X105323149Y-124840385D01*
X105327479Y-124844715D01*
X105327480Y-124844716D01*
X105439284Y-124956520D01*
X105439286Y-124956521D01*
X105439290Y-124956524D01*
X105576209Y-125035573D01*
X105576216Y-125035577D01*
X105688019Y-125065534D01*
X105728942Y-125076500D01*
X105728943Y-125076500D01*
X105978234Y-125076500D01*
X106045273Y-125096185D01*
X106047125Y-125097398D01*
X106178814Y-125185390D01*
X106178827Y-125185397D01*
X106324498Y-125245735D01*
X106324503Y-125245737D01*
X106479153Y-125276499D01*
X106479156Y-125276500D01*
X106479158Y-125276500D01*
X106636844Y-125276500D01*
X106636845Y-125276499D01*
X106791497Y-125245737D01*
X106937179Y-125185394D01*
X107068289Y-125097789D01*
X107179789Y-124986289D01*
X107267394Y-124855179D01*
X107327737Y-124709497D01*
X107358500Y-124554842D01*
X107358500Y-124397158D01*
X107358500Y-124397155D01*
X107358499Y-124397153D01*
X107327738Y-124242510D01*
X107327737Y-124242503D01*
X107327735Y-124242498D01*
X107267397Y-124096827D01*
X107267390Y-124096814D01*
X107179789Y-123965711D01*
X107179786Y-123965707D01*
X107068292Y-123854213D01*
X107068288Y-123854210D01*
X106937185Y-123766609D01*
X106937172Y-123766602D01*
X106791501Y-123706264D01*
X106791489Y-123706261D01*
X106636845Y-123675500D01*
X106636842Y-123675500D01*
X106479158Y-123675500D01*
X106479155Y-123675500D01*
X106324510Y-123706261D01*
X106324498Y-123706264D01*
X106178827Y-123766602D01*
X106178814Y-123766609D01*
X106124972Y-123802586D01*
X106058294Y-123823464D01*
X105990914Y-123804979D01*
X105968400Y-123787165D01*
X101095819Y-118914584D01*
X101062334Y-118853261D01*
X101059500Y-118826903D01*
X101059500Y-90221095D01*
X101068144Y-90191654D01*
X101074668Y-90161668D01*
X101078422Y-90156652D01*
X101079185Y-90154056D01*
X101095819Y-90133414D01*
X101113617Y-90115616D01*
X101174940Y-90082131D01*
X101201298Y-90079297D01*
X101763471Y-90079297D01*
X101763472Y-90079297D01*
X101823083Y-90072889D01*
X101957931Y-90022594D01*
X102073146Y-89936344D01*
X102159396Y-89821129D01*
X102209691Y-89686281D01*
X102216100Y-89626671D01*
X102216100Y-89550500D01*
X102235785Y-89483461D01*
X102288589Y-89437706D01*
X102340100Y-89426500D01*
X102376995Y-89426500D01*
X102468041Y-89408389D01*
X102512328Y-89399580D01*
X102639811Y-89346775D01*
X102754542Y-89270114D01*
X102754545Y-89270111D01*
X102845319Y-89179338D01*
X102906642Y-89145853D01*
X102976334Y-89150837D01*
X103020681Y-89179338D01*
X103111454Y-89270111D01*
X103111458Y-89270114D01*
X103226182Y-89346771D01*
X103226195Y-89346778D01*
X103324303Y-89387415D01*
X103353672Y-89399580D01*
X103353676Y-89399580D01*
X103353677Y-89399581D01*
X103489004Y-89426500D01*
X103489007Y-89426500D01*
X103626995Y-89426500D01*
X103718041Y-89408389D01*
X103762328Y-89399580D01*
X103889811Y-89346775D01*
X104004542Y-89270114D01*
X104102114Y-89172542D01*
X104178775Y-89057811D01*
X104185610Y-89041311D01*
X104205828Y-88992498D01*
X104231580Y-88930328D01*
X104258500Y-88794993D01*
X104258500Y-88657007D01*
X104258500Y-88657004D01*
X104231581Y-88521677D01*
X104231580Y-88521676D01*
X104231580Y-88521672D01*
X104208404Y-88465719D01*
X104178778Y-88394195D01*
X104178769Y-88394179D01*
X104178575Y-88393888D01*
X104178519Y-88393712D01*
X104175902Y-88388814D01*
X104176830Y-88388317D01*
X104157698Y-88327211D01*
X104176184Y-88259831D01*
X104228163Y-88213141D01*
X104281676Y-88200999D01*
X104808000Y-88200999D01*
X104856308Y-88200999D01*
X104856322Y-88200998D01*
X104955607Y-88190855D01*
X105116481Y-88137547D01*
X105116492Y-88137542D01*
X105260728Y-88048575D01*
X105260732Y-88048572D01*
X105380572Y-87928732D01*
X105380575Y-87928728D01*
X105469542Y-87784492D01*
X105469547Y-87784481D01*
X105522855Y-87623606D01*
X105532999Y-87524322D01*
X105533000Y-87524309D01*
X105533000Y-87501000D01*
X104808000Y-87501000D01*
X104808000Y-88200999D01*
X104281676Y-88200999D01*
X104307999Y-88200998D01*
X104308000Y-88200998D01*
X104308000Y-87501000D01*
X104119614Y-87501000D01*
X104100996Y-87511166D01*
X104074638Y-87514000D01*
X103158000Y-87514000D01*
X103090961Y-87494315D01*
X103045206Y-87441511D01*
X103034000Y-87390000D01*
X103034000Y-87138000D01*
X103053685Y-87070961D01*
X103106489Y-87025206D01*
X103158000Y-87014000D01*
X103472386Y-87014000D01*
X103491004Y-87003834D01*
X103517362Y-87001000D01*
X105532999Y-87001000D01*
X105532999Y-86977692D01*
X105532998Y-86977677D01*
X105522855Y-86878392D01*
X105469547Y-86717518D01*
X105469544Y-86717512D01*
X105449255Y-86684619D01*
X105430814Y-86617227D01*
X105451735Y-86550563D01*
X105505377Y-86505793D01*
X105530602Y-86497904D01*
X105541497Y-86495737D01*
X105687179Y-86435394D01*
X105818289Y-86347789D01*
X105871692Y-86294386D01*
X108332500Y-86294386D01*
X108332500Y-86807613D01*
X108338913Y-86878192D01*
X108338913Y-86878194D01*
X108338914Y-86878196D01*
X108385179Y-87026668D01*
X108389522Y-87040606D01*
X108477530Y-87186188D01*
X108597811Y-87306469D01*
X108597813Y-87306470D01*
X108597815Y-87306472D01*
X108743394Y-87394478D01*
X108905804Y-87445086D01*
X108976384Y-87451500D01*
X108976387Y-87451500D01*
X109639612Y-87451500D01*
X109639616Y-87451500D01*
X109673216Y-87448446D01*
X109731890Y-87457376D01*
X109810155Y-87489794D01*
X109824503Y-87495737D01*
X109916317Y-87514000D01*
X109979153Y-87526499D01*
X109979156Y-87526500D01*
X109979158Y-87526500D01*
X110136844Y-87526500D01*
X110136845Y-87526499D01*
X110291497Y-87495737D01*
X110437179Y-87435394D01*
X110568289Y-87347789D01*
X110679789Y-87236289D01*
X110767394Y-87105179D01*
X110827737Y-86959497D01*
X110858500Y-86804842D01*
X110858500Y-86647158D01*
X110858500Y-86647155D01*
X110858499Y-86647153D01*
X110827737Y-86492503D01*
X110827735Y-86492498D01*
X110767397Y-86346827D01*
X110767390Y-86346814D01*
X110679789Y-86215711D01*
X110679786Y-86215707D01*
X110568292Y-86104213D01*
X110568288Y-86104210D01*
X110437185Y-86016609D01*
X110437172Y-86016602D01*
X110291501Y-85956264D01*
X110291491Y-85956261D01*
X110187858Y-85935647D01*
X110171101Y-85926881D01*
X110152623Y-85922862D01*
X110127586Y-85904119D01*
X110125947Y-85903262D01*
X110124369Y-85901711D01*
X110035984Y-85813326D01*
X110002499Y-85752003D01*
X110007483Y-85682311D01*
X110035985Y-85637963D01*
X110138071Y-85535878D01*
X110138072Y-85535877D01*
X110226019Y-85390395D01*
X110276590Y-85228106D01*
X110283000Y-85157572D01*
X110283000Y-85151000D01*
X108333001Y-85151000D01*
X108333001Y-85157582D01*
X108339408Y-85228102D01*
X108339409Y-85228107D01*
X108389981Y-85390396D01*
X108477927Y-85535877D01*
X108580015Y-85637965D01*
X108613500Y-85699288D01*
X108608516Y-85768980D01*
X108580015Y-85813327D01*
X108477531Y-85915810D01*
X108477530Y-85915811D01*
X108389522Y-86061393D01*
X108338913Y-86223807D01*
X108332500Y-86294386D01*
X105871692Y-86294386D01*
X105929789Y-86236289D01*
X105934254Y-86229607D01*
X105938882Y-86222682D01*
X106017390Y-86105185D01*
X106017390Y-86105184D01*
X106017394Y-86105179D01*
X106077737Y-85959497D01*
X106108500Y-85804842D01*
X106108500Y-85647158D01*
X106108500Y-85647155D01*
X106108499Y-85647153D01*
X106088749Y-85547864D01*
X106077737Y-85492503D01*
X106071425Y-85477265D01*
X106017397Y-85346827D01*
X106017390Y-85346814D01*
X105929789Y-85215711D01*
X105929786Y-85215707D01*
X105818292Y-85104213D01*
X105818288Y-85104210D01*
X105687185Y-85016609D01*
X105687172Y-85016602D01*
X105541501Y-84956264D01*
X105541489Y-84956261D01*
X105386845Y-84925500D01*
X105386842Y-84925500D01*
X105332560Y-84925500D01*
X105267461Y-84906384D01*
X105267191Y-84906823D01*
X105265589Y-84905835D01*
X105265521Y-84905815D01*
X105265293Y-84905652D01*
X105116705Y-84814001D01*
X105116699Y-84813998D01*
X105116697Y-84813997D01*
X105081760Y-84802420D01*
X104955709Y-84760651D01*
X104856346Y-84750500D01*
X104259662Y-84750500D01*
X104259644Y-84750501D01*
X104160292Y-84760650D01*
X104160289Y-84760651D01*
X103999305Y-84813996D01*
X103999300Y-84813998D01*
X103850558Y-84905744D01*
X103783165Y-84924184D01*
X103720364Y-84905743D01*
X103592705Y-84827001D01*
X103592699Y-84826998D01*
X103592697Y-84826997D01*
X103556426Y-84814978D01*
X103431709Y-84773651D01*
X103332346Y-84763500D01*
X102735662Y-84763500D01*
X102735644Y-84763501D01*
X102636292Y-84773650D01*
X102636289Y-84773651D01*
X102475305Y-84826996D01*
X102475295Y-84827001D01*
X102467541Y-84831784D01*
X102462088Y-84833275D01*
X102457952Y-84837127D01*
X102428764Y-84842392D01*
X102400148Y-84850222D01*
X102393293Y-84848792D01*
X102389193Y-84849532D01*
X102354996Y-84840804D01*
X102292646Y-84814978D01*
X102238243Y-84771137D01*
X102216178Y-84704843D01*
X102216099Y-84700417D01*
X102216099Y-84644427D01*
X108333000Y-84644427D01*
X108333000Y-84651000D01*
X109058000Y-84651000D01*
X109558000Y-84651000D01*
X110282999Y-84651000D01*
X110282999Y-84644417D01*
X110276591Y-84573897D01*
X110276590Y-84573892D01*
X110226018Y-84411603D01*
X110138072Y-84266122D01*
X110017877Y-84145927D01*
X109872395Y-84057980D01*
X109872396Y-84057980D01*
X109710105Y-84007409D01*
X109710106Y-84007409D01*
X109639572Y-84001000D01*
X109558000Y-84001000D01*
X109558000Y-84651000D01*
X109058000Y-84651000D01*
X109058000Y-84001000D01*
X109057999Y-84000999D01*
X108976417Y-84001000D01*
X108905897Y-84007408D01*
X108905892Y-84007409D01*
X108743603Y-84057981D01*
X108598122Y-84145927D01*
X108477927Y-84266122D01*
X108389980Y-84411604D01*
X108339409Y-84573893D01*
X108333000Y-84644427D01*
X102216099Y-84644427D01*
X102216099Y-84625328D01*
X102216098Y-84625322D01*
X102214445Y-84609947D01*
X102209691Y-84565716D01*
X102209691Y-84565715D01*
X102207908Y-84558171D01*
X102209798Y-84557724D01*
X102204485Y-84508340D01*
X102206382Y-84495155D01*
X102209691Y-84486284D01*
X102215699Y-84430398D01*
X102216012Y-84428227D01*
X102229641Y-84398390D01*
X102242196Y-84368081D01*
X102244086Y-84366768D01*
X102245043Y-84364675D01*
X102272637Y-84346945D01*
X102299588Y-84328233D01*
X102301888Y-84328150D01*
X102303826Y-84326906D01*
X102336648Y-84326909D01*
X102369413Y-84325739D01*
X102372214Y-84326912D01*
X102373695Y-84326913D01*
X102376467Y-84328694D01*
X102402895Y-84339769D01*
X102493394Y-84394478D01*
X102655804Y-84445086D01*
X102726384Y-84451500D01*
X102726387Y-84451500D01*
X103239613Y-84451500D01*
X103239616Y-84451500D01*
X103310196Y-84445086D01*
X103472606Y-84394478D01*
X103618185Y-84306472D01*
X103720673Y-84203983D01*
X103781994Y-84170499D01*
X103851685Y-84175483D01*
X103896034Y-84203984D01*
X103998122Y-84306072D01*
X104143604Y-84394019D01*
X104143603Y-84394019D01*
X104305894Y-84444590D01*
X104305893Y-84444590D01*
X104376408Y-84450998D01*
X104376426Y-84450999D01*
X104883000Y-84450999D01*
X104889581Y-84450999D01*
X104960102Y-84444591D01*
X104960107Y-84444590D01*
X105122396Y-84394018D01*
X105267877Y-84306072D01*
X105388072Y-84185877D01*
X105476019Y-84040395D01*
X105526590Y-83878106D01*
X105533000Y-83807572D01*
X105533000Y-83726000D01*
X104883000Y-83726000D01*
X104883000Y-84450999D01*
X104376426Y-84450999D01*
X104382999Y-84450998D01*
X104383000Y-84450998D01*
X104383000Y-83226000D01*
X104883000Y-83226000D01*
X105532999Y-83226000D01*
X105532999Y-83144417D01*
X105526591Y-83073897D01*
X105526590Y-83073892D01*
X105476018Y-82911603D01*
X105388072Y-82766122D01*
X105267877Y-82645927D01*
X105122395Y-82557980D01*
X105122396Y-82557980D01*
X104960105Y-82507409D01*
X104960106Y-82507409D01*
X104889572Y-82501000D01*
X104883000Y-82501000D01*
X104883000Y-83226000D01*
X104383000Y-83226000D01*
X104383000Y-82501000D01*
X104382999Y-82500999D01*
X104376436Y-82501000D01*
X104376417Y-82501001D01*
X104305897Y-82507408D01*
X104305892Y-82507409D01*
X104143603Y-82557981D01*
X103998122Y-82645927D01*
X103998121Y-82645928D01*
X103896035Y-82748015D01*
X103834712Y-82781500D01*
X103765020Y-82776516D01*
X103720673Y-82748015D01*
X103618188Y-82645530D01*
X103472606Y-82557522D01*
X103456226Y-82552418D01*
X103310196Y-82506914D01*
X103310194Y-82506913D01*
X103310192Y-82506913D01*
X103260778Y-82502423D01*
X103239616Y-82500500D01*
X102726384Y-82500500D01*
X102707145Y-82502248D01*
X102655807Y-82506913D01*
X102493393Y-82557522D01*
X102347811Y-82645530D01*
X102227530Y-82765811D01*
X102218046Y-82781500D01*
X102152061Y-82890651D01*
X102144128Y-82897915D01*
X102139659Y-82907703D01*
X102118809Y-82921102D01*
X102100535Y-82937837D01*
X102088382Y-82940655D01*
X102080881Y-82945477D01*
X102045946Y-82950500D01*
X102027383Y-82950500D01*
X101966307Y-82932566D01*
X101965714Y-82933654D01*
X101960713Y-82930923D01*
X101960344Y-82930815D01*
X101959714Y-82930378D01*
X101957928Y-82929402D01*
X101823082Y-82879108D01*
X101823083Y-82879108D01*
X101763483Y-82872701D01*
X101763481Y-82872700D01*
X101763473Y-82872700D01*
X101763465Y-82872700D01*
X100980695Y-82872700D01*
X100913656Y-82853015D01*
X100877592Y-82817589D01*
X100852115Y-82779459D01*
X100852111Y-82779454D01*
X100754545Y-82681888D01*
X100754541Y-82681885D01*
X100639817Y-82605228D01*
X100639804Y-82605221D01*
X100512332Y-82552421D01*
X100512322Y-82552418D01*
X100376995Y-82525500D01*
X100376993Y-82525500D01*
X100239007Y-82525500D01*
X100239005Y-82525500D01*
X100103677Y-82552418D01*
X100103667Y-82552421D01*
X99976195Y-82605221D01*
X99976182Y-82605228D01*
X99861458Y-82681885D01*
X99861454Y-82681888D01*
X99763888Y-82779454D01*
X99763883Y-82779461D01*
X99760601Y-82784373D01*
X99706988Y-82829178D01*
X99637663Y-82837884D01*
X99574636Y-82807728D01*
X99537918Y-82748285D01*
X99533500Y-82715481D01*
X99533500Y-81105582D01*
X104333001Y-81105582D01*
X104339408Y-81176102D01*
X104339409Y-81176107D01*
X104389981Y-81338396D01*
X104477927Y-81483877D01*
X104598122Y-81604072D01*
X104743604Y-81692019D01*
X104743603Y-81692019D01*
X104905894Y-81742590D01*
X104905892Y-81742590D01*
X104976418Y-81748999D01*
X105558000Y-81748999D01*
X105639581Y-81748999D01*
X105710102Y-81742591D01*
X105710107Y-81742590D01*
X105872396Y-81692018D01*
X106017877Y-81604072D01*
X106138072Y-81483877D01*
X106226019Y-81338395D01*
X106276590Y-81176106D01*
X106283000Y-81105572D01*
X106283000Y-81099000D01*
X105558000Y-81099000D01*
X105558000Y-81748999D01*
X104976418Y-81748999D01*
X105057999Y-81748998D01*
X105058000Y-81748998D01*
X105058000Y-81099000D01*
X104333001Y-81099000D01*
X104333001Y-81105582D01*
X99533500Y-81105582D01*
X99533500Y-76603884D01*
X99553185Y-76536845D01*
X99605989Y-76491090D01*
X99675147Y-76481146D01*
X99700834Y-76487703D01*
X99775616Y-76515595D01*
X99775627Y-76515598D01*
X99835155Y-76521999D01*
X99835172Y-76522000D01*
X99933000Y-76522000D01*
X100433000Y-76522000D01*
X100530828Y-76522000D01*
X100530844Y-76521999D01*
X100590372Y-76515598D01*
X100590379Y-76515596D01*
X100725086Y-76465354D01*
X100725093Y-76465350D01*
X100840187Y-76379190D01*
X100840190Y-76379187D01*
X100926350Y-76264093D01*
X100926354Y-76264086D01*
X100976596Y-76129379D01*
X100976598Y-76129372D01*
X100982999Y-76069844D01*
X100983000Y-76069827D01*
X100983000Y-75372000D01*
X100433000Y-75372000D01*
X100433000Y-76522000D01*
X99933000Y-76522000D01*
X99933000Y-75246000D01*
X99952685Y-75178961D01*
X100005489Y-75133206D01*
X100057000Y-75122000D01*
X100183000Y-75122000D01*
X100183000Y-74996000D01*
X100202685Y-74928961D01*
X100255489Y-74883206D01*
X100307000Y-74872000D01*
X100983000Y-74872000D01*
X100983000Y-74500500D01*
X101002685Y-74433461D01*
X101055489Y-74387706D01*
X101107000Y-74376500D01*
X103122071Y-74376500D01*
X103206615Y-74359682D01*
X103247744Y-74351501D01*
X103366127Y-74302465D01*
X103393572Y-74284127D01*
X103472669Y-74231277D01*
X104105127Y-73598819D01*
X104166450Y-73565334D01*
X104192808Y-73562500D01*
X106633453Y-73562500D01*
X106663418Y-73571299D01*
X106693881Y-73578220D01*
X106697508Y-73581308D01*
X106700492Y-73582185D01*
X106721939Y-73599631D01*
X106731586Y-73609457D01*
X106735032Y-73615044D01*
X106846609Y-73726621D01*
X106846986Y-73727005D01*
X106863176Y-73757317D01*
X106879666Y-73787515D01*
X106879756Y-73788358D01*
X106879904Y-73788634D01*
X106879853Y-73789258D01*
X106882500Y-73813874D01*
X106882500Y-73876500D01*
X106862815Y-73943539D01*
X106810011Y-73989294D01*
X106758502Y-74000500D01*
X106685792Y-74000500D01*
X106620013Y-74013583D01*
X106620011Y-74013584D01*
X106545423Y-74063423D01*
X106495583Y-74138012D01*
X106482500Y-74203790D01*
X106482500Y-74211568D01*
X106462815Y-74278607D01*
X106427396Y-74314667D01*
X106418328Y-74320726D01*
X106418324Y-74320730D01*
X106327726Y-74411327D01*
X106327723Y-74411331D01*
X106256538Y-74517866D01*
X106256533Y-74517875D01*
X106207499Y-74636255D01*
X106207497Y-74636261D01*
X106182500Y-74761928D01*
X106182500Y-74761931D01*
X106182500Y-74890069D01*
X106182500Y-74890071D01*
X106182499Y-74890071D01*
X106207497Y-75015738D01*
X106207499Y-75015744D01*
X106256533Y-75134124D01*
X106256538Y-75134133D01*
X106327723Y-75240668D01*
X106327726Y-75240672D01*
X106418330Y-75331276D01*
X106427391Y-75337330D01*
X106472196Y-75390942D01*
X106482500Y-75440423D01*
X106482500Y-75448208D01*
X106495583Y-75513985D01*
X106495584Y-75513988D01*
X106508000Y-75532569D01*
X106545423Y-75588577D01*
X106576891Y-75609603D01*
X106620012Y-75638416D01*
X106620014Y-75638417D01*
X106685789Y-75651500D01*
X106980210Y-75651499D01*
X107045986Y-75638417D01*
X107089111Y-75609601D01*
X107155784Y-75588725D01*
X107223165Y-75607209D01*
X107226890Y-75609603D01*
X107270012Y-75638416D01*
X107270014Y-75638417D01*
X107335789Y-75651500D01*
X107630210Y-75651499D01*
X107695986Y-75638417D01*
X107739111Y-75609601D01*
X107805784Y-75588725D01*
X107847564Y-75595186D01*
X107863184Y-75600445D01*
X107920014Y-75638417D01*
X107985789Y-75651500D01*
X108014831Y-75651499D01*
X108034079Y-75657980D01*
X108046732Y-75666830D01*
X108061546Y-75671179D01*
X108079319Y-75689623D01*
X108091334Y-75698027D01*
X108094236Y-75705104D01*
X108101246Y-75712378D01*
X108160225Y-75812107D01*
X108160232Y-75812116D01*
X108226935Y-75878819D01*
X108260420Y-75940142D01*
X108255436Y-76009834D01*
X108213564Y-76065767D01*
X108148100Y-76090184D01*
X108139254Y-76090500D01*
X106853105Y-76090500D01*
X106853097Y-76090501D01*
X106823787Y-76096330D01*
X106790542Y-76118542D01*
X106768332Y-76151785D01*
X106768329Y-76151791D01*
X106762500Y-76181098D01*
X106762500Y-77770894D01*
X106762501Y-77770902D01*
X106768330Y-77800212D01*
X106790542Y-77833457D01*
X106807219Y-77844599D01*
X106823787Y-77855669D01*
X106823790Y-77855669D01*
X106823791Y-77855670D01*
X106859076Y-77862689D01*
X106858793Y-77864107D01*
X106859309Y-77864315D01*
X106867086Y-77863810D01*
X106891249Y-77877206D01*
X106916874Y-77887549D01*
X106921377Y-77893910D01*
X106928192Y-77897689D01*
X106941277Y-77922023D01*
X106957242Y-77944577D01*
X106957590Y-77952361D01*
X106961282Y-77959226D01*
X106959133Y-77986775D01*
X106960371Y-78014376D01*
X106956318Y-78022875D01*
X106955850Y-78028884D01*
X106946748Y-78042947D01*
X106938736Y-78059751D01*
X106793301Y-78251447D01*
X106770708Y-78268134D01*
X106750176Y-78287305D01*
X106742188Y-78289198D01*
X106737099Y-78292958D01*
X106722261Y-78293923D01*
X106694522Y-78300500D01*
X106685791Y-78300500D01*
X106620014Y-78313583D01*
X106620011Y-78313584D01*
X106545423Y-78363423D01*
X106507358Y-78420391D01*
X106453745Y-78465196D01*
X106404256Y-78475500D01*
X106101520Y-78475500D01*
X106034481Y-78455815D01*
X106024436Y-78447720D01*
X106024094Y-78448157D01*
X106018188Y-78443530D01*
X106009063Y-78438014D01*
X105872606Y-78355522D01*
X105710196Y-78304914D01*
X105710194Y-78304913D01*
X105710192Y-78304913D01*
X105660778Y-78300423D01*
X105639616Y-78298500D01*
X104976384Y-78298500D01*
X104957145Y-78300248D01*
X104905807Y-78304913D01*
X104743393Y-78355522D01*
X104597811Y-78443530D01*
X104477530Y-78563811D01*
X104389522Y-78709393D01*
X104338913Y-78871807D01*
X104332500Y-78942386D01*
X104332500Y-79455613D01*
X104338913Y-79526192D01*
X104338913Y-79526194D01*
X104338914Y-79526196D01*
X104389522Y-79688606D01*
X104473707Y-79827865D01*
X104477530Y-79834188D01*
X104580015Y-79936673D01*
X104613500Y-79997996D01*
X104608516Y-80067688D01*
X104580015Y-80112035D01*
X104477928Y-80214121D01*
X104477927Y-80214122D01*
X104389980Y-80359604D01*
X104339409Y-80521893D01*
X104333000Y-80592427D01*
X104333000Y-80599000D01*
X106282999Y-80599000D01*
X106282999Y-80592417D01*
X106276591Y-80521897D01*
X106276590Y-80521892D01*
X106226018Y-80359603D01*
X106138072Y-80214122D01*
X106035984Y-80112034D01*
X106032166Y-80105043D01*
X106025706Y-80100380D01*
X106015660Y-80074815D01*
X106002499Y-80050711D01*
X106003067Y-80042764D01*
X106000154Y-80035350D01*
X106005523Y-80008416D01*
X106007483Y-79981019D01*
X106012606Y-79972892D01*
X106013815Y-79966829D01*
X106032171Y-79941859D01*
X106034471Y-79938211D01*
X106035176Y-79937480D01*
X106138472Y-79834185D01*
X106144386Y-79824400D01*
X106154086Y-79814358D01*
X106172809Y-79803706D01*
X106188698Y-79789159D01*
X106205051Y-79785366D01*
X106214817Y-79779811D01*
X106226322Y-79780432D01*
X106243280Y-79776500D01*
X106404256Y-79776500D01*
X106471295Y-79796185D01*
X106507358Y-79831609D01*
X106517518Y-79846814D01*
X106545423Y-79888577D01*
X106601238Y-79925871D01*
X106620012Y-79938416D01*
X106620014Y-79938417D01*
X106685789Y-79951500D01*
X106694509Y-79951499D01*
X106761546Y-79971179D01*
X106801246Y-80012378D01*
X106860225Y-80112107D01*
X106860232Y-80112116D01*
X106971883Y-80223767D01*
X106971891Y-80223773D01*
X107107810Y-80304154D01*
X107228353Y-80339175D01*
X107287239Y-80376781D01*
X107316446Y-80440254D01*
X107316698Y-80474437D01*
X107307501Y-80544295D01*
X107307500Y-80544312D01*
X107307500Y-82027687D01*
X107307501Y-82027703D01*
X107322891Y-82144607D01*
X107322892Y-82144609D01*
X107383148Y-82290081D01*
X107431074Y-82352539D01*
X107479001Y-82414999D01*
X107560399Y-82477457D01*
X107603918Y-82510851D01*
X107603919Y-82510851D01*
X107603920Y-82510852D01*
X107749391Y-82571108D01*
X107866306Y-82586500D01*
X107866313Y-82586500D01*
X108399687Y-82586500D01*
X108399694Y-82586500D01*
X108516609Y-82571108D01*
X108662080Y-82510852D01*
X108732516Y-82456804D01*
X108797682Y-82431612D01*
X108866127Y-82445650D01*
X108883476Y-82456799D01*
X108953920Y-82510852D01*
X109099391Y-82571108D01*
X109216306Y-82586500D01*
X109216313Y-82586500D01*
X109749687Y-82586500D01*
X109749694Y-82586500D01*
X109866609Y-82571108D01*
X110012080Y-82510852D01*
X110136999Y-82414999D01*
X110232852Y-82290080D01*
X110293108Y-82144609D01*
X110308500Y-82027694D01*
X110308500Y-80544306D01*
X110293108Y-80427391D01*
X110232852Y-80281920D01*
X110232851Y-80281919D01*
X110232851Y-80281918D01*
X110159124Y-80185834D01*
X110133930Y-80120664D01*
X110133500Y-80110348D01*
X110133500Y-79521807D01*
X110153185Y-79454768D01*
X110169815Y-79434130D01*
X110370719Y-79233225D01*
X110432040Y-79199742D01*
X110470996Y-79197550D01*
X110509655Y-79201500D01*
X111106344Y-79201499D01*
X111106352Y-79201498D01*
X111106355Y-79201498D01*
X111160760Y-79195940D01*
X111205708Y-79191349D01*
X111366697Y-79138003D01*
X111511044Y-79048968D01*
X111576716Y-78983295D01*
X111638035Y-78949813D01*
X111640203Y-78949362D01*
X111769620Y-78923619D01*
X111901653Y-78868929D01*
X112020479Y-78789532D01*
X112121532Y-78688479D01*
X112200929Y-78569653D01*
X112255619Y-78437620D01*
X112274418Y-78343113D01*
X112283500Y-78297457D01*
X112283500Y-78154542D01*
X112255620Y-78014385D01*
X112255619Y-78014384D01*
X112255619Y-78014380D01*
X112200929Y-77882347D01*
X112200928Y-77882346D01*
X112200925Y-77882340D01*
X112121532Y-77763521D01*
X112121529Y-77763517D01*
X112020482Y-77662470D01*
X112020478Y-77662467D01*
X111901659Y-77583074D01*
X111901650Y-77583069D01*
X111769620Y-77528381D01*
X111769614Y-77528379D01*
X111738589Y-77522208D01*
X111676678Y-77489823D01*
X111642104Y-77429107D01*
X111645845Y-77359337D01*
X111657243Y-77335493D01*
X111719544Y-77234488D01*
X111719547Y-77234481D01*
X111772855Y-77073606D01*
X111782999Y-76974322D01*
X111783000Y-76974309D01*
X111783000Y-76951000D01*
X109833001Y-76951000D01*
X109833001Y-76974322D01*
X109843144Y-77073607D01*
X109896452Y-77234481D01*
X109896457Y-77234492D01*
X109985424Y-77378728D01*
X109985427Y-77378732D01*
X109994660Y-77387965D01*
X110028145Y-77449288D01*
X110023161Y-77518980D01*
X109994663Y-77563324D01*
X109985033Y-77572953D01*
X109985029Y-77572959D01*
X109896001Y-77717294D01*
X109895996Y-77717305D01*
X109842651Y-77878290D01*
X109842649Y-77878302D01*
X109842227Y-77882433D01*
X109841254Y-77884814D01*
X109841233Y-77884917D01*
X109841214Y-77884913D01*
X109815825Y-77947122D01*
X109806551Y-77957501D01*
X109324873Y-78439181D01*
X109297945Y-78453884D01*
X109272127Y-78470477D01*
X109265926Y-78471368D01*
X109263550Y-78472666D01*
X109237192Y-78475500D01*
X109211744Y-78475500D01*
X109144705Y-78455815D01*
X109108642Y-78420391D01*
X109097029Y-78403011D01*
X109070577Y-78363423D01*
X109020008Y-78329634D01*
X108995987Y-78313583D01*
X108974061Y-78309222D01*
X108930211Y-78300500D01*
X108930209Y-78300500D01*
X108635791Y-78300500D01*
X108570013Y-78313583D01*
X108570012Y-78313584D01*
X108526890Y-78342397D01*
X108460212Y-78363274D01*
X108418435Y-78356813D01*
X108402813Y-78351553D01*
X108345986Y-78313583D01*
X108280211Y-78300500D01*
X108251170Y-78300500D01*
X108231920Y-78294019D01*
X108219262Y-78285165D01*
X108204446Y-78280815D01*
X108186676Y-78262373D01*
X108174665Y-78253972D01*
X108171762Y-78246895D01*
X108164753Y-78239621D01*
X108105773Y-78139891D01*
X108105767Y-78139883D01*
X108039064Y-78073180D01*
X108005579Y-78011857D01*
X108010563Y-77942165D01*
X108052435Y-77886232D01*
X108117899Y-77861815D01*
X108126735Y-77861499D01*
X108762898Y-77861499D01*
X108792213Y-77855669D01*
X108825457Y-77833457D01*
X108847669Y-77800213D01*
X108853500Y-77770899D01*
X108853499Y-76427677D01*
X109833000Y-76427677D01*
X109833000Y-76451000D01*
X110558000Y-76451000D01*
X111058000Y-76451000D01*
X111782999Y-76451000D01*
X111782999Y-76427692D01*
X111782998Y-76427677D01*
X111772855Y-76328392D01*
X111719547Y-76167518D01*
X111719542Y-76167507D01*
X111630575Y-76023271D01*
X111630572Y-76023267D01*
X111510732Y-75903427D01*
X111510728Y-75903424D01*
X111366492Y-75814457D01*
X111366481Y-75814452D01*
X111205606Y-75761144D01*
X111106322Y-75751000D01*
X111058000Y-75751000D01*
X111058000Y-76451000D01*
X110558000Y-76451000D01*
X110558000Y-75751000D01*
X110557999Y-75750999D01*
X110509693Y-75751000D01*
X110509675Y-75751001D01*
X110410392Y-75761144D01*
X110249518Y-75814452D01*
X110249507Y-75814457D01*
X110105271Y-75903424D01*
X110105267Y-75903427D01*
X109985427Y-76023267D01*
X109985424Y-76023271D01*
X109896457Y-76167507D01*
X109896452Y-76167518D01*
X109843144Y-76328393D01*
X109833000Y-76427677D01*
X108853499Y-76427677D01*
X108853499Y-76181102D01*
X108853482Y-76181018D01*
X108853482Y-76174853D01*
X108861612Y-76147156D01*
X108866880Y-76118782D01*
X108871331Y-76114048D01*
X108873162Y-76107813D01*
X108894971Y-76088911D01*
X108914747Y-76067885D01*
X108921520Y-76065903D01*
X108925963Y-76062054D01*
X108943125Y-76059585D01*
X108968755Y-76052089D01*
X108968685Y-76051191D01*
X109006547Y-76048211D01*
X109006553Y-76048210D01*
X109158185Y-76004156D01*
X109158188Y-76004155D01*
X109294108Y-75923773D01*
X109294116Y-75923767D01*
X109405767Y-75812116D01*
X109405773Y-75812108D01*
X109486155Y-75676188D01*
X109486156Y-75676185D01*
X109530210Y-75524553D01*
X109530211Y-75524547D01*
X109532999Y-75489118D01*
X109533000Y-75489105D01*
X109533000Y-75076000D01*
X108907000Y-75076000D01*
X108839961Y-75056315D01*
X108794206Y-75003511D01*
X108783000Y-74952000D01*
X108783000Y-74700000D01*
X108802685Y-74632961D01*
X108855489Y-74587206D01*
X108907000Y-74576000D01*
X109533000Y-74576000D01*
X109533000Y-74162894D01*
X109532999Y-74162881D01*
X109530211Y-74127452D01*
X109530210Y-74127449D01*
X109490578Y-73991036D01*
X109490777Y-73921166D01*
X109528719Y-73862496D01*
X109570651Y-73838734D01*
X109616479Y-73823548D01*
X109616492Y-73823542D01*
X109760728Y-73734575D01*
X109760732Y-73734572D01*
X109880572Y-73614732D01*
X109880575Y-73614728D01*
X109969542Y-73470492D01*
X109969547Y-73470481D01*
X110022855Y-73309606D01*
X110032999Y-73210322D01*
X110033000Y-73210309D01*
X110033000Y-73162000D01*
X109207000Y-73162000D01*
X109139961Y-73142315D01*
X109094206Y-73089511D01*
X109083000Y-73038000D01*
X109083000Y-72912000D01*
X108957000Y-72912000D01*
X108889961Y-72892315D01*
X108844206Y-72839511D01*
X108833000Y-72788000D01*
X108833000Y-72662000D01*
X109333000Y-72662000D01*
X110032999Y-72662000D01*
X110032999Y-72613692D01*
X110032998Y-72613677D01*
X110022855Y-72514392D01*
X109969547Y-72353518D01*
X109969542Y-72353507D01*
X109880575Y-72209271D01*
X109880572Y-72209267D01*
X109760732Y-72089427D01*
X109760728Y-72089424D01*
X109616492Y-72000457D01*
X109616481Y-72000452D01*
X109455606Y-71947144D01*
X109356322Y-71937000D01*
X109333000Y-71937000D01*
X109333000Y-72662000D01*
X108833000Y-72662000D01*
X108833000Y-71936999D01*
X108809693Y-71937000D01*
X108809674Y-71937001D01*
X108710392Y-71947144D01*
X108549518Y-72000452D01*
X108549509Y-72000456D01*
X108434764Y-72071232D01*
X108367372Y-72089672D01*
X108300709Y-72068749D01*
X108255939Y-72015107D01*
X108255107Y-72013145D01*
X108249849Y-72000452D01*
X108227769Y-71947144D01*
X108200932Y-71882353D01*
X108200925Y-71882340D01*
X108121532Y-71763521D01*
X108121529Y-71763517D01*
X108020482Y-71662470D01*
X108020478Y-71662467D01*
X107901659Y-71583074D01*
X107901650Y-71583069D01*
X107769620Y-71528381D01*
X107769614Y-71528379D01*
X107629457Y-71500500D01*
X107629455Y-71500500D01*
X107486545Y-71500500D01*
X107486543Y-71500500D01*
X107346385Y-71528379D01*
X107346379Y-71528381D01*
X107214349Y-71583069D01*
X107214340Y-71583074D01*
X107095521Y-71662467D01*
X107095517Y-71662470D01*
X106994470Y-71763517D01*
X106994467Y-71763521D01*
X106915074Y-71882340D01*
X106915069Y-71882349D01*
X106860380Y-72014381D01*
X106860379Y-72014385D01*
X106850529Y-72063904D01*
X106842101Y-72080013D01*
X106838452Y-72097823D01*
X106819070Y-72124041D01*
X106818143Y-72125815D01*
X106817644Y-72126330D01*
X106817101Y-72126885D01*
X106735032Y-72208956D01*
X106731678Y-72214393D01*
X106722185Y-72224118D01*
X106697138Y-72238188D01*
X106673699Y-72254787D01*
X106665015Y-72256235D01*
X106661269Y-72258340D01*
X106654727Y-72257951D01*
X106633453Y-72261500D01*
X103807929Y-72261500D01*
X103682261Y-72286497D01*
X103682255Y-72286499D01*
X103563874Y-72335534D01*
X103457326Y-72406726D01*
X103457325Y-72406727D01*
X103120180Y-72743873D01*
X103058857Y-72777358D01*
X102989165Y-72772374D01*
X102933232Y-72730502D01*
X102908815Y-72665038D01*
X102908499Y-72656192D01*
X102908499Y-70474129D01*
X102908498Y-70474123D01*
X102908497Y-70474116D01*
X102902091Y-70414517D01*
X102894190Y-70393333D01*
X102889206Y-70323642D01*
X102922691Y-70262319D01*
X102984014Y-70228834D01*
X103010372Y-70226000D01*
X113684000Y-70226000D01*
X113751039Y-70245685D01*
G37*
%TD.AperFunction*%
%TA.AperFunction,Conductor*%
G36*
X89574978Y-76440738D02*
G01*
X89601339Y-76442625D01*
X89613046Y-76449018D01*
X89617422Y-76449970D01*
X89632304Y-76459534D01*
X89640669Y-76465796D01*
X89661834Y-76473690D01*
X89717767Y-76515560D01*
X89742184Y-76581024D01*
X89742500Y-76589871D01*
X89742500Y-76637018D01*
X89771497Y-76745237D01*
X89827515Y-76842263D01*
X89827517Y-76842265D01*
X89832730Y-76847478D01*
X89866215Y-76908801D01*
X89861231Y-76978493D01*
X89819359Y-77034426D01*
X89753895Y-77058843D01*
X89708159Y-77053544D01*
X89560105Y-77007409D01*
X89560106Y-77007409D01*
X89489572Y-77001000D01*
X89483000Y-77001000D01*
X89483000Y-78950999D01*
X89489581Y-78950999D01*
X89560102Y-78944591D01*
X89560107Y-78944590D01*
X89722396Y-78894018D01*
X89849835Y-78816979D01*
X89917389Y-78799143D01*
X89983863Y-78820660D01*
X90028151Y-78874701D01*
X90035602Y-78898903D01*
X90042846Y-78935323D01*
X90042849Y-78935332D01*
X90095649Y-79062804D01*
X90095656Y-79062817D01*
X90172313Y-79177541D01*
X90172316Y-79177545D01*
X90269882Y-79275111D01*
X90269886Y-79275114D01*
X90384610Y-79351771D01*
X90384623Y-79351778D01*
X90512095Y-79404578D01*
X90512100Y-79404580D01*
X90647435Y-79431500D01*
X90647442Y-79431500D01*
X90651383Y-79431889D01*
X90653319Y-79432671D01*
X90653410Y-79432689D01*
X90653406Y-79432706D01*
X90669415Y-79439169D01*
X90688708Y-79441591D01*
X90701142Y-79451980D01*
X90716170Y-79458048D01*
X90727403Y-79473922D01*
X90742325Y-79486390D01*
X90750498Y-79506559D01*
X90756530Y-79515082D01*
X90757561Y-79518226D01*
X90760268Y-79526868D01*
X90760402Y-79528569D01*
X90806256Y-79686398D01*
X90814726Y-79700721D01*
X90819019Y-79714424D01*
X90819399Y-79735584D01*
X90824603Y-79756102D01*
X90820046Y-79771621D01*
X90820274Y-79784282D01*
X90812753Y-79796458D01*
X90809249Y-79808395D01*
X90809817Y-79808641D01*
X90807827Y-79813239D01*
X90807428Y-79814599D01*
X90806722Y-79815791D01*
X90806716Y-79815806D01*
X90760900Y-79973505D01*
X90760899Y-79973511D01*
X90760704Y-79975998D01*
X90760705Y-79976000D01*
X91026185Y-79976000D01*
X91089306Y-79993268D01*
X91147602Y-80027744D01*
X91173782Y-80035350D01*
X91305426Y-80073597D01*
X91305429Y-80073597D01*
X91305431Y-80073598D01*
X91342306Y-80076500D01*
X91342314Y-80076500D01*
X91796500Y-80076500D01*
X91805185Y-80079050D01*
X91814147Y-80077762D01*
X91838187Y-80088740D01*
X91863539Y-80096185D01*
X91869466Y-80103025D01*
X91877703Y-80106787D01*
X91891992Y-80129021D01*
X91909294Y-80148989D01*
X91911581Y-80159503D01*
X91915477Y-80165565D01*
X91920500Y-80200500D01*
X91920500Y-80251500D01*
X91900815Y-80318539D01*
X91848011Y-80364294D01*
X91796500Y-80375500D01*
X91342298Y-80375500D01*
X91305432Y-80378401D01*
X91305426Y-80378402D01*
X91147606Y-80424254D01*
X91147603Y-80424255D01*
X91089306Y-80458732D01*
X91026185Y-80476000D01*
X90760705Y-80476000D01*
X90760704Y-80476001D01*
X90760899Y-80478488D01*
X90760900Y-80478494D01*
X90806716Y-80636193D01*
X90806720Y-80636203D01*
X90807427Y-80637398D01*
X90807695Y-80638454D01*
X90809816Y-80643356D01*
X90809024Y-80643698D01*
X90824603Y-80705123D01*
X90808993Y-80758284D01*
X90809355Y-80758441D01*
X90808087Y-80761369D01*
X90807427Y-80763620D01*
X90806259Y-80765594D01*
X90806254Y-80765607D01*
X90760402Y-80923426D01*
X90760401Y-80923432D01*
X90757500Y-80960298D01*
X90757500Y-81391701D01*
X90760401Y-81428567D01*
X90760402Y-81428573D01*
X90806254Y-81586393D01*
X90806255Y-81586396D01*
X90889917Y-81727862D01*
X90889923Y-81727870D01*
X91006129Y-81844076D01*
X91006133Y-81844079D01*
X91006135Y-81844081D01*
X91147602Y-81927744D01*
X91189224Y-81939836D01*
X91305426Y-81973597D01*
X91305429Y-81973597D01*
X91305431Y-81973598D01*
X91342306Y-81976500D01*
X91457902Y-81976500D01*
X91487340Y-81985144D01*
X91517325Y-81991666D01*
X91522342Y-81995422D01*
X91524941Y-81996185D01*
X91545574Y-82012810D01*
X91551784Y-82019020D01*
X91551786Y-82019021D01*
X91558853Y-82026088D01*
X92196181Y-82663416D01*
X92229666Y-82724739D01*
X92232500Y-82751097D01*
X92232500Y-83963099D01*
X92232499Y-83963117D01*
X92232499Y-84128823D01*
X92232498Y-84128823D01*
X92267191Y-84258298D01*
X92273423Y-84281554D01*
X92287810Y-84306472D01*
X92315372Y-84354211D01*
X92352479Y-84418484D01*
X92471349Y-84537354D01*
X92471355Y-84537359D01*
X92543943Y-84609947D01*
X92577428Y-84671270D01*
X92572444Y-84740962D01*
X92530572Y-84796895D01*
X92505421Y-84810036D01*
X92505846Y-84810947D01*
X92499300Y-84813998D01*
X92373097Y-84891842D01*
X92305704Y-84910282D01*
X92242903Y-84891842D01*
X92116699Y-84813998D01*
X92116694Y-84813996D01*
X91955709Y-84760651D01*
X91856352Y-84750500D01*
X91856345Y-84750500D01*
X91663904Y-84750500D01*
X91596865Y-84730815D01*
X91551110Y-84678011D01*
X91549343Y-84673952D01*
X91517397Y-84596827D01*
X91517390Y-84596814D01*
X91429789Y-84465711D01*
X91429786Y-84465707D01*
X91318292Y-84354213D01*
X91318288Y-84354210D01*
X91187185Y-84266609D01*
X91187172Y-84266602D01*
X91041501Y-84206264D01*
X91041489Y-84206261D01*
X90886845Y-84175500D01*
X90886842Y-84175500D01*
X90729158Y-84175500D01*
X90729155Y-84175500D01*
X90574510Y-84206261D01*
X90574498Y-84206264D01*
X90428827Y-84266602D01*
X90428814Y-84266609D01*
X90297711Y-84354210D01*
X90297707Y-84354213D01*
X90186213Y-84465707D01*
X90186210Y-84465711D01*
X90098609Y-84596814D01*
X90098606Y-84596820D01*
X90066656Y-84673954D01*
X90022814Y-84728357D01*
X89956520Y-84750421D01*
X89952096Y-84750500D01*
X89759663Y-84750500D01*
X89759644Y-84750501D01*
X89660292Y-84760650D01*
X89660289Y-84760651D01*
X89499305Y-84813996D01*
X89499294Y-84814001D01*
X89354959Y-84903029D01*
X89354955Y-84903032D01*
X89235032Y-85022955D01*
X89235029Y-85022959D01*
X89146001Y-85167294D01*
X89145996Y-85167305D01*
X89092651Y-85328290D01*
X89082500Y-85427647D01*
X89082340Y-85430803D01*
X89082179Y-85430794D01*
X89082179Y-85430796D01*
X89082155Y-85430793D01*
X89080855Y-85430727D01*
X89076261Y-85446371D01*
X89074682Y-85468460D01*
X89066609Y-85479243D01*
X89062815Y-85492165D01*
X89046081Y-85506664D01*
X89032810Y-85524393D01*
X89020189Y-85529100D01*
X89010011Y-85537920D01*
X88988093Y-85541071D01*
X88967346Y-85548810D01*
X88954185Y-85545947D01*
X88940853Y-85547864D01*
X88920709Y-85538664D01*
X88899073Y-85533958D01*
X88881347Y-85520689D01*
X88877297Y-85518839D01*
X88870819Y-85512807D01*
X88820819Y-85462807D01*
X88787334Y-85401484D01*
X88784500Y-85375126D01*
X88784500Y-79069338D01*
X88804185Y-79002299D01*
X88856989Y-78956544D01*
X88919723Y-78945847D01*
X88976410Y-78950998D01*
X88976426Y-78950999D01*
X88982999Y-78950998D01*
X88983000Y-78950998D01*
X88983000Y-77001000D01*
X88982999Y-77000999D01*
X88976436Y-77001000D01*
X88919718Y-77006153D01*
X88905348Y-77003314D01*
X88890853Y-77005399D01*
X88871763Y-76996680D01*
X88851173Y-76992614D01*
X88840619Y-76982458D01*
X88827297Y-76976374D01*
X88815951Y-76958719D01*
X88800828Y-76944166D01*
X88796766Y-76928867D01*
X88789523Y-76917596D01*
X88784500Y-76882661D01*
X88784500Y-76646499D01*
X88804185Y-76579460D01*
X88856989Y-76533705D01*
X88908500Y-76522499D01*
X89280871Y-76522499D01*
X89280872Y-76522499D01*
X89340483Y-76516091D01*
X89475331Y-76465796D01*
X89483687Y-76459539D01*
X89508451Y-76450302D01*
X89531647Y-76437638D01*
X89540670Y-76438283D01*
X89549149Y-76435121D01*
X89574978Y-76440738D01*
G37*
%TD.AperFunction*%
%TA.AperFunction,Conductor*%
G36*
X97076039Y-77995685D02*
G01*
X97121794Y-78048489D01*
X97133000Y-78100000D01*
X97133000Y-78950999D01*
X97169319Y-78987318D01*
X97166979Y-78989657D01*
X97196294Y-79023488D01*
X97207500Y-79074999D01*
X97207500Y-83693701D01*
X97187815Y-83760740D01*
X97135011Y-83806495D01*
X97065853Y-83816439D01*
X97002297Y-83787414D01*
X96968939Y-83741153D01*
X96928778Y-83644195D01*
X96928771Y-83644182D01*
X96852114Y-83529458D01*
X96852111Y-83529454D01*
X96776490Y-83453833D01*
X96743005Y-83392510D01*
X96741268Y-83376358D01*
X96740768Y-83376408D01*
X96740171Y-83370345D01*
X96713252Y-83235018D01*
X96713251Y-83235017D01*
X96713251Y-83235013D01*
X96709518Y-83226000D01*
X96660449Y-83107536D01*
X96660442Y-83107523D01*
X96583785Y-82992799D01*
X96583782Y-82992795D01*
X96486216Y-82895229D01*
X96486212Y-82895226D01*
X96371488Y-82818569D01*
X96371475Y-82818562D01*
X96244003Y-82765762D01*
X96243993Y-82765759D01*
X96108666Y-82738841D01*
X96108664Y-82738841D01*
X95970678Y-82738841D01*
X95970676Y-82738841D01*
X95835348Y-82765759D01*
X95835338Y-82765762D01*
X95707861Y-82818564D01*
X95707859Y-82818565D01*
X95658112Y-82851805D01*
X95591434Y-82872682D01*
X95589223Y-82872702D01*
X94352529Y-82872702D01*
X94352523Y-82872703D01*
X94292916Y-82879110D01*
X94158071Y-82929404D01*
X94158069Y-82929405D01*
X94081811Y-82986493D01*
X94069188Y-82991200D01*
X94059011Y-83000020D01*
X94037095Y-83003171D01*
X94016347Y-83010910D01*
X94003185Y-83008047D01*
X93989853Y-83009964D01*
X93969711Y-83000765D01*
X93948074Y-82996059D01*
X93938549Y-82986534D01*
X93926297Y-82980939D01*
X93914326Y-82962311D01*
X93898668Y-82946654D01*
X93894981Y-82932210D01*
X93888523Y-82922161D01*
X93883500Y-82887226D01*
X93883500Y-82751096D01*
X93903185Y-82684057D01*
X93919815Y-82663419D01*
X94554006Y-82029227D01*
X94554011Y-82029224D01*
X94570417Y-82012819D01*
X94631740Y-81979334D01*
X94658098Y-81976500D01*
X94773686Y-81976500D01*
X94773694Y-81976500D01*
X94810569Y-81973598D01*
X94810571Y-81973597D01*
X94810573Y-81973597D01*
X94852191Y-81961505D01*
X94968398Y-81927744D01*
X95109865Y-81844081D01*
X95226081Y-81727865D01*
X95309744Y-81586398D01*
X95355598Y-81428569D01*
X95358500Y-81391694D01*
X95358500Y-80960306D01*
X95355598Y-80923431D01*
X95350630Y-80906331D01*
X95350827Y-80836465D01*
X95382024Y-80784053D01*
X95429789Y-80736289D01*
X95517394Y-80605179D01*
X95577737Y-80459497D01*
X95608500Y-80304842D01*
X95608500Y-80147158D01*
X95608500Y-80147155D01*
X95608499Y-80147153D01*
X95601528Y-80112107D01*
X95577737Y-79992503D01*
X95570901Y-79976000D01*
X95517397Y-79846827D01*
X95517390Y-79846814D01*
X95429789Y-79715711D01*
X95429786Y-79715707D01*
X95382025Y-79667947D01*
X95348539Y-79606624D01*
X95350631Y-79545663D01*
X95355598Y-79528569D01*
X95358499Y-79491701D01*
X95358500Y-79491694D01*
X95358500Y-79075500D01*
X95378185Y-79008461D01*
X95430989Y-78962706D01*
X95482500Y-78951500D01*
X95489613Y-78951500D01*
X95489616Y-78951500D01*
X95560196Y-78945086D01*
X95722606Y-78894478D01*
X95868185Y-78806472D01*
X95970673Y-78703983D01*
X96031994Y-78670499D01*
X96101685Y-78675483D01*
X96146034Y-78703984D01*
X96248122Y-78806072D01*
X96393604Y-78894019D01*
X96393603Y-78894019D01*
X96555894Y-78944590D01*
X96555893Y-78944590D01*
X96626408Y-78950998D01*
X96626426Y-78950999D01*
X96632999Y-78950998D01*
X96633000Y-78950998D01*
X96633000Y-78100000D01*
X96652685Y-78032961D01*
X96705489Y-77987206D01*
X96757000Y-77976000D01*
X97009000Y-77976000D01*
X97076039Y-77995685D01*
G37*
%TD.AperFunction*%
%TD*%
M02*
