%TF.GenerationSoftware,KiCad,Pcbnew,9.0.2*%
%TF.CreationDate,2025-06-18T22:14:32+09:00*%
%TF.ProjectId,LoRa_TM,4c6f5261-5f54-44d2-9e6b-696361645f70,rev?*%
%TF.SameCoordinates,Original*%
%TF.FileFunction,Soldermask,Top*%
%TF.FilePolarity,Negative*%
%FSLAX46Y46*%
G04 Gerber Fmt 4.6, Leading zero omitted, Abs format (unit mm)*
G04 Created by KiCad (PCBNEW 9.0.2) date 2025-06-18 22:14:32*
%MOMM*%
%LPD*%
G01*
G04 APERTURE LIST*
G04 Aperture macros list*
%AMRoundRect*
0 Rectangle with rounded corners*
0 $1 Rounding radius*
0 $2 $3 $4 $5 $6 $7 $8 $9 X,Y pos of 4 corners*
0 Add a 4 corners polygon primitive as box body*
4,1,4,$2,$3,$4,$5,$6,$7,$8,$9,$2,$3,0*
0 Add four circle primitives for the rounded corners*
1,1,$1+$1,$2,$3*
1,1,$1+$1,$4,$5*
1,1,$1+$1,$6,$7*
1,1,$1+$1,$8,$9*
0 Add four rect primitives between the rounded corners*
20,1,$1+$1,$2,$3,$4,$5,0*
20,1,$1+$1,$4,$5,$6,$7,0*
20,1,$1+$1,$6,$7,$8,$9,0*
20,1,$1+$1,$8,$9,$2,$3,0*%
G04 Aperture macros list end*
%ADD10RoundRect,0.218750X0.256250X-0.218750X0.256250X0.218750X-0.256250X0.218750X-0.256250X-0.218750X0*%
%ADD11RoundRect,0.200000X0.275000X-0.200000X0.275000X0.200000X-0.275000X0.200000X-0.275000X-0.200000X0*%
%ADD12R,0.600000X1.800000*%
%ADD13R,1.000000X2.800000*%
%ADD14RoundRect,0.250000X0.840000X0.750000X-0.840000X0.750000X-0.840000X-0.750000X0.840000X-0.750000X0*%
%ADD15RoundRect,0.150000X0.150000X0.425000X-0.150000X0.425000X-0.150000X-0.425000X0.150000X-0.425000X0*%
%ADD16RoundRect,0.075000X0.075000X0.500000X-0.075000X0.500000X-0.075000X-0.500000X0.075000X-0.500000X0*%
%ADD17C,0.650000*%
%ADD18RoundRect,0.300000X-1.200000X-0.700000X1.200000X-0.700000X1.200000X0.700000X-1.200000X0.700000X0*%
%ADD19RoundRect,0.300000X0.700000X-1.200000X0.700000X1.200000X-0.700000X1.200000X-0.700000X-1.200000X0*%
%ADD20R,1.500000X5.080000*%
G04 APERTURE END LIST*
D10*
%TO.C,D3*%
X103058000Y-124938500D03*
X103058000Y-126513500D03*
%TD*%
D11*
%TO.C,R12*%
X104558000Y-126551000D03*
X104558000Y-124901000D03*
%TD*%
%TO.C,R11*%
X108058000Y-126551000D03*
X108058000Y-124901000D03*
%TD*%
D12*
%TO.C,J5*%
X104191000Y-75176000D03*
X105441000Y-75176000D03*
X106691000Y-75176000D03*
X107941000Y-75176000D03*
X109191000Y-75176000D03*
X110441000Y-75176000D03*
D13*
X102466000Y-71976000D03*
X112166000Y-71976000D03*
%TD*%
D11*
%TO.C,R13*%
X101058000Y-124901000D03*
X101058000Y-126551000D03*
%TD*%
D10*
%TO.C,D4*%
X99558000Y-126513500D03*
X99558000Y-124938500D03*
%TD*%
D14*
%TO.C,J2*%
X87948000Y-73151000D03*
X87948000Y-77081000D03*
X98168000Y-73151000D03*
X98168000Y-77081000D03*
D15*
X96258000Y-77656000D03*
X95458000Y-77656000D03*
D16*
X94808000Y-77656000D03*
X93808000Y-77656000D03*
X92308000Y-77656000D03*
X91308000Y-77656000D03*
D15*
X90658000Y-77656000D03*
X89858000Y-77656000D03*
X89858000Y-77656000D03*
X90658000Y-77656000D03*
D16*
X91808000Y-77656000D03*
X92808000Y-77656000D03*
X93308000Y-77656000D03*
X94308000Y-77656000D03*
D15*
X95458000Y-77656000D03*
X96258000Y-77656000D03*
D17*
X90168000Y-76581000D03*
X95948000Y-76581000D03*
%TD*%
D18*
%TO.C,U4*%
X112250000Y-84130000D03*
X112250000Y-86670000D03*
X112250000Y-89210000D03*
X112250000Y-91750000D03*
X112250000Y-94290000D03*
X112250000Y-96830000D03*
X112250000Y-99370000D03*
D19*
X106770000Y-120250000D03*
X104230000Y-120250000D03*
X95770000Y-120250000D03*
X93230000Y-120250000D03*
D18*
X87750000Y-99370000D03*
X87750000Y-96830000D03*
X87750000Y-94290000D03*
X87750000Y-91750000D03*
X87750000Y-89210000D03*
X87750000Y-86670000D03*
X87750000Y-84130000D03*
%TD*%
D10*
%TO.C,D2*%
X106558000Y-124938500D03*
X106558000Y-126513500D03*
%TD*%
D20*
%TO.C,J3*%
X89821000Y-125117500D03*
X96196000Y-125117500D03*
X92946000Y-125117500D03*
%TD*%
M02*
