%TF.GenerationSoftware,KiCad,Pcbnew,9.0.2*%
%TF.CreationDate,2025-06-18T22:14:32+09:00*%
%TF.ProjectId,LoRa_TM,4c6f5261-5f54-44d2-9e6b-696361645f70,rev?*%
%TF.SameCoordinates,Original*%
%TF.FileFunction,Copper,L1,Top*%
%TF.FilePolarity,Positive*%
%FSLAX46Y46*%
G04 Gerber Fmt 4.6, Leading zero omitted, Abs format (unit mm)*
G04 Created by KiCad (PCBNEW 9.0.2) date 2025-06-18 22:14:32*
%MOMM*%
%LPD*%
G01*
G04 APERTURE LIST*
G04 Aperture macros list*
%AMRoundRect*
0 Rectangle with rounded corners*
0 $1 Rounding radius*
0 $2 $3 $4 $5 $6 $7 $8 $9 X,Y pos of 4 corners*
0 Add a 4 corners polygon primitive as box body*
4,1,4,$2,$3,$4,$5,$6,$7,$8,$9,$2,$3,0*
0 Add four circle primitives for the rounded corners*
1,1,$1+$1,$2,$3*
1,1,$1+$1,$4,$5*
1,1,$1+$1,$6,$7*
1,1,$1+$1,$8,$9*
0 Add four rect primitives between the rounded corners*
20,1,$1+$1,$2,$3,$4,$5,0*
20,1,$1+$1,$4,$5,$6,$7,0*
20,1,$1+$1,$6,$7,$8,$9,0*
20,1,$1+$1,$8,$9,$2,$3,0*%
G04 Aperture macros list end*
%TA.AperFunction,SMDPad,CuDef*%
%ADD10RoundRect,0.218750X0.256250X-0.218750X0.256250X0.218750X-0.256250X0.218750X-0.256250X-0.218750X0*%
%TD*%
%TA.AperFunction,SMDPad,CuDef*%
%ADD11RoundRect,0.200000X0.275000X-0.200000X0.275000X0.200000X-0.275000X0.200000X-0.275000X-0.200000X0*%
%TD*%
%TA.AperFunction,SMDPad,CuDef*%
%ADD12R,0.600000X1.800000*%
%TD*%
%TA.AperFunction,SMDPad,CuDef*%
%ADD13R,1.000000X2.800000*%
%TD*%
%TA.AperFunction,SMDPad,CuDef*%
%ADD14RoundRect,0.250000X0.840000X0.750000X-0.840000X0.750000X-0.840000X-0.750000X0.840000X-0.750000X0*%
%TD*%
%TA.AperFunction,SMDPad,CuDef*%
%ADD15RoundRect,0.150000X0.150000X0.425000X-0.150000X0.425000X-0.150000X-0.425000X0.150000X-0.425000X0*%
%TD*%
%TA.AperFunction,SMDPad,CuDef*%
%ADD16RoundRect,0.075000X0.075000X0.500000X-0.075000X0.500000X-0.075000X-0.500000X0.075000X-0.500000X0*%
%TD*%
%TA.AperFunction,SMDPad,CuDef*%
%ADD17RoundRect,0.300000X-1.200000X-0.700000X1.200000X-0.700000X1.200000X0.700000X-1.200000X0.700000X0*%
%TD*%
%TA.AperFunction,SMDPad,CuDef*%
%ADD18RoundRect,0.300000X0.700000X-1.200000X0.700000X1.200000X-0.700000X1.200000X-0.700000X-1.200000X0*%
%TD*%
%TA.AperFunction,SMDPad,CuDef*%
%ADD19R,1.500000X5.080000*%
%TD*%
%TA.AperFunction,ViaPad*%
%ADD20C,0.600000*%
%TD*%
%TA.AperFunction,ViaPad*%
%ADD21C,0.400000*%
%TD*%
%TA.AperFunction,ViaPad*%
%ADD22C,0.450000*%
%TD*%
%TA.AperFunction,Conductor*%
%ADD23C,0.200000*%
%TD*%
%TA.AperFunction,Conductor*%
%ADD24C,0.342400*%
%TD*%
%TA.AperFunction,Conductor*%
%ADD25C,0.300000*%
%TD*%
G04 APERTURE END LIST*
D10*
%TO.P,D3,2,A*%
%TO.N,/LED_RX*%
X103058000Y-124938500D03*
%TO.P,D3,1,K*%
%TO.N,Net-(D3-K)*%
X103058000Y-126513500D03*
%TD*%
D11*
%TO.P,R12,1*%
%TO.N,Net-(D3-K)*%
X104558000Y-126551000D03*
%TO.P,R12,2*%
%TO.N,GND*%
X104558000Y-124901000D03*
%TD*%
%TO.P,R11,1*%
%TO.N,Net-(D2-K)*%
X108058000Y-126551000D03*
%TO.P,R11,2*%
%TO.N,GND*%
X108058000Y-124901000D03*
%TD*%
D12*
%TO.P,J5,6,Pin_6*%
%TO.N,GND*%
X104191000Y-75176000D03*
%TO.P,J5,5,Pin_5*%
%TO.N,unconnected-(J5-Pin_5-Pad5)*%
X105441000Y-75176000D03*
%TO.P,J5,4,Pin_4*%
%TO.N,unconnected-(J5-Pin_4-Pad4)*%
X106691000Y-75176000D03*
%TO.P,J5,3,Pin_3*%
%TO.N,/LoRa_TX*%
X107941000Y-75176000D03*
%TO.P,J5,2,Pin_2*%
%TO.N,/LoRa_RX*%
X109191000Y-75176000D03*
%TO.P,J5,1,Pin_1*%
%TO.N,+5V*%
X110441000Y-75176000D03*
D13*
%TO.P,J5,*%
%TO.N,*%
X102466000Y-71976000D03*
X112166000Y-71976000D03*
%TD*%
D11*
%TO.P,R13,2*%
%TO.N,GND*%
X101058000Y-124901000D03*
%TO.P,R13,1*%
%TO.N,Net-(D4-K)*%
X101058000Y-126551000D03*
%TD*%
D10*
%TO.P,D4,1,K*%
%TO.N,Net-(D4-K)*%
X99558000Y-126513500D03*
%TO.P,D4,2,A*%
%TO.N,/LED_ON*%
X99558000Y-124938500D03*
%TD*%
D14*
%TO.P,J2,S1,SHIELD*%
%TO.N,GND*%
X87948000Y-73151000D03*
X87948000Y-77081000D03*
X98168000Y-73151000D03*
X98168000Y-77081000D03*
D15*
%TO.P,J2,B12,GND*%
X96258000Y-77656000D03*
%TO.P,J2,B9,VBUS*%
%TO.N,VBUS*%
X95458000Y-77656000D03*
D16*
%TO.P,J2,B8*%
%TO.N,N/C*%
X94808000Y-77656000D03*
%TO.P,J2,B7,D-*%
%TO.N,/USB_CONN_D-*%
X93808000Y-77656000D03*
%TO.P,J2,B6,D+*%
%TO.N,/USB_CONN_D+*%
X92308000Y-77656000D03*
%TO.P,J2,B5,CC2*%
%TO.N,Net-(J2-CC2)*%
X91308000Y-77656000D03*
D15*
%TO.P,J2,B4,VBUS*%
%TO.N,VBUS*%
X90658000Y-77656000D03*
%TO.P,J2,B1,GND*%
%TO.N,GND*%
X89858000Y-77656000D03*
%TO.P,J2,A12,GND*%
X89858000Y-77656000D03*
%TO.P,J2,A9,VBUS*%
%TO.N,VBUS*%
X90658000Y-77656000D03*
D16*
%TO.P,J2,A8*%
%TO.N,N/C*%
X91808000Y-77656000D03*
%TO.P,J2,A7,D-*%
%TO.N,/USB_CONN_D-*%
X92808000Y-77656000D03*
%TO.P,J2,A6,D+*%
%TO.N,/USB_CONN_D+*%
X93308000Y-77656000D03*
%TO.P,J2,A5,CC1*%
%TO.N,Net-(J2-CC1)*%
X94308000Y-77656000D03*
D15*
%TO.P,J2,A4,VBUS*%
%TO.N,VBUS*%
X95458000Y-77656000D03*
%TO.P,J2,A1,GND*%
%TO.N,GND*%
X96258000Y-77656000D03*
%TD*%
D17*
%TO.P,U4,24,NC*%
%TO.N,unconnected-(U4-NC-Pad24)*%
X112250000Y-84130000D03*
%TO.P,U4,23,GND*%
%TO.N,Net-(R14-Pad2)*%
X112250000Y-86670000D03*
%TO.P,U4,22,RESET*%
%TO.N,unconnected-(U4-RESET-Pad22)*%
X112250000Y-89210000D03*
%TO.P,U4,21,NC*%
%TO.N,unconnected-(U4-NC-Pad21)*%
X112250000Y-91750000D03*
%TO.P,U4,20,NC*%
%TO.N,unconnected-(U4-NC-Pad20)*%
X112250000Y-94290000D03*
%TO.P,U4,19,NC*%
%TO.N,unconnected-(U4-NC-Pad19)*%
X112250000Y-96830000D03*
%TO.P,U4,18,NC*%
%TO.N,unconnected-(U4-NC-Pad18)*%
X112250000Y-99370000D03*
D18*
%TO.P,U4,14,GND*%
%TO.N,GND*%
X106770000Y-120250000D03*
%TO.P,U4,13,GND*%
X104230000Y-120250000D03*
%TO.P,U4,12,GND*%
X95770000Y-120250000D03*
%TO.P,U4,11,ANT*%
%TO.N,Net-(J3-In)*%
X93230000Y-120250000D03*
D17*
%TO.P,U4,7,M0*%
%TO.N,/LoRa_M0*%
X87750000Y-99370000D03*
%TO.P,U4,6,M1*%
%TO.N,/LoRa_M1*%
X87750000Y-96830000D03*
%TO.P,U4,5,RXD*%
%TO.N,/LoRa_RX*%
X87750000Y-94290000D03*
%TO.P,U4,4,TXD*%
%TO.N,/LoRa_TX*%
X87750000Y-91750000D03*
%TO.P,U4,3,AUX*%
%TO.N,/LoRa_AUX*%
X87750000Y-89210000D03*
%TO.P,U4,2,VCC*%
%TO.N,+5V*%
X87750000Y-86670000D03*
%TO.P,U4,1,GND*%
%TO.N,GND*%
X87750000Y-84130000D03*
%TD*%
D10*
%TO.P,D2,2,A*%
%TO.N,/LED_TX*%
X106558000Y-124938500D03*
%TO.P,D2,1,K*%
%TO.N,Net-(D2-K)*%
X106558000Y-126513500D03*
%TD*%
D19*
%TO.P,J3,2,Ext*%
%TO.N,GND*%
X89821000Y-125117500D03*
X96196000Y-125117500D03*
%TO.P,J3,1,In*%
%TO.N,Net-(J3-In)*%
X92946000Y-125117500D03*
%TD*%
D20*
%TO.N,/LoRa_RX*%
X91308000Y-94226000D03*
D21*
X103558000Y-88726000D03*
%TO.N,/LoRa_TX*%
X102308000Y-88726000D03*
D22*
%TO.N,+3.3V*%
X111558000Y-78226000D03*
D20*
%TO.N,GND*%
X89308000Y-78976000D03*
X108058000Y-124476000D03*
X104558000Y-124476000D03*
X101058000Y-124476000D03*
%TO.N,/LED_TX*%
X106558000Y-124476000D03*
%TO.N,/LED_RX*%
X103058000Y-124476000D03*
%TO.N,/LED_ON*%
X99558000Y-124476000D03*
%TO.N,/LoRa_M1*%
X98308000Y-86226000D03*
%TO.N,/LoRa_M0*%
X98958000Y-84076000D03*
D22*
%TO.N,/USB_CONN_D-*%
X92708000Y-78989590D03*
%TO.N,/USB_CONN_D+*%
X93408000Y-78989590D03*
%TO.N,GND*%
X102308000Y-84726000D03*
X102558000Y-87226000D03*
%TO.N,+5V*%
X107558000Y-72226000D03*
D21*
%TO.N,GND*%
X96908000Y-78576000D03*
%TO.N,/BOOT0*%
X100308000Y-83226000D03*
X95058000Y-73976000D03*
%TO.N,/NRST*%
X93808000Y-73976000D03*
X102058000Y-85476000D03*
%TO.N,/SWCLK*%
X92808000Y-73976000D03*
%TO.N,/SWDIO*%
X91558000Y-73976000D03*
%TO.N,/SWCLK*%
X96039671Y-83439341D03*
%TO.N,/SWDIO*%
X96308000Y-83976000D03*
D22*
%TO.N,GND*%
X105808000Y-77576000D03*
X105808000Y-76576000D03*
X105808000Y-77076000D03*
X109808000Y-76476000D03*
X109808000Y-76976000D03*
X109808000Y-77476000D03*
D20*
%TO.N,Net-(R14-Pad2)*%
X110058000Y-86726000D03*
%TO.N,GND*%
X94808000Y-96726000D03*
%TO.N,+3.3V*%
X94808000Y-94226000D03*
%TO.N,/LoRa_AUX*%
X92058000Y-89226000D03*
%TO.N,/LoRa_M1*%
X91308000Y-96726000D03*
%TO.N,/LoRa_M0*%
X91308000Y-99226000D03*
D22*
%TO.N,+5V*%
X88308000Y-85976000D03*
%TO.N,VBUS*%
X87558000Y-75476000D03*
D21*
%TO.N,Net-(J2-CC1)*%
X94308000Y-78476000D03*
%TO.N,Net-(J2-CC2)*%
X90716428Y-78731000D03*
D20*
%TO.N,VBUS*%
X94808000Y-80226000D03*
D22*
%TO.N,+3.3V*%
X90058000Y-73976000D03*
D20*
%TO.N,GND*%
X105308000Y-87226000D03*
%TO.N,+3.3V*%
X105308000Y-85726000D03*
%TO.N,GND*%
X90808000Y-87976000D03*
%TO.N,+3.3V*%
X90808000Y-84976000D03*
%TD*%
D23*
%TO.N,/LoRa_RX*%
X98808000Y-93226000D02*
X91808000Y-93226000D01*
X91808000Y-93226000D02*
X90808000Y-94226000D01*
X102808000Y-89226000D02*
X98808000Y-93226000D01*
X90808000Y-94226000D02*
X87814000Y-94226000D01*
X91308000Y-94226000D02*
X90808000Y-94226000D01*
X103308000Y-88726000D02*
X102808000Y-89226000D01*
X87814000Y-94226000D02*
X87750000Y-94290000D01*
X103308000Y-88726000D02*
X103308000Y-82426100D01*
X103308000Y-88726000D02*
X103459000Y-88575000D01*
X103308000Y-82426100D02*
X104033050Y-81701050D01*
X109191000Y-76543100D02*
X104033050Y-81701050D01*
%TO.N,/LoRa_TX*%
X107941000Y-77093000D02*
X103808000Y-81226000D01*
X103808000Y-81226000D02*
X100808000Y-84226000D01*
%TO.N,/LoRa_RX*%
X109191000Y-75176000D02*
X109191000Y-76543100D01*
%TO.N,/LoRa_TX*%
X107941000Y-75176000D02*
X107941000Y-77093000D01*
X100808000Y-84226000D02*
X100808000Y-90226000D01*
X100808000Y-90226000D02*
X102308000Y-88726000D01*
X99284000Y-91750000D02*
X100808000Y-90226000D01*
X87750000Y-91750000D02*
X99284000Y-91750000D01*
D24*
%TO.N,Net-(J3-In)*%
X92946000Y-125117500D02*
X92946000Y-120534000D01*
D23*
X92946000Y-120534000D02*
X93230000Y-120250000D01*
%TO.N,GND*%
X108058000Y-124901000D02*
X108058000Y-124476000D01*
X104558000Y-124901000D02*
X104558000Y-124476000D01*
X101058000Y-124901000D02*
X101058000Y-124476000D01*
%TO.N,Net-(D2-K)*%
X108020500Y-126513500D02*
X108058000Y-126551000D01*
X106558000Y-126513500D02*
X108020500Y-126513500D01*
%TO.N,Net-(D3-K)*%
X104520500Y-126513500D02*
X104558000Y-126551000D01*
X103058000Y-126513500D02*
X104520500Y-126513500D01*
%TO.N,Net-(D4-K)*%
X101020500Y-126513500D02*
X101058000Y-126551000D01*
X99558000Y-126513500D02*
X101020500Y-126513500D01*
%TO.N,/LED_TX*%
X106558000Y-124938500D02*
X106558000Y-124476000D01*
%TO.N,/LED_RX*%
X103058000Y-124938500D02*
X103058000Y-124476000D01*
%TO.N,/LED_ON*%
X99558000Y-124938500D02*
X99558000Y-124476000D01*
%TO.N,/USB_CONN_D+*%
X93408000Y-79126000D02*
X93408000Y-78989590D01*
X92182000Y-78771713D02*
X92182000Y-79207467D01*
X92308000Y-78645713D02*
X92182000Y-78771713D01*
X92490123Y-79515590D02*
X93018410Y-79515590D01*
X93018410Y-79515590D02*
X93408000Y-79126000D01*
X92308000Y-77656000D02*
X92308000Y-78645713D01*
X92182000Y-79207467D02*
X92490123Y-79515590D01*
%TO.N,/USB_CONN_D-*%
X92832999Y-78864591D02*
X92708000Y-78989590D01*
%TO.N,/USB_CONN_D+*%
X93283001Y-77680999D02*
X93283001Y-78864591D01*
X93283001Y-78864591D02*
X93408000Y-78989590D01*
%TO.N,/USB_CONN_D-*%
X92832999Y-77680999D02*
X92832999Y-78864591D01*
D25*
%TO.N,+5V*%
X107558000Y-72226000D02*
X109558000Y-72226000D01*
X109558000Y-72226000D02*
X110441000Y-73109000D01*
X110441000Y-73109000D02*
X110441000Y-75176000D01*
D23*
%TO.N,Net-(R14-Pad2)*%
X110058000Y-86726000D02*
X110114000Y-86670000D01*
X110114000Y-86670000D02*
X112250000Y-86670000D01*
%TO.N,/LoRa_AUX*%
X92042000Y-89210000D02*
X92058000Y-89226000D01*
X87750000Y-89210000D02*
X92042000Y-89210000D01*
%TO.N,/LoRa_M0*%
X91308000Y-99226000D02*
X87894000Y-99226000D01*
X87894000Y-99226000D02*
X87750000Y-99370000D01*
%TO.N,/LoRa_M1*%
X87854000Y-96726000D02*
X87750000Y-96830000D01*
X91308000Y-96726000D02*
X87854000Y-96726000D01*
D25*
%TO.N,VBUS*%
X90602000Y-75476000D02*
X87558000Y-75476000D01*
X91455000Y-76329000D02*
X90602000Y-75476000D01*
D23*
%TO.N,Net-(J2-CC1)*%
X94308000Y-78476000D02*
X94308000Y-77656000D01*
D25*
%TO.N,VBUS*%
X95458000Y-79576000D02*
X94808000Y-80226000D01*
X95458000Y-77656000D02*
X95458000Y-79576000D01*
D23*
%TO.N,/USB_CONN_D+*%
X92308000Y-77656000D02*
X92308000Y-78264824D01*
%TO.N,/USB_CONN_D-*%
X92808000Y-77047176D02*
X92808000Y-77656000D01*
X93540824Y-76780000D02*
X93075176Y-76780000D01*
X93808000Y-77656000D02*
X93808000Y-77047176D01*
X93808000Y-77047176D02*
X93540824Y-76780000D01*
X93075176Y-76780000D02*
X92808000Y-77047176D01*
D25*
%TO.N,VBUS*%
X95458000Y-77081001D02*
X95458000Y-77656000D01*
X90658000Y-77126000D02*
X91455000Y-76329000D01*
X94705999Y-76329000D02*
X95458000Y-77081001D01*
X90658000Y-77656000D02*
X90658000Y-77126000D01*
X91455000Y-76329000D02*
X94705999Y-76329000D01*
D23*
%TO.N,/USB_CONN_D+*%
X93308000Y-77656000D02*
X93283001Y-77680999D01*
%TO.N,/USB_CONN_D-*%
X92808000Y-77656000D02*
X92832999Y-77680999D01*
%TO.N,Net-(J2-CC2)*%
X90716428Y-78731000D02*
X90807999Y-78731000D01*
X90807999Y-78731000D02*
X91308000Y-78230999D01*
X91308000Y-78230999D02*
X91308000Y-77656000D01*
%TD*%
%TA.AperFunction,Conductor*%
%TO.N,GND*%
G36*
X113751039Y-70245685D02*
G01*
X113796794Y-70298489D01*
X113808000Y-70350000D01*
X113808000Y-82532415D01*
X113788315Y-82599454D01*
X113735511Y-82645209D01*
X113666353Y-82655153D01*
X113643047Y-82649457D01*
X113629261Y-82644633D01*
X113629249Y-82644630D01*
X113494960Y-82629500D01*
X113494954Y-82629500D01*
X111005046Y-82629500D01*
X111005039Y-82629500D01*
X110870750Y-82644630D01*
X110870745Y-82644631D01*
X110700476Y-82704211D01*
X110547737Y-82800184D01*
X110420184Y-82927737D01*
X110324211Y-83080476D01*
X110264631Y-83250745D01*
X110264630Y-83250750D01*
X110249500Y-83385039D01*
X110249500Y-84874960D01*
X110264630Y-85009249D01*
X110264631Y-85009254D01*
X110324211Y-85179523D01*
X110421293Y-85334028D01*
X110440293Y-85401265D01*
X110421293Y-85465972D01*
X110324211Y-85620476D01*
X110264631Y-85790745D01*
X110264631Y-85790748D01*
X110261855Y-85815385D01*
X110234788Y-85879798D01*
X110177193Y-85919353D01*
X110138635Y-85925500D01*
X109979155Y-85925500D01*
X109824510Y-85956261D01*
X109824498Y-85956264D01*
X109678827Y-86016602D01*
X109678814Y-86016609D01*
X109547711Y-86104210D01*
X109547707Y-86104213D01*
X109436213Y-86215707D01*
X109436210Y-86215711D01*
X109348609Y-86346814D01*
X109348602Y-86346827D01*
X109288264Y-86492498D01*
X109288261Y-86492510D01*
X109257500Y-86647153D01*
X109257500Y-86804846D01*
X109288261Y-86959489D01*
X109288264Y-86959501D01*
X109348602Y-87105172D01*
X109348609Y-87105185D01*
X109436210Y-87236288D01*
X109436213Y-87236292D01*
X109547707Y-87347786D01*
X109547711Y-87347789D01*
X109678814Y-87435390D01*
X109678827Y-87435397D01*
X109824498Y-87495735D01*
X109824503Y-87495737D01*
X109979153Y-87526499D01*
X109979156Y-87526500D01*
X109979158Y-87526500D01*
X110136843Y-87526500D01*
X110143211Y-87525233D01*
X110212803Y-87531457D01*
X110267982Y-87574317D01*
X110284449Y-87605894D01*
X110324209Y-87719519D01*
X110421293Y-87874028D01*
X110440293Y-87941265D01*
X110421293Y-88005972D01*
X110324211Y-88160476D01*
X110264631Y-88330745D01*
X110264630Y-88330750D01*
X110249500Y-88465039D01*
X110249500Y-89954960D01*
X110264630Y-90089249D01*
X110264631Y-90089254D01*
X110324211Y-90259523D01*
X110421293Y-90414028D01*
X110440293Y-90481265D01*
X110421293Y-90545972D01*
X110324211Y-90700476D01*
X110264631Y-90870745D01*
X110264630Y-90870750D01*
X110249500Y-91005039D01*
X110249500Y-92494960D01*
X110264630Y-92629249D01*
X110264631Y-92629254D01*
X110324211Y-92799523D01*
X110421293Y-92954028D01*
X110440293Y-93021265D01*
X110421293Y-93085972D01*
X110324211Y-93240476D01*
X110264631Y-93410745D01*
X110264630Y-93410750D01*
X110249500Y-93545039D01*
X110249500Y-95034960D01*
X110264630Y-95169249D01*
X110264631Y-95169254D01*
X110324211Y-95339523D01*
X110421293Y-95494028D01*
X110440293Y-95561265D01*
X110421293Y-95625972D01*
X110324211Y-95780476D01*
X110264631Y-95950745D01*
X110264630Y-95950750D01*
X110249500Y-96085039D01*
X110249500Y-97574960D01*
X110264630Y-97709249D01*
X110264631Y-97709254D01*
X110324211Y-97879523D01*
X110421293Y-98034028D01*
X110440293Y-98101265D01*
X110421293Y-98165972D01*
X110324211Y-98320476D01*
X110264631Y-98490745D01*
X110264630Y-98490750D01*
X110249500Y-98625039D01*
X110249500Y-100114960D01*
X110264630Y-100249249D01*
X110264631Y-100249254D01*
X110324211Y-100419523D01*
X110407500Y-100552075D01*
X110420184Y-100572262D01*
X110547738Y-100699816D01*
X110700478Y-100795789D01*
X110856959Y-100850544D01*
X110870745Y-100855368D01*
X110870750Y-100855369D01*
X110945883Y-100863834D01*
X111005040Y-100870499D01*
X111005043Y-100870500D01*
X111005046Y-100870500D01*
X113494957Y-100870500D01*
X113494958Y-100870499D01*
X113562104Y-100862934D01*
X113629249Y-100855369D01*
X113629251Y-100855368D01*
X113629255Y-100855368D01*
X113635767Y-100853089D01*
X113643042Y-100850544D01*
X113712821Y-100846980D01*
X113773449Y-100881707D01*
X113805678Y-100943699D01*
X113808000Y-100967584D01*
X113808000Y-127602000D01*
X113788315Y-127669039D01*
X113735511Y-127714794D01*
X113684000Y-127726000D01*
X97570000Y-127726000D01*
X97502961Y-127706315D01*
X97457206Y-127653511D01*
X97446000Y-127602000D01*
X97446000Y-125367500D01*
X94946000Y-125367500D01*
X94946000Y-127602000D01*
X94926315Y-127669039D01*
X94873511Y-127714794D01*
X94822000Y-127726000D01*
X94320500Y-127726000D01*
X94253461Y-127706315D01*
X94207706Y-127653511D01*
X94196500Y-127602000D01*
X94196499Y-122529629D01*
X94196498Y-122529623D01*
X94196497Y-122529616D01*
X94190091Y-122470017D01*
X94163597Y-122398984D01*
X94147570Y-122356012D01*
X94142586Y-122286320D01*
X94176071Y-122224997D01*
X94222798Y-122195637D01*
X94279522Y-122175789D01*
X94432262Y-122079816D01*
X94432262Y-122079815D01*
X94434498Y-122078411D01*
X94501735Y-122059411D01*
X94566442Y-122078411D01*
X94720698Y-122175336D01*
X94897429Y-122237177D01*
X94896975Y-122238472D01*
X94951312Y-122268856D01*
X94984178Y-122330513D01*
X94978935Y-122398984D01*
X94952403Y-122470119D01*
X94952401Y-122470127D01*
X94946000Y-122529655D01*
X94946000Y-124867500D01*
X97446000Y-124867500D01*
X97446000Y-124671818D01*
X98582500Y-124671818D01*
X98582500Y-125205181D01*
X98592563Y-125303683D01*
X98645450Y-125463284D01*
X98645455Y-125463295D01*
X98733716Y-125606387D01*
X98733719Y-125606391D01*
X98765647Y-125638319D01*
X98799132Y-125699642D01*
X98794148Y-125769334D01*
X98765647Y-125813681D01*
X98733719Y-125845608D01*
X98733716Y-125845612D01*
X98645455Y-125988704D01*
X98645450Y-125988715D01*
X98626234Y-126046707D01*
X98592564Y-126148315D01*
X98592564Y-126148316D01*
X98592563Y-126148316D01*
X98582500Y-126246818D01*
X98582500Y-126780181D01*
X98592563Y-126878683D01*
X98645450Y-127038284D01*
X98645455Y-127038295D01*
X98733716Y-127181387D01*
X98733719Y-127181391D01*
X98852608Y-127300280D01*
X98852612Y-127300283D01*
X98995704Y-127388544D01*
X98995707Y-127388545D01*
X98995713Y-127388549D01*
X99155315Y-127441436D01*
X99253826Y-127451500D01*
X99253831Y-127451500D01*
X99862169Y-127451500D01*
X99862174Y-127451500D01*
X99960685Y-127441436D01*
X100120287Y-127388549D01*
X100235664Y-127317383D01*
X100303053Y-127298943D01*
X100364906Y-127316804D01*
X100493394Y-127394478D01*
X100655804Y-127445086D01*
X100726384Y-127451500D01*
X100726387Y-127451500D01*
X101389613Y-127451500D01*
X101389616Y-127451500D01*
X101460196Y-127445086D01*
X101622606Y-127394478D01*
X101768185Y-127306472D01*
X101888472Y-127186185D01*
X101955771Y-127074858D01*
X102007298Y-127027672D01*
X102076157Y-127015834D01*
X102140486Y-127043103D01*
X102167425Y-127073913D01*
X102233716Y-127181387D01*
X102233719Y-127181391D01*
X102352608Y-127300280D01*
X102352612Y-127300283D01*
X102495704Y-127388544D01*
X102495707Y-127388545D01*
X102495713Y-127388549D01*
X102655315Y-127441436D01*
X102753826Y-127451500D01*
X102753831Y-127451500D01*
X103362169Y-127451500D01*
X103362174Y-127451500D01*
X103460685Y-127441436D01*
X103620287Y-127388549D01*
X103735664Y-127317383D01*
X103803053Y-127298943D01*
X103864906Y-127316804D01*
X103993394Y-127394478D01*
X104155804Y-127445086D01*
X104226384Y-127451500D01*
X104226387Y-127451500D01*
X104889613Y-127451500D01*
X104889616Y-127451500D01*
X104960196Y-127445086D01*
X105122606Y-127394478D01*
X105268185Y-127306472D01*
X105388472Y-127186185D01*
X105455771Y-127074858D01*
X105507298Y-127027672D01*
X105576157Y-127015834D01*
X105640486Y-127043103D01*
X105667425Y-127073913D01*
X105733716Y-127181387D01*
X105733719Y-127181391D01*
X105852608Y-127300280D01*
X105852612Y-127300283D01*
X105995704Y-127388544D01*
X105995707Y-127388545D01*
X105995713Y-127388549D01*
X106155315Y-127441436D01*
X106253826Y-127451500D01*
X106253831Y-127451500D01*
X106862169Y-127451500D01*
X106862174Y-127451500D01*
X106960685Y-127441436D01*
X107120287Y-127388549D01*
X107235664Y-127317383D01*
X107303053Y-127298943D01*
X107364906Y-127316804D01*
X107493394Y-127394478D01*
X107655804Y-127445086D01*
X107726384Y-127451500D01*
X107726387Y-127451500D01*
X108389613Y-127451500D01*
X108389616Y-127451500D01*
X108460196Y-127445086D01*
X108622606Y-127394478D01*
X108768185Y-127306472D01*
X108888472Y-127186185D01*
X108976478Y-127040606D01*
X109027086Y-126878196D01*
X109033500Y-126807616D01*
X109033500Y-126294384D01*
X109027086Y-126223804D01*
X108976478Y-126061394D01*
X108888472Y-125915815D01*
X108888470Y-125915813D01*
X108888469Y-125915811D01*
X108785984Y-125813326D01*
X108752499Y-125752003D01*
X108757483Y-125682311D01*
X108785985Y-125637963D01*
X108888071Y-125535878D01*
X108888072Y-125535877D01*
X108976019Y-125390395D01*
X109026590Y-125228106D01*
X109033000Y-125157572D01*
X109033000Y-125151000D01*
X108182000Y-125151000D01*
X108114961Y-125131315D01*
X108069206Y-125078511D01*
X108058000Y-125027000D01*
X108058000Y-124901000D01*
X107932000Y-124901000D01*
X107864961Y-124881315D01*
X107819206Y-124828511D01*
X107808000Y-124777000D01*
X107808000Y-124651000D01*
X108308000Y-124651000D01*
X109032999Y-124651000D01*
X109032999Y-124644417D01*
X109026591Y-124573897D01*
X109026590Y-124573892D01*
X108976018Y-124411603D01*
X108888072Y-124266122D01*
X108767877Y-124145927D01*
X108622395Y-124057980D01*
X108622396Y-124057980D01*
X108460105Y-124007409D01*
X108460106Y-124007409D01*
X108389572Y-124001000D01*
X108308000Y-124001000D01*
X108308000Y-124651000D01*
X107808000Y-124651000D01*
X107808000Y-124001000D01*
X107807999Y-124000999D01*
X107726417Y-124001000D01*
X107655897Y-124007408D01*
X107655892Y-124007409D01*
X107493601Y-124057981D01*
X107493599Y-124057982D01*
X107415405Y-124105252D01*
X107347850Y-124123088D01*
X107281377Y-124101570D01*
X107248154Y-124068026D01*
X107179789Y-123965711D01*
X107179786Y-123965707D01*
X107068292Y-123854213D01*
X107068288Y-123854210D01*
X106937185Y-123766609D01*
X106937172Y-123766602D01*
X106791501Y-123706264D01*
X106791489Y-123706261D01*
X106636845Y-123675500D01*
X106636842Y-123675500D01*
X106479158Y-123675500D01*
X106479155Y-123675500D01*
X106324510Y-123706261D01*
X106324498Y-123706264D01*
X106178827Y-123766602D01*
X106178814Y-123766609D01*
X106047711Y-123854210D01*
X106047707Y-123854213D01*
X105936213Y-123965707D01*
X105936210Y-123965711D01*
X105848609Y-124096814D01*
X105848606Y-124096821D01*
X105816395Y-124174583D01*
X105800909Y-124201695D01*
X105795666Y-124208660D01*
X105733719Y-124270609D01*
X105664124Y-124383438D01*
X105660666Y-124388034D01*
X105637064Y-124405607D01*
X105615181Y-124425290D01*
X105609357Y-124426237D01*
X105604625Y-124429761D01*
X105575263Y-124431784D01*
X105546218Y-124436511D01*
X105540807Y-124434160D01*
X105534920Y-124434566D01*
X105509121Y-124420392D01*
X105482136Y-124408667D01*
X105477095Y-124402797D01*
X105473684Y-124400923D01*
X105470588Y-124395219D01*
X105455474Y-124377618D01*
X105388072Y-124266122D01*
X105267877Y-124145927D01*
X105122395Y-124057980D01*
X105122396Y-124057980D01*
X104960105Y-124007409D01*
X104960106Y-124007409D01*
X104889572Y-124001000D01*
X104808000Y-124001000D01*
X104808000Y-124777000D01*
X104788315Y-124844039D01*
X104735511Y-124889794D01*
X104684000Y-124901000D01*
X104432000Y-124901000D01*
X104364961Y-124881315D01*
X104319206Y-124828511D01*
X104308000Y-124777000D01*
X104308000Y-124001000D01*
X104307999Y-124000999D01*
X104226417Y-124001000D01*
X104155897Y-124007408D01*
X104155892Y-124007409D01*
X103993601Y-124057981D01*
X103993599Y-124057982D01*
X103915405Y-124105252D01*
X103847850Y-124123088D01*
X103781377Y-124101570D01*
X103748154Y-124068026D01*
X103679789Y-123965711D01*
X103679786Y-123965707D01*
X103568292Y-123854213D01*
X103568288Y-123854210D01*
X103437185Y-123766609D01*
X103437172Y-123766602D01*
X103291501Y-123706264D01*
X103291489Y-123706261D01*
X103136845Y-123675500D01*
X103136842Y-123675500D01*
X102979158Y-123675500D01*
X102979155Y-123675500D01*
X102824510Y-123706261D01*
X102824498Y-123706264D01*
X102678827Y-123766602D01*
X102678814Y-123766609D01*
X102547711Y-123854210D01*
X102547707Y-123854213D01*
X102436213Y-123965707D01*
X102436210Y-123965711D01*
X102348609Y-124096814D01*
X102348606Y-124096821D01*
X102316395Y-124174583D01*
X102300909Y-124201695D01*
X102295666Y-124208660D01*
X102233719Y-124270609D01*
X102164124Y-124383438D01*
X102160666Y-124388034D01*
X102137064Y-124405607D01*
X102115181Y-124425290D01*
X102109357Y-124426237D01*
X102104625Y-124429761D01*
X102075263Y-124431784D01*
X102046218Y-124436511D01*
X102040807Y-124434160D01*
X102034920Y-124434566D01*
X102009121Y-124420392D01*
X101982136Y-124408667D01*
X101977095Y-124402797D01*
X101973684Y-124400923D01*
X101970588Y-124395219D01*
X101955474Y-124377618D01*
X101888072Y-124266122D01*
X101767877Y-124145927D01*
X101622395Y-124057980D01*
X101622396Y-124057980D01*
X101460105Y-124007409D01*
X101460106Y-124007409D01*
X101389572Y-124001000D01*
X101308000Y-124001000D01*
X101308000Y-124777000D01*
X101288315Y-124844039D01*
X101235511Y-124889794D01*
X101184000Y-124901000D01*
X100932000Y-124901000D01*
X100864961Y-124881315D01*
X100819206Y-124828511D01*
X100808000Y-124777000D01*
X100808000Y-124001000D01*
X100807999Y-124000999D01*
X100726417Y-124001000D01*
X100655897Y-124007408D01*
X100655892Y-124007409D01*
X100493601Y-124057981D01*
X100493599Y-124057982D01*
X100415405Y-124105252D01*
X100347850Y-124123088D01*
X100281377Y-124101570D01*
X100248154Y-124068026D01*
X100179789Y-123965711D01*
X100179786Y-123965707D01*
X100068292Y-123854213D01*
X100068288Y-123854210D01*
X99937185Y-123766609D01*
X99937172Y-123766602D01*
X99791501Y-123706264D01*
X99791489Y-123706261D01*
X99636845Y-123675500D01*
X99636842Y-123675500D01*
X99479158Y-123675500D01*
X99479155Y-123675500D01*
X99324510Y-123706261D01*
X99324498Y-123706264D01*
X99178827Y-123766602D01*
X99178814Y-123766609D01*
X99047711Y-123854210D01*
X99047707Y-123854213D01*
X98936213Y-123965707D01*
X98936210Y-123965711D01*
X98848609Y-124096814D01*
X98848606Y-124096821D01*
X98816395Y-124174583D01*
X98789517Y-124214808D01*
X98733720Y-124270607D01*
X98733716Y-124270612D01*
X98645455Y-124413704D01*
X98645450Y-124413715D01*
X98638541Y-124434566D01*
X98592564Y-124573315D01*
X98592564Y-124573316D01*
X98592563Y-124573316D01*
X98582500Y-124671818D01*
X97446000Y-124671818D01*
X97446000Y-122529672D01*
X97445999Y-122529655D01*
X97439598Y-122470127D01*
X97439596Y-122470120D01*
X97389354Y-122335413D01*
X97389350Y-122335406D01*
X97303190Y-122220312D01*
X97303187Y-122220309D01*
X97188093Y-122134149D01*
X97188083Y-122134144D01*
X97166185Y-122125976D01*
X97110252Y-122084104D01*
X97085836Y-122018639D01*
X97100689Y-121950367D01*
X97104527Y-121943822D01*
X97106743Y-121940294D01*
X95680905Y-120514456D01*
X95647420Y-120453133D01*
X95652404Y-120383441D01*
X95680905Y-120339093D01*
X95769999Y-120249999D01*
X96123552Y-120249999D01*
X96123552Y-120250000D01*
X97269999Y-121396448D01*
X102730000Y-121396448D01*
X103876448Y-120250000D01*
X103876448Y-120249999D01*
X102730000Y-119103551D01*
X102730000Y-121396448D01*
X97269999Y-121396448D01*
X97270000Y-121396447D01*
X97270000Y-119103552D01*
X97269999Y-119103551D01*
X96123552Y-120249999D01*
X95769999Y-120249999D01*
X95680905Y-120160905D01*
X95647420Y-120099582D01*
X95652404Y-120029890D01*
X95680905Y-119985543D01*
X97106743Y-118559704D01*
X97106743Y-118559702D01*
X102893255Y-118559702D01*
X102893255Y-118559703D01*
X104319095Y-119985543D01*
X104352580Y-120046866D01*
X104347596Y-120116558D01*
X104319095Y-120160905D01*
X104230000Y-120250000D01*
X104319094Y-120339094D01*
X104352579Y-120400417D01*
X104347595Y-120470109D01*
X104319094Y-120514456D01*
X102893255Y-121940295D01*
X102893255Y-121940296D01*
X102900577Y-121951948D01*
X103028053Y-122079423D01*
X103180698Y-122175336D01*
X103350858Y-122234877D01*
X103485069Y-122249999D01*
X103485070Y-122250000D01*
X104974930Y-122250000D01*
X104974930Y-122249999D01*
X105109141Y-122234877D01*
X105279301Y-122175336D01*
X105434028Y-122078115D01*
X105501264Y-122059115D01*
X105565972Y-122078115D01*
X105720698Y-122175336D01*
X105890858Y-122234877D01*
X106025069Y-122249999D01*
X106025070Y-122250000D01*
X107514930Y-122250000D01*
X107514930Y-122249999D01*
X107649141Y-122234877D01*
X107819301Y-122175336D01*
X107971946Y-122079423D01*
X108099420Y-121951950D01*
X108099423Y-121951947D01*
X108106744Y-121940295D01*
X106680905Y-120514456D01*
X106647420Y-120453133D01*
X106652404Y-120383441D01*
X106680905Y-120339093D01*
X106769999Y-120249999D01*
X107123552Y-120249999D01*
X107123552Y-120250000D01*
X108269999Y-121396448D01*
X108270000Y-121396447D01*
X108270000Y-119103552D01*
X108269999Y-119103551D01*
X107123552Y-120249999D01*
X106769999Y-120249999D01*
X106680905Y-120160905D01*
X106647420Y-120099582D01*
X106652404Y-120029890D01*
X106680905Y-119985543D01*
X108106743Y-118559704D01*
X108106743Y-118559702D01*
X108099423Y-118548053D01*
X108099420Y-118548049D01*
X107971948Y-118420577D01*
X107819301Y-118324663D01*
X107649141Y-118265122D01*
X107514930Y-118250000D01*
X106025070Y-118250000D01*
X105890858Y-118265122D01*
X105720698Y-118324663D01*
X105565972Y-118421884D01*
X105498735Y-118440884D01*
X105434028Y-118421884D01*
X105279301Y-118324663D01*
X105109141Y-118265122D01*
X104974930Y-118250000D01*
X103485070Y-118250000D01*
X103350858Y-118265122D01*
X103180698Y-118324663D01*
X103028053Y-118420576D01*
X102900576Y-118548052D01*
X102893255Y-118559702D01*
X97106743Y-118559702D01*
X97099423Y-118548053D01*
X97099420Y-118548049D01*
X96971948Y-118420577D01*
X96819301Y-118324663D01*
X96649141Y-118265122D01*
X96514930Y-118250000D01*
X95025070Y-118250000D01*
X94890858Y-118265122D01*
X94720698Y-118324663D01*
X94566441Y-118421589D01*
X94499204Y-118440589D01*
X94434497Y-118421588D01*
X94279526Y-118324212D01*
X94109254Y-118264631D01*
X94109249Y-118264630D01*
X93974960Y-118249500D01*
X93974954Y-118249500D01*
X92485046Y-118249500D01*
X92485039Y-118249500D01*
X92350750Y-118264630D01*
X92350745Y-118264631D01*
X92180476Y-118324211D01*
X92027737Y-118420184D01*
X91900184Y-118547737D01*
X91804211Y-118700476D01*
X91744631Y-118870745D01*
X91744630Y-118870750D01*
X91729500Y-119005039D01*
X91729500Y-121494960D01*
X91744630Y-121629249D01*
X91744631Y-121629254D01*
X91804211Y-121799523D01*
X91872348Y-121907961D01*
X91900184Y-121952262D01*
X91925658Y-121977736D01*
X91959142Y-122039060D01*
X91954156Y-122108751D01*
X91912287Y-122164682D01*
X91838452Y-122219955D01*
X91752206Y-122335164D01*
X91752202Y-122335171D01*
X91701908Y-122470017D01*
X91695501Y-122529616D01*
X91695500Y-122529627D01*
X91695500Y-125078511D01*
X91695501Y-127602000D01*
X91675816Y-127669039D01*
X91623012Y-127714794D01*
X91571501Y-127726000D01*
X91195000Y-127726000D01*
X91127961Y-127706315D01*
X91082206Y-127653511D01*
X91071000Y-127602000D01*
X91071000Y-125367500D01*
X88571000Y-125367500D01*
X88571000Y-127602000D01*
X88551315Y-127669039D01*
X88498511Y-127714794D01*
X88447000Y-127726000D01*
X86432000Y-127726000D01*
X86364961Y-127706315D01*
X86319206Y-127653511D01*
X86308000Y-127602000D01*
X86308000Y-122529655D01*
X88571000Y-122529655D01*
X88571000Y-124867500D01*
X89571000Y-124867500D01*
X90071000Y-124867500D01*
X91071000Y-124867500D01*
X91071000Y-122529672D01*
X91070999Y-122529655D01*
X91064598Y-122470127D01*
X91064596Y-122470120D01*
X91014354Y-122335413D01*
X91014350Y-122335406D01*
X90928190Y-122220312D01*
X90928187Y-122220309D01*
X90813093Y-122134149D01*
X90813086Y-122134145D01*
X90678379Y-122083903D01*
X90678372Y-122083901D01*
X90618844Y-122077500D01*
X90071000Y-122077500D01*
X90071000Y-124867500D01*
X89571000Y-124867500D01*
X89571000Y-122077500D01*
X89023155Y-122077500D01*
X88963627Y-122083901D01*
X88963620Y-122083903D01*
X88828913Y-122134145D01*
X88828906Y-122134149D01*
X88713812Y-122220309D01*
X88713809Y-122220312D01*
X88627649Y-122335406D01*
X88627645Y-122335413D01*
X88577403Y-122470120D01*
X88577401Y-122470127D01*
X88571000Y-122529655D01*
X86308000Y-122529655D01*
X86308000Y-100987054D01*
X86327685Y-100920015D01*
X86380489Y-100874260D01*
X86445883Y-100863834D01*
X86505042Y-100870499D01*
X86505043Y-100870500D01*
X86505046Y-100870500D01*
X88994957Y-100870500D01*
X88994958Y-100870499D01*
X89062104Y-100862934D01*
X89129249Y-100855369D01*
X89129252Y-100855368D01*
X89129255Y-100855368D01*
X89299522Y-100795789D01*
X89452262Y-100699816D01*
X89579816Y-100572262D01*
X89675789Y-100419522D01*
X89735368Y-100249255D01*
X89750500Y-100114954D01*
X89750500Y-99950500D01*
X89770185Y-99883461D01*
X89822989Y-99837706D01*
X89874500Y-99826500D01*
X90728234Y-99826500D01*
X90795273Y-99846185D01*
X90797125Y-99847398D01*
X90928814Y-99935390D01*
X90928827Y-99935397D01*
X91074498Y-99995735D01*
X91074503Y-99995737D01*
X91229153Y-100026499D01*
X91229156Y-100026500D01*
X91229158Y-100026500D01*
X91386844Y-100026500D01*
X91386845Y-100026499D01*
X91541497Y-99995737D01*
X91687179Y-99935394D01*
X91818289Y-99847789D01*
X91929789Y-99736289D01*
X92017394Y-99605179D01*
X92077737Y-99459497D01*
X92108500Y-99304842D01*
X92108500Y-99147158D01*
X92108500Y-99147155D01*
X92108499Y-99147153D01*
X92077738Y-98992510D01*
X92077737Y-98992503D01*
X92077735Y-98992498D01*
X92017397Y-98846827D01*
X92017390Y-98846814D01*
X91929789Y-98715711D01*
X91929786Y-98715707D01*
X91818292Y-98604213D01*
X91818288Y-98604210D01*
X91687185Y-98516609D01*
X91687172Y-98516602D01*
X91541501Y-98456264D01*
X91541489Y-98456261D01*
X91386845Y-98425500D01*
X91386842Y-98425500D01*
X91229158Y-98425500D01*
X91229155Y-98425500D01*
X91074510Y-98456261D01*
X91074498Y-98456264D01*
X90928827Y-98516602D01*
X90928814Y-98516609D01*
X90797125Y-98604602D01*
X90730447Y-98625480D01*
X90728234Y-98625500D01*
X89861365Y-98625500D01*
X89794326Y-98605815D01*
X89748571Y-98553011D01*
X89738145Y-98515385D01*
X89736226Y-98498367D01*
X89735368Y-98490745D01*
X89675789Y-98320478D01*
X89579816Y-98167738D01*
X89579815Y-98167737D01*
X89578706Y-98165972D01*
X89559706Y-98098736D01*
X89578706Y-98034028D01*
X89592500Y-98012075D01*
X89675789Y-97879522D01*
X89735368Y-97709255D01*
X89750500Y-97574954D01*
X89750500Y-97450500D01*
X89770185Y-97383461D01*
X89822989Y-97337706D01*
X89874500Y-97326500D01*
X90728234Y-97326500D01*
X90795273Y-97346185D01*
X90797125Y-97347398D01*
X90928814Y-97435390D01*
X90928827Y-97435397D01*
X91074498Y-97495735D01*
X91074503Y-97495737D01*
X91229153Y-97526499D01*
X91229156Y-97526500D01*
X91229158Y-97526500D01*
X91386844Y-97526500D01*
X91386845Y-97526499D01*
X91541497Y-97495737D01*
X91687179Y-97435394D01*
X91818289Y-97347789D01*
X91929789Y-97236289D01*
X92017394Y-97105179D01*
X92077737Y-96959497D01*
X92108500Y-96804842D01*
X92108500Y-96647158D01*
X92108500Y-96647155D01*
X92108499Y-96647153D01*
X92077738Y-96492510D01*
X92077737Y-96492503D01*
X92077735Y-96492498D01*
X92017397Y-96346827D01*
X92017390Y-96346814D01*
X91929789Y-96215711D01*
X91929786Y-96215707D01*
X91818292Y-96104213D01*
X91818288Y-96104210D01*
X91687185Y-96016609D01*
X91687172Y-96016602D01*
X91541501Y-95956264D01*
X91541489Y-95956261D01*
X91386845Y-95925500D01*
X91386842Y-95925500D01*
X91229158Y-95925500D01*
X91229155Y-95925500D01*
X91074510Y-95956261D01*
X91074498Y-95956264D01*
X90928827Y-96016602D01*
X90928814Y-96016609D01*
X90797125Y-96104602D01*
X90730447Y-96125480D01*
X90728234Y-96125500D01*
X89865872Y-96125500D01*
X89798833Y-96105815D01*
X89753078Y-96053011D01*
X89742652Y-96015384D01*
X89735369Y-95950749D01*
X89735368Y-95950745D01*
X89726534Y-95925500D01*
X89675789Y-95780478D01*
X89579816Y-95627738D01*
X89579815Y-95627737D01*
X89578706Y-95625972D01*
X89559706Y-95558736D01*
X89578706Y-95494028D01*
X89592500Y-95472075D01*
X89675789Y-95339522D01*
X89735368Y-95169255D01*
X89750500Y-95034954D01*
X89750500Y-94950500D01*
X89770185Y-94883461D01*
X89822989Y-94837706D01*
X89874500Y-94826500D01*
X90721349Y-94826500D01*
X90728254Y-94826501D01*
X90732632Y-94827787D01*
X90736711Y-94827458D01*
X90736719Y-94827459D01*
X90736534Y-94828933D01*
X90765211Y-94837358D01*
X90795275Y-94846186D01*
X90795286Y-94846193D01*
X90795291Y-94846195D01*
X90795293Y-94846198D01*
X90797127Y-94847399D01*
X90928814Y-94935390D01*
X90928827Y-94935397D01*
X91074498Y-94995735D01*
X91074503Y-94995737D01*
X91229153Y-95026499D01*
X91229156Y-95026500D01*
X91229158Y-95026500D01*
X91386844Y-95026500D01*
X91386845Y-95026499D01*
X91541497Y-94995737D01*
X91687179Y-94935394D01*
X91818289Y-94847789D01*
X91929789Y-94736289D01*
X92017394Y-94605179D01*
X92077737Y-94459497D01*
X92108500Y-94304842D01*
X92108500Y-94147158D01*
X92108500Y-94147155D01*
X92108499Y-94147153D01*
X92077739Y-93992511D01*
X92075970Y-93986680D01*
X92078677Y-93985858D01*
X92072540Y-93928399D01*
X92103858Y-93865942D01*
X92163972Y-93830331D01*
X92194555Y-93826500D01*
X93921445Y-93826500D01*
X93988484Y-93846185D01*
X94034239Y-93898989D01*
X94044183Y-93968147D01*
X94039159Y-93986411D01*
X94040031Y-93986676D01*
X94038261Y-93992510D01*
X94007500Y-94147153D01*
X94007500Y-94304846D01*
X94038261Y-94459489D01*
X94038264Y-94459501D01*
X94098602Y-94605172D01*
X94098609Y-94605185D01*
X94186210Y-94736288D01*
X94186213Y-94736292D01*
X94297707Y-94847786D01*
X94297711Y-94847789D01*
X94428814Y-94935390D01*
X94428827Y-94935397D01*
X94574498Y-94995735D01*
X94574503Y-94995737D01*
X94729153Y-95026499D01*
X94729156Y-95026500D01*
X94729158Y-95026500D01*
X94886844Y-95026500D01*
X94886845Y-95026499D01*
X95041497Y-94995737D01*
X95187179Y-94935394D01*
X95318289Y-94847789D01*
X95429789Y-94736289D01*
X95517394Y-94605179D01*
X95577737Y-94459497D01*
X95608500Y-94304842D01*
X95608500Y-94147158D01*
X95608500Y-94147155D01*
X95608499Y-94147153D01*
X95577737Y-93992503D01*
X95577732Y-93992492D01*
X95575969Y-93986676D01*
X95578720Y-93985841D01*
X95572497Y-93928641D01*
X95603691Y-93866122D01*
X95663734Y-93830392D01*
X95694555Y-93826500D01*
X98721331Y-93826500D01*
X98721347Y-93826501D01*
X98728943Y-93826501D01*
X98887054Y-93826501D01*
X98887057Y-93826501D01*
X99039785Y-93785577D01*
X99089904Y-93756639D01*
X99176716Y-93706520D01*
X99288520Y-93594716D01*
X99288520Y-93594714D01*
X99298728Y-93584507D01*
X99298729Y-93584504D01*
X103288519Y-89594716D01*
X103347069Y-89536166D01*
X103347081Y-89536153D01*
X103420417Y-89462816D01*
X103481739Y-89429334D01*
X103508096Y-89426500D01*
X103626995Y-89426500D01*
X103718041Y-89408389D01*
X103762328Y-89399580D01*
X103889811Y-89346775D01*
X104004542Y-89270114D01*
X104102114Y-89172542D01*
X104178775Y-89057811D01*
X104231580Y-88930328D01*
X104258500Y-88794993D01*
X104258500Y-88657007D01*
X104258500Y-88657004D01*
X104231581Y-88521677D01*
X104231580Y-88521676D01*
X104231580Y-88521672D01*
X104208122Y-88465039D01*
X104178778Y-88394195D01*
X104178771Y-88394182D01*
X104102114Y-88279458D01*
X104102111Y-88279454D01*
X104004545Y-88181888D01*
X104004538Y-88181883D01*
X103963608Y-88154533D01*
X103918803Y-88100920D01*
X103908500Y-88051432D01*
X103908500Y-85647153D01*
X104507500Y-85647153D01*
X104507500Y-85804846D01*
X104538261Y-85959489D01*
X104538264Y-85959501D01*
X104598602Y-86105172D01*
X104598609Y-86105185D01*
X104686210Y-86236288D01*
X104686213Y-86236292D01*
X104797707Y-86347786D01*
X104797711Y-86347789D01*
X104928814Y-86435390D01*
X104928827Y-86435397D01*
X105066683Y-86492498D01*
X105074503Y-86495737D01*
X105229153Y-86526499D01*
X105229156Y-86526500D01*
X105229158Y-86526500D01*
X105386844Y-86526500D01*
X105386845Y-86526499D01*
X105541497Y-86495737D01*
X105687179Y-86435394D01*
X105818289Y-86347789D01*
X105929789Y-86236289D01*
X106017394Y-86105179D01*
X106077737Y-85959497D01*
X106108500Y-85804842D01*
X106108500Y-85647158D01*
X106108500Y-85647155D01*
X106108499Y-85647153D01*
X106082531Y-85516606D01*
X106077737Y-85492503D01*
X106066553Y-85465503D01*
X106017397Y-85346827D01*
X106017390Y-85346814D01*
X105929789Y-85215711D01*
X105929786Y-85215707D01*
X105818292Y-85104213D01*
X105818288Y-85104210D01*
X105687185Y-85016609D01*
X105687172Y-85016602D01*
X105541501Y-84956264D01*
X105541489Y-84956261D01*
X105386845Y-84925500D01*
X105386842Y-84925500D01*
X105229158Y-84925500D01*
X105229155Y-84925500D01*
X105074510Y-84956261D01*
X105074498Y-84956264D01*
X104928827Y-85016602D01*
X104928814Y-85016609D01*
X104797711Y-85104210D01*
X104797707Y-85104213D01*
X104686213Y-85215707D01*
X104686210Y-85215711D01*
X104598609Y-85346814D01*
X104598602Y-85346827D01*
X104538264Y-85492498D01*
X104538261Y-85492510D01*
X104507500Y-85647153D01*
X103908500Y-85647153D01*
X103908500Y-82726197D01*
X103928185Y-82659158D01*
X103944819Y-82638516D01*
X104069887Y-82513448D01*
X104513570Y-82069766D01*
X104513570Y-82069764D01*
X104523774Y-82059561D01*
X104523778Y-82059556D01*
X108285877Y-78297457D01*
X110832499Y-78297457D01*
X110860379Y-78437614D01*
X110860381Y-78437620D01*
X110915069Y-78569650D01*
X110915074Y-78569659D01*
X110994467Y-78688478D01*
X110994470Y-78688482D01*
X111095517Y-78789529D01*
X111095521Y-78789532D01*
X111214340Y-78868925D01*
X111214346Y-78868928D01*
X111214347Y-78868929D01*
X111346380Y-78923619D01*
X111346384Y-78923619D01*
X111346385Y-78923620D01*
X111486542Y-78951500D01*
X111486545Y-78951500D01*
X111629457Y-78951500D01*
X111723751Y-78932742D01*
X111769620Y-78923619D01*
X111901653Y-78868929D01*
X112020479Y-78789532D01*
X112121532Y-78688479D01*
X112200929Y-78569653D01*
X112255619Y-78437620D01*
X112283500Y-78297455D01*
X112283500Y-78154545D01*
X112283500Y-78154542D01*
X112255620Y-78014385D01*
X112255619Y-78014384D01*
X112255619Y-78014380D01*
X112200929Y-77882347D01*
X112200928Y-77882346D01*
X112200925Y-77882340D01*
X112121532Y-77763521D01*
X112121529Y-77763517D01*
X112020482Y-77662470D01*
X112020478Y-77662467D01*
X111901659Y-77583074D01*
X111901650Y-77583069D01*
X111769620Y-77528381D01*
X111769614Y-77528379D01*
X111629457Y-77500500D01*
X111629455Y-77500500D01*
X111486545Y-77500500D01*
X111486543Y-77500500D01*
X111346385Y-77528379D01*
X111346379Y-77528381D01*
X111214349Y-77583069D01*
X111214340Y-77583074D01*
X111095521Y-77662467D01*
X111095517Y-77662470D01*
X110994470Y-77763517D01*
X110994467Y-77763521D01*
X110915074Y-77882340D01*
X110915069Y-77882349D01*
X110860381Y-78014379D01*
X110860379Y-78014385D01*
X110832500Y-78154542D01*
X110832500Y-78154545D01*
X110832500Y-78297455D01*
X110832500Y-78297457D01*
X110832499Y-78297457D01*
X108285877Y-78297457D01*
X109549506Y-77033828D01*
X109549511Y-77033824D01*
X109559714Y-77023620D01*
X109559716Y-77023620D01*
X109671520Y-76911816D01*
X109727190Y-76815392D01*
X109750577Y-76774885D01*
X109791501Y-76622157D01*
X109791501Y-76621746D01*
X109793407Y-76616214D01*
X109811217Y-76591128D01*
X109827234Y-76564852D01*
X109831263Y-76562894D01*
X109833856Y-76559243D01*
X109862404Y-76547767D01*
X109890081Y-76534323D01*
X109894743Y-76534768D01*
X109898684Y-76533184D01*
X109919146Y-76537098D01*
X109953974Y-76540423D01*
X110019471Y-76564852D01*
X110033511Y-76570089D01*
X110033517Y-76570091D01*
X110093127Y-76576500D01*
X110788872Y-76576499D01*
X110848483Y-76570091D01*
X110983331Y-76519796D01*
X111098546Y-76433546D01*
X111184796Y-76318331D01*
X111235091Y-76183483D01*
X111241500Y-76123873D01*
X111241499Y-74228128D01*
X111235091Y-74168517D01*
X111192263Y-74053690D01*
X111184797Y-74033671D01*
X111184795Y-74033668D01*
X111116233Y-73942080D01*
X111108494Y-73921332D01*
X111096523Y-73902704D01*
X111093371Y-73880785D01*
X111091816Y-73876615D01*
X111091500Y-73867769D01*
X111091500Y-73815954D01*
X111111185Y-73748915D01*
X111163989Y-73703160D01*
X111233147Y-73693216D01*
X111296703Y-73722241D01*
X111303181Y-73728273D01*
X111308455Y-73733547D01*
X111423664Y-73819793D01*
X111423671Y-73819797D01*
X111558517Y-73870091D01*
X111558516Y-73870091D01*
X111565444Y-73870835D01*
X111618127Y-73876500D01*
X112713872Y-73876499D01*
X112773483Y-73870091D01*
X112908331Y-73819796D01*
X113023546Y-73733546D01*
X113109796Y-73618331D01*
X113160091Y-73483483D01*
X113166500Y-73423873D01*
X113166499Y-70528128D01*
X113160091Y-70468517D01*
X113155062Y-70455034D01*
X113132050Y-70393332D01*
X113127066Y-70323641D01*
X113160552Y-70262318D01*
X113221875Y-70228834D01*
X113248232Y-70226000D01*
X113684000Y-70226000D01*
X113751039Y-70245685D01*
G37*
%TD.AperFunction*%
%TA.AperFunction,Conductor*%
G36*
X101450807Y-70245685D02*
G01*
X101496562Y-70298489D01*
X101506506Y-70367647D01*
X101499950Y-70393332D01*
X101471909Y-70468514D01*
X101471908Y-70468516D01*
X101465501Y-70528116D01*
X101465501Y-70528123D01*
X101465500Y-70528135D01*
X101465500Y-73423870D01*
X101465501Y-73423876D01*
X101471908Y-73483483D01*
X101522202Y-73618328D01*
X101522206Y-73618335D01*
X101608452Y-73733544D01*
X101608455Y-73733547D01*
X101723664Y-73819793D01*
X101723671Y-73819797D01*
X101858517Y-73870091D01*
X101858516Y-73870091D01*
X101865444Y-73870835D01*
X101918127Y-73876500D01*
X103013872Y-73876499D01*
X103073483Y-73870091D01*
X103208331Y-73819796D01*
X103323546Y-73733546D01*
X103409796Y-73618331D01*
X103460091Y-73483483D01*
X103466500Y-73423873D01*
X103466499Y-70528128D01*
X103460091Y-70468517D01*
X103455062Y-70455034D01*
X103432050Y-70393332D01*
X103427066Y-70323641D01*
X103460552Y-70262318D01*
X103521875Y-70228834D01*
X103548232Y-70226000D01*
X111083768Y-70226000D01*
X111150807Y-70245685D01*
X111196562Y-70298489D01*
X111206506Y-70367647D01*
X111199950Y-70393332D01*
X111171909Y-70468514D01*
X111171908Y-70468516D01*
X111165501Y-70528116D01*
X111165501Y-70528123D01*
X111165500Y-70528135D01*
X111165500Y-72614899D01*
X111145815Y-72681938D01*
X111093011Y-72727693D01*
X111023853Y-72737637D01*
X110960297Y-72708612D01*
X110950586Y-72698636D01*
X110950585Y-72698638D01*
X109972673Y-71720726D01*
X109937387Y-71697149D01*
X109866127Y-71649535D01*
X109747744Y-71600499D01*
X109747738Y-71600497D01*
X109622071Y-71575500D01*
X109622069Y-71575500D01*
X107908040Y-71575500D01*
X107860587Y-71566061D01*
X107769620Y-71528381D01*
X107769614Y-71528379D01*
X107629457Y-71500500D01*
X107629455Y-71500500D01*
X107486545Y-71500500D01*
X107486543Y-71500500D01*
X107346385Y-71528379D01*
X107346379Y-71528381D01*
X107214349Y-71583069D01*
X107214340Y-71583074D01*
X107095521Y-71662467D01*
X107095517Y-71662470D01*
X106994470Y-71763517D01*
X106994467Y-71763521D01*
X106915074Y-71882340D01*
X106915069Y-71882349D01*
X106860381Y-72014379D01*
X106860379Y-72014385D01*
X106832500Y-72154542D01*
X106832500Y-72154545D01*
X106832500Y-72297455D01*
X106832500Y-72297457D01*
X106832499Y-72297457D01*
X106860379Y-72437614D01*
X106860381Y-72437620D01*
X106915069Y-72569650D01*
X106915074Y-72569659D01*
X106994467Y-72688478D01*
X106994470Y-72688482D01*
X107095517Y-72789529D01*
X107095521Y-72789532D01*
X107214340Y-72868925D01*
X107214346Y-72868928D01*
X107214347Y-72868929D01*
X107346380Y-72923619D01*
X107346384Y-72923619D01*
X107346385Y-72923620D01*
X107486542Y-72951500D01*
X107486545Y-72951500D01*
X107629457Y-72951500D01*
X107723751Y-72932742D01*
X107769620Y-72923619D01*
X107860587Y-72885938D01*
X107908040Y-72876500D01*
X109237192Y-72876500D01*
X109304231Y-72896185D01*
X109324873Y-72912819D01*
X109754181Y-73342127D01*
X109768884Y-73369054D01*
X109785477Y-73394873D01*
X109786368Y-73401073D01*
X109787666Y-73403450D01*
X109790500Y-73429808D01*
X109790500Y-73674933D01*
X109770815Y-73741972D01*
X109718011Y-73787727D01*
X109648853Y-73797671D01*
X109623168Y-73791115D01*
X109598488Y-73781910D01*
X109598484Y-73781909D01*
X109598483Y-73781909D01*
X109538873Y-73775500D01*
X109538863Y-73775500D01*
X108843129Y-73775500D01*
X108843123Y-73775501D01*
X108783516Y-73781908D01*
X108648671Y-73832202D01*
X108648662Y-73832207D01*
X108640307Y-73838462D01*
X108574842Y-73862877D01*
X108506570Y-73848023D01*
X108491693Y-73838462D01*
X108483337Y-73832207D01*
X108483328Y-73832202D01*
X108348486Y-73781910D01*
X108348485Y-73781909D01*
X108348483Y-73781909D01*
X108288873Y-73775500D01*
X108288863Y-73775500D01*
X107593129Y-73775500D01*
X107593123Y-73775501D01*
X107533516Y-73781908D01*
X107398671Y-73832202D01*
X107398662Y-73832207D01*
X107390307Y-73838462D01*
X107324842Y-73862877D01*
X107256570Y-73848023D01*
X107241693Y-73838462D01*
X107233337Y-73832207D01*
X107233328Y-73832202D01*
X107098486Y-73781910D01*
X107098485Y-73781909D01*
X107098483Y-73781909D01*
X107038873Y-73775500D01*
X107038863Y-73775500D01*
X106343129Y-73775500D01*
X106343123Y-73775501D01*
X106283516Y-73781908D01*
X106148671Y-73832202D01*
X106148662Y-73832207D01*
X106140307Y-73838462D01*
X106074842Y-73862877D01*
X106006570Y-73848023D01*
X105991693Y-73838462D01*
X105983337Y-73832207D01*
X105983328Y-73832202D01*
X105848486Y-73781910D01*
X105848485Y-73781909D01*
X105848483Y-73781909D01*
X105788873Y-73775500D01*
X105788863Y-73775500D01*
X105093129Y-73775500D01*
X105093123Y-73775501D01*
X105033516Y-73781908D01*
X104898671Y-73832202D01*
X104898666Y-73832205D01*
X104889890Y-73838775D01*
X104824425Y-73863189D01*
X104756152Y-73848335D01*
X104741276Y-73838774D01*
X104733095Y-73832650D01*
X104733086Y-73832645D01*
X104598379Y-73782403D01*
X104598372Y-73782401D01*
X104538844Y-73776000D01*
X104441000Y-73776000D01*
X104441000Y-76576000D01*
X104538828Y-76576000D01*
X104538844Y-76575999D01*
X104598372Y-76569598D01*
X104598376Y-76569597D01*
X104733089Y-76519351D01*
X104741268Y-76513229D01*
X104806732Y-76488809D01*
X104875005Y-76503658D01*
X104889894Y-76513227D01*
X104892265Y-76515002D01*
X104898668Y-76519796D01*
X104898670Y-76519797D01*
X104973155Y-76547577D01*
X105033517Y-76570091D01*
X105093127Y-76576500D01*
X105788872Y-76576499D01*
X105848483Y-76570091D01*
X105983331Y-76519796D01*
X105991687Y-76513539D01*
X106057149Y-76489121D01*
X106125422Y-76503970D01*
X106140304Y-76513534D01*
X106148669Y-76519796D01*
X106283517Y-76570091D01*
X106343127Y-76576500D01*
X107038872Y-76576499D01*
X107098483Y-76570091D01*
X107102623Y-76568547D01*
X107173167Y-76542236D01*
X107203775Y-76540047D01*
X107234147Y-76535680D01*
X107238302Y-76537577D01*
X107242859Y-76537252D01*
X107269791Y-76551958D01*
X107297703Y-76564705D01*
X107300172Y-76568547D01*
X107304182Y-76570737D01*
X107318886Y-76597667D01*
X107335477Y-76623483D01*
X107336368Y-76629685D01*
X107337666Y-76632061D01*
X107340500Y-76658418D01*
X107340500Y-76792902D01*
X107320815Y-76859941D01*
X107304181Y-76880583D01*
X103439284Y-80745480D01*
X101165967Y-83018796D01*
X101104644Y-83052281D01*
X101034952Y-83047297D01*
X100979019Y-83005425D01*
X100963729Y-82978575D01*
X100928775Y-82894189D01*
X100928773Y-82894186D01*
X100928771Y-82894182D01*
X100852114Y-82779458D01*
X100852111Y-82779454D01*
X100754545Y-82681888D01*
X100754541Y-82681885D01*
X100639817Y-82605228D01*
X100639804Y-82605221D01*
X100512332Y-82552421D01*
X100512322Y-82552418D01*
X100376995Y-82525500D01*
X100376993Y-82525500D01*
X100239007Y-82525500D01*
X100239005Y-82525500D01*
X100103677Y-82552418D01*
X100103667Y-82552421D01*
X99976195Y-82605221D01*
X99976182Y-82605228D01*
X99861458Y-82681885D01*
X99861454Y-82681888D01*
X99763888Y-82779454D01*
X99763885Y-82779458D01*
X99687228Y-82894182D01*
X99687221Y-82894195D01*
X99634421Y-83021667D01*
X99634418Y-83021677D01*
X99607500Y-83157004D01*
X99607500Y-83294995D01*
X99608097Y-83301058D01*
X99606162Y-83301248D01*
X99600720Y-83361901D01*
X99557843Y-83417068D01*
X99491948Y-83440296D01*
X99423955Y-83424211D01*
X99416451Y-83419574D01*
X99337184Y-83366609D01*
X99337172Y-83366602D01*
X99191501Y-83306264D01*
X99191489Y-83306261D01*
X99036845Y-83275500D01*
X99036842Y-83275500D01*
X98879158Y-83275500D01*
X98879155Y-83275500D01*
X98724510Y-83306261D01*
X98724498Y-83306264D01*
X98578827Y-83366602D01*
X98578814Y-83366609D01*
X98447711Y-83454210D01*
X98447707Y-83454213D01*
X98336213Y-83565707D01*
X98336210Y-83565711D01*
X98248609Y-83696814D01*
X98248602Y-83696827D01*
X98188264Y-83842498D01*
X98188261Y-83842510D01*
X98157500Y-83997153D01*
X98157500Y-84154846D01*
X98188261Y-84309489D01*
X98188264Y-84309501D01*
X98248602Y-84455172D01*
X98248609Y-84455185D01*
X98336210Y-84586288D01*
X98336213Y-84586292D01*
X98447707Y-84697786D01*
X98447711Y-84697789D01*
X98578814Y-84785390D01*
X98578827Y-84785397D01*
X98701652Y-84836272D01*
X98724503Y-84845737D01*
X98871225Y-84874922D01*
X98879153Y-84876499D01*
X98879156Y-84876500D01*
X98879158Y-84876500D01*
X99036844Y-84876500D01*
X99036845Y-84876499D01*
X99191497Y-84845737D01*
X99337179Y-84785394D01*
X99468289Y-84697789D01*
X99579789Y-84586289D01*
X99667394Y-84455179D01*
X99727737Y-84309497D01*
X99758500Y-84154842D01*
X99758500Y-83997158D01*
X99757684Y-83993057D01*
X99749037Y-83949586D01*
X99755264Y-83879994D01*
X99798126Y-83824816D01*
X99864016Y-83801571D01*
X99932013Y-83817638D01*
X99939545Y-83822291D01*
X99976182Y-83846771D01*
X99976195Y-83846778D01*
X100070604Y-83885883D01*
X100103672Y-83899580D01*
X100119795Y-83902787D01*
X100135322Y-83905876D01*
X100197233Y-83938261D01*
X100231807Y-83998976D01*
X100230906Y-84059586D01*
X100207499Y-84146943D01*
X100207499Y-84315046D01*
X100207500Y-84315059D01*
X100207500Y-89925903D01*
X100187815Y-89992942D01*
X100171181Y-90013584D01*
X99071584Y-91113181D01*
X99010261Y-91146666D01*
X98983903Y-91149500D01*
X89874500Y-91149500D01*
X89807461Y-91129815D01*
X89761706Y-91077011D01*
X89750500Y-91025500D01*
X89750500Y-91005043D01*
X89750499Y-91005039D01*
X89735369Y-90870750D01*
X89735368Y-90870745D01*
X89675789Y-90700478D01*
X89579816Y-90547738D01*
X89579815Y-90547737D01*
X89578706Y-90545972D01*
X89559706Y-90478736D01*
X89578706Y-90414028D01*
X89592500Y-90392075D01*
X89675789Y-90259522D01*
X89735368Y-90089255D01*
X89750500Y-89954954D01*
X89750500Y-89934500D01*
X89770185Y-89867461D01*
X89822989Y-89821706D01*
X89874500Y-89810500D01*
X91459059Y-89810500D01*
X91526098Y-89830185D01*
X91546740Y-89846819D01*
X91547707Y-89847786D01*
X91547711Y-89847789D01*
X91678814Y-89935390D01*
X91678827Y-89935397D01*
X91779907Y-89977265D01*
X91824503Y-89995737D01*
X91979153Y-90026499D01*
X91979156Y-90026500D01*
X91979158Y-90026500D01*
X92136844Y-90026500D01*
X92136845Y-90026499D01*
X92291497Y-89995737D01*
X92437179Y-89935394D01*
X92568289Y-89847789D01*
X92679789Y-89736289D01*
X92767394Y-89605179D01*
X92827737Y-89459497D01*
X92858500Y-89304842D01*
X92858500Y-89147158D01*
X92858500Y-89147155D01*
X92858499Y-89147153D01*
X92840729Y-89057817D01*
X92827737Y-88992503D01*
X92801985Y-88930332D01*
X92767397Y-88846827D01*
X92767390Y-88846814D01*
X92679789Y-88715711D01*
X92679786Y-88715707D01*
X92568292Y-88604213D01*
X92568288Y-88604210D01*
X92437185Y-88516609D01*
X92437172Y-88516602D01*
X92291501Y-88456264D01*
X92291489Y-88456261D01*
X92136845Y-88425500D01*
X92136842Y-88425500D01*
X91979158Y-88425500D01*
X91979155Y-88425500D01*
X91824510Y-88456261D01*
X91824498Y-88456264D01*
X91678827Y-88516602D01*
X91678814Y-88516609D01*
X91571071Y-88588602D01*
X91504394Y-88609480D01*
X91502180Y-88609500D01*
X89874500Y-88609500D01*
X89807461Y-88589815D01*
X89761706Y-88537011D01*
X89750500Y-88485500D01*
X89750500Y-88465043D01*
X89750499Y-88465039D01*
X89749510Y-88456264D01*
X89742517Y-88394195D01*
X89735369Y-88330750D01*
X89735368Y-88330745D01*
X89717422Y-88279458D01*
X89675789Y-88160478D01*
X89579816Y-88007738D01*
X89579815Y-88007737D01*
X89578706Y-88005972D01*
X89559706Y-87938736D01*
X89578706Y-87874028D01*
X89592500Y-87852075D01*
X89675789Y-87719522D01*
X89735368Y-87549255D01*
X89737374Y-87531457D01*
X89742934Y-87482104D01*
X89750500Y-87414954D01*
X89750500Y-86147153D01*
X97507500Y-86147153D01*
X97507500Y-86304846D01*
X97538261Y-86459489D01*
X97538264Y-86459501D01*
X97598602Y-86605172D01*
X97598609Y-86605185D01*
X97686210Y-86736288D01*
X97686213Y-86736292D01*
X97797707Y-86847786D01*
X97797711Y-86847789D01*
X97928814Y-86935390D01*
X97928827Y-86935397D01*
X98074498Y-86995735D01*
X98074503Y-86995737D01*
X98229153Y-87026499D01*
X98229156Y-87026500D01*
X98229158Y-87026500D01*
X98386844Y-87026500D01*
X98386845Y-87026499D01*
X98541497Y-86995737D01*
X98687179Y-86935394D01*
X98818289Y-86847789D01*
X98929789Y-86736289D01*
X99017394Y-86605179D01*
X99077737Y-86459497D01*
X99108500Y-86304842D01*
X99108500Y-86147158D01*
X99108500Y-86147155D01*
X99108499Y-86147153D01*
X99083181Y-86019873D01*
X99077737Y-85992503D01*
X99064062Y-85959489D01*
X99017397Y-85846827D01*
X99017390Y-85846814D01*
X98929789Y-85715711D01*
X98929786Y-85715707D01*
X98818292Y-85604213D01*
X98818288Y-85604210D01*
X98687185Y-85516609D01*
X98687172Y-85516602D01*
X98541501Y-85456264D01*
X98541489Y-85456261D01*
X98386845Y-85425500D01*
X98386842Y-85425500D01*
X98229158Y-85425500D01*
X98229155Y-85425500D01*
X98074510Y-85456261D01*
X98074498Y-85456264D01*
X97928827Y-85516602D01*
X97928814Y-85516609D01*
X97797711Y-85604210D01*
X97797707Y-85604213D01*
X97686213Y-85715707D01*
X97686210Y-85715711D01*
X97598609Y-85846814D01*
X97598602Y-85846827D01*
X97538264Y-85992498D01*
X97538261Y-85992510D01*
X97507500Y-86147153D01*
X89750500Y-86147153D01*
X89750500Y-85925046D01*
X89741686Y-85846821D01*
X89735369Y-85790750D01*
X89735368Y-85790745D01*
X89675788Y-85620475D01*
X89595377Y-85492503D01*
X89579816Y-85467738D01*
X89579814Y-85467736D01*
X89578411Y-85465503D01*
X89559410Y-85398266D01*
X89578410Y-85333558D01*
X89675336Y-85179301D01*
X89734878Y-85009141D01*
X89747496Y-84897153D01*
X90007500Y-84897153D01*
X90007500Y-85054846D01*
X90038261Y-85209489D01*
X90038264Y-85209501D01*
X90098602Y-85355172D01*
X90098609Y-85355185D01*
X90186210Y-85486288D01*
X90186213Y-85486292D01*
X90297707Y-85597786D01*
X90297711Y-85597789D01*
X90428814Y-85685390D01*
X90428827Y-85685397D01*
X90502013Y-85715711D01*
X90574503Y-85745737D01*
X90729153Y-85776499D01*
X90729156Y-85776500D01*
X90729158Y-85776500D01*
X90886844Y-85776500D01*
X90886845Y-85776499D01*
X91041497Y-85745737D01*
X91187179Y-85685394D01*
X91318289Y-85597789D01*
X91429789Y-85486289D01*
X91517394Y-85355179D01*
X91520854Y-85346827D01*
X91575163Y-85215711D01*
X91577737Y-85209497D01*
X91608500Y-85054842D01*
X91608500Y-84897158D01*
X91608500Y-84897155D01*
X91608499Y-84897153D01*
X91604391Y-84876499D01*
X91577737Y-84742503D01*
X91539248Y-84649581D01*
X91517397Y-84596827D01*
X91517390Y-84596814D01*
X91429789Y-84465711D01*
X91429786Y-84465707D01*
X91318292Y-84354213D01*
X91318288Y-84354210D01*
X91187185Y-84266609D01*
X91187172Y-84266602D01*
X91041501Y-84206264D01*
X91041489Y-84206261D01*
X90886845Y-84175500D01*
X90886842Y-84175500D01*
X90729158Y-84175500D01*
X90729155Y-84175500D01*
X90574510Y-84206261D01*
X90574498Y-84206264D01*
X90428827Y-84266602D01*
X90428814Y-84266609D01*
X90297711Y-84354210D01*
X90297707Y-84354213D01*
X90186213Y-84465707D01*
X90186210Y-84465711D01*
X90098609Y-84596814D01*
X90098602Y-84596827D01*
X90038264Y-84742498D01*
X90038261Y-84742510D01*
X90007500Y-84897153D01*
X89747496Y-84897153D01*
X89749746Y-84877183D01*
X89749746Y-84877176D01*
X89750000Y-84874922D01*
X89750000Y-83508336D01*
X95339170Y-83508336D01*
X95366089Y-83643663D01*
X95366092Y-83643673D01*
X95418892Y-83771145D01*
X95418899Y-83771158D01*
X95495555Y-83885881D01*
X95495556Y-83885882D01*
X95495557Y-83885883D01*
X95571182Y-83961508D01*
X95604666Y-84022829D01*
X95606402Y-84038982D01*
X95606903Y-84038933D01*
X95607499Y-84044995D01*
X95634418Y-84180322D01*
X95634421Y-84180332D01*
X95687221Y-84307804D01*
X95687228Y-84307817D01*
X95763885Y-84422541D01*
X95763888Y-84422545D01*
X95861454Y-84520111D01*
X95861458Y-84520114D01*
X95976182Y-84596771D01*
X95976195Y-84596778D01*
X96103667Y-84649578D01*
X96103672Y-84649580D01*
X96103676Y-84649580D01*
X96103677Y-84649581D01*
X96239004Y-84676500D01*
X96239007Y-84676500D01*
X96376995Y-84676500D01*
X96468041Y-84658389D01*
X96512328Y-84649580D01*
X96610924Y-84608740D01*
X96639804Y-84596778D01*
X96639804Y-84596777D01*
X96639811Y-84596775D01*
X96754542Y-84520114D01*
X96852114Y-84422542D01*
X96928775Y-84307811D01*
X96929915Y-84305060D01*
X96953717Y-84247595D01*
X96981580Y-84180328D01*
X96990389Y-84136041D01*
X97008500Y-84044995D01*
X97008500Y-83907004D01*
X96981581Y-83771677D01*
X96981580Y-83771676D01*
X96981580Y-83771672D01*
X96980935Y-83770114D01*
X96928778Y-83644195D01*
X96928771Y-83644182D01*
X96852114Y-83529458D01*
X96852111Y-83529454D01*
X96776490Y-83453833D01*
X96743005Y-83392510D01*
X96741268Y-83376358D01*
X96740768Y-83376408D01*
X96740171Y-83370345D01*
X96713252Y-83235018D01*
X96713251Y-83235017D01*
X96713251Y-83235013D01*
X96713249Y-83235008D01*
X96660449Y-83107536D01*
X96660442Y-83107523D01*
X96583785Y-82992799D01*
X96583782Y-82992795D01*
X96486216Y-82895229D01*
X96486212Y-82895226D01*
X96371488Y-82818569D01*
X96371475Y-82818562D01*
X96244003Y-82765762D01*
X96243993Y-82765759D01*
X96108666Y-82738841D01*
X96108664Y-82738841D01*
X95970678Y-82738841D01*
X95970676Y-82738841D01*
X95835348Y-82765759D01*
X95835338Y-82765762D01*
X95707866Y-82818562D01*
X95707853Y-82818569D01*
X95593129Y-82895226D01*
X95593125Y-82895229D01*
X95495559Y-82992795D01*
X95495556Y-82992799D01*
X95418899Y-83107523D01*
X95418892Y-83107536D01*
X95366092Y-83235008D01*
X95366089Y-83235018D01*
X95339171Y-83370345D01*
X95339171Y-83370348D01*
X95339171Y-83508334D01*
X95339171Y-83508336D01*
X95339170Y-83508336D01*
X89750000Y-83508336D01*
X89750000Y-83385072D01*
X89749219Y-83378142D01*
X89749219Y-83378140D01*
X89734877Y-83250858D01*
X89675336Y-83080698D01*
X89579423Y-82928053D01*
X89451948Y-82800577D01*
X89440296Y-82793255D01*
X89440295Y-82793255D01*
X88014456Y-84219094D01*
X87953133Y-84252579D01*
X87883441Y-84247595D01*
X87839094Y-84219094D01*
X87660905Y-84040905D01*
X87627420Y-83979582D01*
X87632404Y-83909890D01*
X87660905Y-83865543D01*
X88896448Y-82630000D01*
X86505064Y-82630000D01*
X86445882Y-82636668D01*
X86377061Y-82624613D01*
X86325682Y-82577263D01*
X86308000Y-82513448D01*
X86308000Y-78701000D01*
X86308000Y-78334299D01*
X86327685Y-78267260D01*
X86380489Y-78221505D01*
X86446397Y-78211138D01*
X86462435Y-78213012D01*
X87594448Y-77081000D01*
X86462434Y-75948986D01*
X86446396Y-75950861D01*
X86377524Y-75939092D01*
X86325948Y-75891957D01*
X86322925Y-75886679D01*
X86308000Y-75859077D01*
X86308000Y-75404545D01*
X86832500Y-75404545D01*
X86832500Y-75547455D01*
X86844476Y-75607664D01*
X86844966Y-75616356D01*
X86842250Y-75627988D01*
X86842062Y-75638258D01*
X86855401Y-75662687D01*
X86855852Y-75664854D01*
X86860379Y-75687612D01*
X86860381Y-75687620D01*
X86915069Y-75819650D01*
X86915074Y-75819659D01*
X86994467Y-75938478D01*
X86994470Y-75938482D01*
X87095517Y-76039529D01*
X87095521Y-76039532D01*
X87214340Y-76118925D01*
X87214346Y-76118928D01*
X87214347Y-76118929D01*
X87346380Y-76173619D01*
X87369145Y-76178147D01*
X87431055Y-76210530D01*
X87432635Y-76212083D01*
X88037095Y-76816543D01*
X88070580Y-76877866D01*
X88065596Y-76947558D01*
X88037095Y-76991905D01*
X87948000Y-77081000D01*
X88037094Y-77170094D01*
X88070579Y-77231417D01*
X88065595Y-77301109D01*
X88037094Y-77345456D01*
X86847700Y-78534849D01*
X86955308Y-78570506D01*
X86955305Y-78570506D01*
X87058019Y-78580999D01*
X88837972Y-78580999D01*
X88837985Y-78580998D01*
X88915117Y-78573117D01*
X88838905Y-78496905D01*
X88805420Y-78435582D01*
X88810404Y-78365890D01*
X88838905Y-78321543D01*
X89504448Y-77656000D01*
X88838905Y-76990457D01*
X88805420Y-76929134D01*
X88810404Y-76859442D01*
X88838905Y-76815095D01*
X89017095Y-76636905D01*
X89078418Y-76603420D01*
X89148110Y-76608404D01*
X89192457Y-76636905D01*
X89821181Y-77265629D01*
X89854666Y-77326952D01*
X89857500Y-77353310D01*
X89857500Y-77958689D01*
X89837815Y-78025728D01*
X89821181Y-78046370D01*
X89287656Y-78579894D01*
X89306442Y-78598681D01*
X89306447Y-78598685D01*
X89447803Y-78682282D01*
X89447806Y-78682283D01*
X89605504Y-78728099D01*
X89605510Y-78728100D01*
X89642350Y-78730999D01*
X89642366Y-78731000D01*
X89900440Y-78731000D01*
X89967479Y-78750685D01*
X90013234Y-78803489D01*
X90022057Y-78830808D01*
X90042846Y-78935322D01*
X90042849Y-78935332D01*
X90095649Y-79062804D01*
X90095656Y-79062817D01*
X90172313Y-79177541D01*
X90172316Y-79177545D01*
X90269882Y-79275111D01*
X90269886Y-79275114D01*
X90384610Y-79351771D01*
X90384623Y-79351778D01*
X90512095Y-79404578D01*
X90512100Y-79404580D01*
X90512104Y-79404580D01*
X90512105Y-79404581D01*
X90647432Y-79431500D01*
X90647435Y-79431500D01*
X90785423Y-79431500D01*
X90876469Y-79413389D01*
X90920756Y-79404580D01*
X91048239Y-79351775D01*
X91162970Y-79275114D01*
X91260542Y-79177542D01*
X91337203Y-79062811D01*
X91337208Y-79062798D01*
X91340074Y-79057439D01*
X91340877Y-79057868D01*
X91341827Y-79053504D01*
X91362973Y-79025259D01*
X91369827Y-79018405D01*
X91431151Y-78984927D01*
X91500842Y-78989916D01*
X91556773Y-79031792D01*
X91581185Y-79097258D01*
X91581500Y-79106095D01*
X91581500Y-79120797D01*
X91581499Y-79120815D01*
X91581499Y-79286521D01*
X91581498Y-79286521D01*
X91613133Y-79404581D01*
X91622423Y-79439252D01*
X91632243Y-79456261D01*
X91651358Y-79489367D01*
X91651359Y-79489371D01*
X91651360Y-79489371D01*
X91701480Y-79576183D01*
X91813284Y-79687987D01*
X91813285Y-79687988D01*
X92121407Y-79996110D01*
X92121409Y-79996111D01*
X92121413Y-79996114D01*
X92190949Y-80036260D01*
X92258339Y-80075167D01*
X92411066Y-80116091D01*
X92411068Y-80116091D01*
X92576777Y-80116091D01*
X92576793Y-80116090D01*
X92931741Y-80116090D01*
X92931757Y-80116091D01*
X92939353Y-80116091D01*
X93097464Y-80116091D01*
X93097467Y-80116091D01*
X93250195Y-80075167D01*
X93317590Y-80036256D01*
X93387126Y-79996110D01*
X93498930Y-79884306D01*
X93498930Y-79884304D01*
X93509134Y-79874101D01*
X93509138Y-79874096D01*
X93740195Y-79643038D01*
X93758970Y-79627629D01*
X93870479Y-79553122D01*
X93971532Y-79452069D01*
X94050929Y-79333243D01*
X94086285Y-79247885D01*
X94130125Y-79193482D01*
X94196419Y-79171417D01*
X94225042Y-79173722D01*
X94239005Y-79176500D01*
X94239007Y-79176500D01*
X94376995Y-79176500D01*
X94468041Y-79158389D01*
X94512328Y-79149580D01*
X94636047Y-79098333D01*
X94668675Y-79094826D01*
X94701147Y-79090157D01*
X94703234Y-79091110D01*
X94705517Y-79090865D01*
X94734860Y-79105553D01*
X94764703Y-79119182D01*
X94765943Y-79121112D01*
X94767996Y-79122140D01*
X94784736Y-79150355D01*
X94802477Y-79177960D01*
X94802912Y-79180989D01*
X94803648Y-79182229D01*
X94807500Y-79212895D01*
X94807500Y-79255190D01*
X94787815Y-79322229D01*
X94771181Y-79342872D01*
X94705067Y-79408985D01*
X94643743Y-79442469D01*
X94641578Y-79442920D01*
X94574508Y-79456261D01*
X94574498Y-79456264D01*
X94428827Y-79516602D01*
X94428814Y-79516609D01*
X94297711Y-79604210D01*
X94297707Y-79604213D01*
X94186213Y-79715707D01*
X94186210Y-79715711D01*
X94098609Y-79846814D01*
X94098602Y-79846827D01*
X94038264Y-79992498D01*
X94038261Y-79992510D01*
X94007500Y-80147153D01*
X94007500Y-80304846D01*
X94038261Y-80459489D01*
X94038264Y-80459501D01*
X94098602Y-80605172D01*
X94098609Y-80605185D01*
X94186210Y-80736288D01*
X94186213Y-80736292D01*
X94297707Y-80847786D01*
X94297711Y-80847789D01*
X94428814Y-80935390D01*
X94428827Y-80935397D01*
X94574498Y-80995735D01*
X94574503Y-80995737D01*
X94729153Y-81026499D01*
X94729156Y-81026500D01*
X94729158Y-81026500D01*
X94886844Y-81026500D01*
X94886845Y-81026499D01*
X95041497Y-80995737D01*
X95187179Y-80935394D01*
X95318289Y-80847789D01*
X95429789Y-80736289D01*
X95517394Y-80605179D01*
X95577737Y-80459497D01*
X95591079Y-80392416D01*
X95623463Y-80330509D01*
X95624904Y-80329040D01*
X95963277Y-79990669D01*
X96034465Y-79884127D01*
X96064618Y-79811331D01*
X96083501Y-79765744D01*
X96098968Y-79687987D01*
X96108500Y-79640071D01*
X96108500Y-78855000D01*
X96128185Y-78787961D01*
X96180989Y-78742206D01*
X96232500Y-78731000D01*
X96473634Y-78731000D01*
X96473649Y-78730999D01*
X96510489Y-78728100D01*
X96510495Y-78728099D01*
X96668193Y-78682283D01*
X96668196Y-78682282D01*
X96809554Y-78598683D01*
X96809561Y-78598678D01*
X96828343Y-78579895D01*
X96294819Y-78046371D01*
X96261334Y-77985048D01*
X96258500Y-77958690D01*
X96258500Y-77602310D01*
X96278185Y-77535271D01*
X96330989Y-77489516D01*
X96400147Y-77479572D01*
X96463703Y-77508597D01*
X96470181Y-77514629D01*
X97277094Y-78321542D01*
X97310579Y-78382865D01*
X97305595Y-78452557D01*
X97277094Y-78496904D01*
X97200879Y-78573118D01*
X97278020Y-78580999D01*
X99057971Y-78580999D01*
X99057987Y-78580998D01*
X99160697Y-78570505D01*
X99268297Y-78534850D01*
X99268298Y-78534849D01*
X97991224Y-77257776D01*
X97814447Y-77080999D01*
X98521552Y-77080999D01*
X98521552Y-77081001D01*
X99653564Y-78213013D01*
X99653564Y-78213012D01*
X99692358Y-78150120D01*
X99747505Y-77983697D01*
X99747506Y-77983690D01*
X99757999Y-77880986D01*
X99757999Y-76281028D01*
X99757998Y-76281012D01*
X99747505Y-76178302D01*
X99729459Y-76123844D01*
X103391000Y-76123844D01*
X103397401Y-76183372D01*
X103397403Y-76183379D01*
X103447645Y-76318086D01*
X103447649Y-76318093D01*
X103533809Y-76433187D01*
X103533812Y-76433190D01*
X103648906Y-76519350D01*
X103648913Y-76519354D01*
X103783620Y-76569596D01*
X103783627Y-76569598D01*
X103843155Y-76575999D01*
X103843172Y-76576000D01*
X103941000Y-76576000D01*
X103941000Y-75426000D01*
X103391000Y-75426000D01*
X103391000Y-76123844D01*
X99729459Y-76123844D01*
X99692358Y-76011879D01*
X99692355Y-76011873D01*
X99653565Y-75948986D01*
X99653563Y-75948986D01*
X98521552Y-77080999D01*
X97814447Y-77080999D01*
X96682434Y-75948986D01*
X96643643Y-76011875D01*
X96643641Y-76011880D01*
X96588494Y-76178302D01*
X96588493Y-76178309D01*
X96578000Y-76281013D01*
X96578000Y-76358417D01*
X96558315Y-76425456D01*
X96505511Y-76471211D01*
X96436353Y-76481155D01*
X96372797Y-76452130D01*
X96346613Y-76420417D01*
X96293832Y-76328999D01*
X96288485Y-76319737D01*
X96209263Y-76240515D01*
X96112237Y-76184497D01*
X96004018Y-76155500D01*
X95891982Y-76155500D01*
X95783763Y-76184497D01*
X95783760Y-76184498D01*
X95679699Y-76244578D01*
X95678742Y-76242920D01*
X95623356Y-76264323D01*
X95554913Y-76250273D01*
X95525377Y-76228432D01*
X95120673Y-75823727D01*
X95120672Y-75823726D01*
X95120668Y-75823723D01*
X95014126Y-75752535D01*
X94895743Y-75703499D01*
X94895737Y-75703497D01*
X94770070Y-75678500D01*
X94770068Y-75678500D01*
X91775807Y-75678500D01*
X91708768Y-75658815D01*
X91688126Y-75642181D01*
X91673093Y-75627148D01*
X97067700Y-75627148D01*
X97067700Y-75627149D01*
X98168000Y-76727448D01*
X98168001Y-76727448D01*
X99268298Y-75627149D01*
X99268298Y-75627148D01*
X99160699Y-75591494D01*
X99057979Y-75581000D01*
X97278028Y-75581000D01*
X97278012Y-75581001D01*
X97175302Y-75591494D01*
X97067700Y-75627148D01*
X91673093Y-75627148D01*
X91508265Y-75462319D01*
X91016674Y-74970727D01*
X91016673Y-74970726D01*
X90949735Y-74926000D01*
X90910127Y-74899535D01*
X90858378Y-74878100D01*
X90791744Y-74850499D01*
X90791738Y-74850497D01*
X90666071Y-74825500D01*
X90666069Y-74825500D01*
X90501272Y-74825500D01*
X90434233Y-74805815D01*
X90388478Y-74753011D01*
X90378534Y-74683853D01*
X90407559Y-74620297D01*
X90432381Y-74598398D01*
X90480234Y-74566422D01*
X90520479Y-74539532D01*
X90621532Y-74438479D01*
X90700929Y-74319653D01*
X90706968Y-74305073D01*
X90750805Y-74250671D01*
X90817099Y-74228604D01*
X90884799Y-74245881D01*
X90932411Y-74297017D01*
X90936089Y-74305069D01*
X90937223Y-74307808D01*
X90937228Y-74307817D01*
X91013885Y-74422541D01*
X91013888Y-74422545D01*
X91111454Y-74520111D01*
X91111458Y-74520114D01*
X91226182Y-74596771D01*
X91226195Y-74596778D01*
X91282976Y-74620297D01*
X91353672Y-74649580D01*
X91353676Y-74649580D01*
X91353677Y-74649581D01*
X91489004Y-74676500D01*
X91489007Y-74676500D01*
X91626995Y-74676500D01*
X91718041Y-74658389D01*
X91762328Y-74649580D01*
X91889811Y-74596775D01*
X92004542Y-74520114D01*
X92046232Y-74478424D01*
X92095319Y-74429338D01*
X92156642Y-74395853D01*
X92226334Y-74400837D01*
X92270681Y-74429338D01*
X92361454Y-74520111D01*
X92361458Y-74520114D01*
X92476182Y-74596771D01*
X92476195Y-74596778D01*
X92532976Y-74620297D01*
X92603672Y-74649580D01*
X92603676Y-74649580D01*
X92603677Y-74649581D01*
X92739004Y-74676500D01*
X92739007Y-74676500D01*
X92876995Y-74676500D01*
X92968041Y-74658389D01*
X93012328Y-74649580D01*
X93139811Y-74596775D01*
X93239109Y-74530425D01*
X93305786Y-74509548D01*
X93373166Y-74528032D01*
X93376889Y-74530425D01*
X93476189Y-74596775D01*
X93476191Y-74596776D01*
X93476195Y-74596778D01*
X93532976Y-74620297D01*
X93603672Y-74649580D01*
X93603676Y-74649580D01*
X93603677Y-74649581D01*
X93739004Y-74676500D01*
X93739007Y-74676500D01*
X93876995Y-74676500D01*
X93968041Y-74658389D01*
X94012328Y-74649580D01*
X94139811Y-74596775D01*
X94254542Y-74520114D01*
X94296232Y-74478424D01*
X94345319Y-74429338D01*
X94406642Y-74395853D01*
X94476334Y-74400837D01*
X94520681Y-74429338D01*
X94611454Y-74520111D01*
X94611458Y-74520114D01*
X94726182Y-74596771D01*
X94726195Y-74596778D01*
X94782976Y-74620297D01*
X94853672Y-74649580D01*
X94853676Y-74649580D01*
X94853677Y-74649581D01*
X94989004Y-74676500D01*
X94989007Y-74676500D01*
X95126995Y-74676500D01*
X95218041Y-74658389D01*
X95262328Y-74649580D01*
X95370319Y-74604849D01*
X97067700Y-74604849D01*
X97175308Y-74640506D01*
X97175305Y-74640506D01*
X97278019Y-74650999D01*
X99057971Y-74650999D01*
X99057987Y-74650998D01*
X99160697Y-74640505D01*
X99268297Y-74604850D01*
X99268298Y-74604849D01*
X98168000Y-73504552D01*
X97067700Y-74604849D01*
X95370319Y-74604849D01*
X95389811Y-74596775D01*
X95504542Y-74520114D01*
X95515108Y-74509548D01*
X95546233Y-74478424D01*
X95602111Y-74422545D01*
X95602114Y-74422542D01*
X95678775Y-74307811D01*
X95731580Y-74180328D01*
X95756770Y-74053690D01*
X95758500Y-74044995D01*
X95758500Y-73907004D01*
X95731581Y-73771677D01*
X95731580Y-73771676D01*
X95731580Y-73771672D01*
X95691510Y-73674933D01*
X95678778Y-73644195D01*
X95678771Y-73644182D01*
X95602114Y-73529458D01*
X95602111Y-73529454D01*
X95504545Y-73431888D01*
X95504541Y-73431885D01*
X95389817Y-73355228D01*
X95389804Y-73355221D01*
X95262332Y-73302421D01*
X95262322Y-73302418D01*
X95126995Y-73275500D01*
X95126993Y-73275500D01*
X94989007Y-73275500D01*
X94989005Y-73275500D01*
X94853677Y-73302418D01*
X94853667Y-73302421D01*
X94726195Y-73355221D01*
X94726182Y-73355228D01*
X94611458Y-73431885D01*
X94611454Y-73431888D01*
X94520681Y-73522662D01*
X94459358Y-73556147D01*
X94389666Y-73551163D01*
X94345319Y-73522662D01*
X94254545Y-73431888D01*
X94254541Y-73431885D01*
X94139817Y-73355228D01*
X94139804Y-73355221D01*
X94012332Y-73302421D01*
X94012322Y-73302418D01*
X93876995Y-73275500D01*
X93876993Y-73275500D01*
X93739007Y-73275500D01*
X93739005Y-73275500D01*
X93603677Y-73302418D01*
X93603667Y-73302421D01*
X93476195Y-73355221D01*
X93476182Y-73355228D01*
X93376891Y-73421573D01*
X93310213Y-73442451D01*
X93242833Y-73423966D01*
X93239109Y-73421573D01*
X93139817Y-73355228D01*
X93139804Y-73355221D01*
X93012332Y-73302421D01*
X93012322Y-73302418D01*
X92876995Y-73275500D01*
X92876993Y-73275500D01*
X92739007Y-73275500D01*
X92739005Y-73275500D01*
X92603677Y-73302418D01*
X92603667Y-73302421D01*
X92476195Y-73355221D01*
X92476182Y-73355228D01*
X92361458Y-73431885D01*
X92361454Y-73431888D01*
X92270681Y-73522662D01*
X92209358Y-73556147D01*
X92139666Y-73551163D01*
X92095319Y-73522662D01*
X92004545Y-73431888D01*
X92004541Y-73431885D01*
X91889817Y-73355228D01*
X91889804Y-73355221D01*
X91762332Y-73302421D01*
X91762322Y-73302418D01*
X91626995Y-73275500D01*
X91626993Y-73275500D01*
X91489007Y-73275500D01*
X91489005Y-73275500D01*
X91353677Y-73302418D01*
X91353667Y-73302421D01*
X91226195Y-73355221D01*
X91226182Y-73355228D01*
X91111458Y-73431885D01*
X91111454Y-73431888D01*
X91013888Y-73529454D01*
X91013885Y-73529458D01*
X90937228Y-73644182D01*
X90937222Y-73644193D01*
X90936087Y-73646935D01*
X90935108Y-73648148D01*
X90934355Y-73649559D01*
X90934087Y-73649415D01*
X90892242Y-73701335D01*
X90825946Y-73723395D01*
X90758248Y-73706111D01*
X90710641Y-73654971D01*
X90706967Y-73646925D01*
X90705836Y-73644195D01*
X90700929Y-73632347D01*
X90700925Y-73632340D01*
X90621532Y-73513521D01*
X90621529Y-73513517D01*
X90520482Y-73412470D01*
X90520478Y-73412467D01*
X90401659Y-73333074D01*
X90401650Y-73333069D01*
X90269620Y-73278381D01*
X90269614Y-73278379D01*
X90129457Y-73250500D01*
X90129455Y-73250500D01*
X89986545Y-73250500D01*
X89986543Y-73250500D01*
X89846385Y-73278379D01*
X89846375Y-73278382D01*
X89709451Y-73335098D01*
X89639982Y-73342567D01*
X89577503Y-73311292D01*
X89541851Y-73251203D01*
X89537999Y-73220537D01*
X89537999Y-72351029D01*
X89537998Y-72351013D01*
X96578000Y-72351013D01*
X96578000Y-73950971D01*
X96578001Y-73950987D01*
X96588494Y-74053697D01*
X96643641Y-74220119D01*
X96643644Y-74220126D01*
X96682434Y-74283012D01*
X96682435Y-74283012D01*
X97814448Y-73151000D01*
X97814448Y-73150999D01*
X98521552Y-73150999D01*
X98521552Y-73151001D01*
X99653564Y-74283013D01*
X99653564Y-74283012D01*
X99687401Y-74228155D01*
X103391000Y-74228155D01*
X103391000Y-74926000D01*
X103941000Y-74926000D01*
X103941000Y-73776000D01*
X103843155Y-73776000D01*
X103783627Y-73782401D01*
X103783620Y-73782403D01*
X103648913Y-73832645D01*
X103648906Y-73832649D01*
X103533812Y-73918809D01*
X103533809Y-73918812D01*
X103447649Y-74033906D01*
X103447645Y-74033913D01*
X103397403Y-74168620D01*
X103397401Y-74168627D01*
X103391000Y-74228155D01*
X99687401Y-74228155D01*
X99692358Y-74220119D01*
X99703715Y-74185848D01*
X99703715Y-74185847D01*
X99747505Y-74053697D01*
X99747506Y-74053690D01*
X99757999Y-73950986D01*
X99757999Y-72351028D01*
X99757998Y-72351012D01*
X99747505Y-72248302D01*
X99692358Y-72081879D01*
X99692355Y-72081873D01*
X99653565Y-72018986D01*
X99653563Y-72018986D01*
X98521552Y-73150999D01*
X97814448Y-73150999D01*
X96682434Y-72018986D01*
X96643643Y-72081875D01*
X96643641Y-72081880D01*
X96588494Y-72248302D01*
X96588493Y-72248309D01*
X96578000Y-72351013D01*
X89537998Y-72351013D01*
X89537998Y-72351012D01*
X89527505Y-72248302D01*
X89472358Y-72081879D01*
X89472355Y-72081873D01*
X89433565Y-72018986D01*
X89433563Y-72018986D01*
X88301552Y-73150999D01*
X88301552Y-73151000D01*
X89358643Y-74208091D01*
X89385523Y-74248319D01*
X89415069Y-74319649D01*
X89415074Y-74319659D01*
X89494467Y-74438478D01*
X89494470Y-74438482D01*
X89595517Y-74539529D01*
X89595521Y-74539532D01*
X89683619Y-74598398D01*
X89728424Y-74652010D01*
X89737131Y-74721335D01*
X89706976Y-74784363D01*
X89647533Y-74821082D01*
X89614728Y-74825500D01*
X89150844Y-74825500D01*
X89083805Y-74805815D01*
X89038050Y-74753011D01*
X89028106Y-74683853D01*
X89033325Y-74672424D01*
X89032338Y-74672191D01*
X89048298Y-74604849D01*
X87948000Y-73504552D01*
X86847700Y-74604849D01*
X86955308Y-74640506D01*
X86955305Y-74640506D01*
X87058018Y-74650999D01*
X87078056Y-74650999D01*
X87145096Y-74670681D01*
X87190853Y-74723483D01*
X87200800Y-74792641D01*
X87171777Y-74856198D01*
X87146954Y-74878100D01*
X87095519Y-74912468D01*
X86994470Y-75013517D01*
X86994467Y-75013521D01*
X86915074Y-75132340D01*
X86915069Y-75132349D01*
X86860381Y-75264379D01*
X86860379Y-75264385D01*
X86832920Y-75402429D01*
X86832920Y-75402432D01*
X86832500Y-75404545D01*
X86308000Y-75404545D01*
X86308000Y-74404299D01*
X86327685Y-74337260D01*
X86380489Y-74291505D01*
X86446397Y-74281138D01*
X86462435Y-74283012D01*
X87594448Y-73151000D01*
X86462434Y-72018986D01*
X86446396Y-72020861D01*
X86377524Y-72009092D01*
X86325948Y-71961957D01*
X86320111Y-71951149D01*
X86308000Y-71925796D01*
X86308000Y-71697148D01*
X86847700Y-71697148D01*
X86847700Y-71697149D01*
X87948000Y-72797448D01*
X87948001Y-72797448D01*
X89048298Y-71697149D01*
X89048298Y-71697148D01*
X97067700Y-71697148D01*
X97067700Y-71697149D01*
X98168000Y-72797448D01*
X98168001Y-72797448D01*
X99268298Y-71697149D01*
X99268298Y-71697148D01*
X99160699Y-71661494D01*
X99057979Y-71651000D01*
X97278028Y-71651000D01*
X97278012Y-71651001D01*
X97175302Y-71661494D01*
X97067700Y-71697148D01*
X89048298Y-71697148D01*
X88940699Y-71661494D01*
X88837979Y-71651000D01*
X87058028Y-71651000D01*
X87058012Y-71651001D01*
X86955302Y-71661494D01*
X86847700Y-71697148D01*
X86308000Y-71697148D01*
X86308000Y-70350000D01*
X86327685Y-70282961D01*
X86380489Y-70237206D01*
X86432000Y-70226000D01*
X101383768Y-70226000D01*
X101450807Y-70245685D01*
G37*
%TD.AperFunction*%
%TA.AperFunction,Conductor*%
G36*
X102638013Y-86004352D02*
G01*
X102689573Y-86051505D01*
X102707500Y-86115727D01*
X102707500Y-87947683D01*
X102687815Y-88014722D01*
X102635011Y-88060477D01*
X102565853Y-88070421D01*
X102536050Y-88062245D01*
X102512332Y-88052421D01*
X102512322Y-88052418D01*
X102376995Y-88025500D01*
X102376993Y-88025500D01*
X102239007Y-88025500D01*
X102239005Y-88025500D01*
X102103677Y-88052418D01*
X102103667Y-88052421D01*
X101976195Y-88105221D01*
X101976182Y-88105228D01*
X101861458Y-88181885D01*
X101861454Y-88181888D01*
X101763888Y-88279454D01*
X101763885Y-88279458D01*
X101687228Y-88394182D01*
X101687221Y-88394195D01*
X101647061Y-88491153D01*
X101603220Y-88545557D01*
X101536926Y-88567622D01*
X101469227Y-88550343D01*
X101421616Y-88499206D01*
X101408500Y-88443701D01*
X101408500Y-86115727D01*
X101428185Y-86048688D01*
X101480989Y-86002933D01*
X101550147Y-85992989D01*
X101605855Y-86017534D01*
X101606393Y-86016730D01*
X101610966Y-86019786D01*
X101611164Y-86019873D01*
X101611458Y-86020114D01*
X101726182Y-86096771D01*
X101726195Y-86096778D01*
X101847825Y-86147158D01*
X101853672Y-86149580D01*
X101853676Y-86149580D01*
X101853677Y-86149581D01*
X101989004Y-86176500D01*
X101989007Y-86176500D01*
X102126995Y-86176500D01*
X102218041Y-86158389D01*
X102262328Y-86149580D01*
X102389811Y-86096775D01*
X102504542Y-86020114D01*
X102504546Y-86020109D01*
X102504836Y-86019873D01*
X102505020Y-86019794D01*
X102509607Y-86016730D01*
X102510188Y-86017599D01*
X102569146Y-85992561D01*
X102638013Y-86004352D01*
G37*
%TD.AperFunction*%
%TA.AperFunction,Conductor*%
G36*
X102626834Y-83358915D02*
G01*
X102682767Y-83400787D01*
X102707184Y-83466251D01*
X102707500Y-83475097D01*
X102707500Y-84836272D01*
X102687815Y-84903311D01*
X102635011Y-84949066D01*
X102565853Y-84959010D01*
X102510142Y-84934467D01*
X102509607Y-84935270D01*
X102505047Y-84932223D01*
X102504847Y-84932135D01*
X102504547Y-84931889D01*
X102389817Y-84855228D01*
X102389804Y-84855221D01*
X102262332Y-84802421D01*
X102262322Y-84802418D01*
X102126995Y-84775500D01*
X102126993Y-84775500D01*
X101989007Y-84775500D01*
X101989005Y-84775500D01*
X101853677Y-84802418D01*
X101853667Y-84802421D01*
X101726195Y-84855221D01*
X101726182Y-84855228D01*
X101611452Y-84931889D01*
X101611153Y-84932135D01*
X101610966Y-84932214D01*
X101606393Y-84935270D01*
X101605813Y-84934402D01*
X101546840Y-84959440D01*
X101477974Y-84947640D01*
X101426419Y-84900482D01*
X101408500Y-84836272D01*
X101408500Y-84526097D01*
X101428185Y-84459058D01*
X101444819Y-84438416D01*
X102495819Y-83387416D01*
X102557142Y-83353931D01*
X102626834Y-83358915D01*
G37*
%TD.AperFunction*%
%TD*%
M02*
